<?xml version="1.0" encoding="UTF-8"?>
<svg id="Capa_2" data-name="Capa 2" xmlns="http://www.w3.org/2000/svg" xmlns:xlink="http://www.w3.org/1999/xlink" viewBox="0 0 470.5 462.34">
  <defs>
    <style>
      .cls-1 {
        fill: #fff;
      }

      .cls-2 {
        filter: url(#drop-shadow-1);
      }
    </style>
    <filter id="drop-shadow-1" filterUnits="userSpaceOnUse">
      <feOffset dx="5" dy="5"/>
      <feGaussianBlur result="blur" stdDeviation="3"/>
      <feFlood flood-color="#000" flood-opacity=".4"/>
      <feComposite in2="blur" operator="in"/>
      <feComposite in="SourceGraphic"/>
    </filter>
  </defs>
  <g id="Capa_1-2" data-name="Capa 1">
    <g class="cls-2">
      <path class="cls-1" d="M386.74,160.03c-.72-3.81-2.93-6.95-6.2-8.85-2.73-1.58-5.96-2.14-9.32-1.63-2.06-1.08-4.47-1.62-7.07-1.57-2.72,.05-8.13,.83-11.84,5.7-4.32,.24-8.25,2.1-11.4,5.47-3.61,.48-6.8,2.02-9.31,4.47,.08-.22,.15-.45,.21-.68,.57-1.98,.74-4.01,.51-6.03,.87-1.18,1.55-2.49,1.99-3.89,.38-1.2,.58-2.42,.61-3.65,1.2-1.5,2.11-3.21,2.64-5.03,.32-1.09,.5-2.19,.53-3.28,1.33-1.8,2.2-3.89,2.52-6.13,.18-1.29,.17-2.57-.02-3.81,1.49-3.39,1.75-7.2,.57-10.64-1.07-3.12-3.13-5.62-5.89-7.27-2.21-4.48-6.4-7.44-11.83-8.11-2.06-.25-8.04-.43-12.47,4.99-4.73,1.2-8.79,4.58-10.63,9.25-1.09,.84-2.06,1.94-2.9,3.28-1.33,1.99-2.16,4.18-2.47,6.45-2.9,2.52-4.83,5.94-5.48,9.82-2.77,2.79-4.44,6.38-4.73,10.03-3.6,3.33-5.21,6.75-5.75,9.85-2.65,2.2-4.49,5.01-5.34,8.11-2.5,1.94-4.28,4.59-5.13,7.68-1.72,1.45-3.01,3.17-3.86,5.14-.43,.09-.86,.2-1.29,.31-14.83,3.82-29.41,9.68-43.32,17.41-7.94,4.41-15.29,9.78-21.55,14.46-6.98,5.22-14.11,11.05-19.95,18.55-1.88-.07-3.76,.25-5.61,.97-3.14-.75-6.33-.47-9.23,.81-1.83-.4-3.78-.45-5.77-.13-1.33,.21-2.61,.56-3.84,1.02-2.2-.71-4.86-1.01-8.04-.54-1.31,.19-2.51,.52-3.61,.92-3.4-1.58-7.17-1.84-10.9-.72-3.75-1.3-7.7-1.25-11.27,.11-1.78-.69-3.68-1.06-5.58-1.05-1.98,0-3.86,.41-5.55,1.16-3.18-.3-6.45,.34-9.3,1.88-1.49,.8-2.8,1.81-3.9,2.98-4.88,1.02-8.78,4.49-10.57,9.7-1.64,4.77-.82,9.85,1.85,13.6,.15,2.7,1.06,4.81,1.97,6.27,1.41,2.27,4.19,5.21,9.46,6.3,.72,.15,1.42,.24,2.09,.28,1.23,.97,2.75,1.82,4.61,2.3,1.89,.49,3.64,.47,5.19,.21,.55,.25,1.01,.43,1.33,.55,2.47,.93,4.94,1.16,7.4,.69,2.37,1.21,5.06,1.69,7.76,1.3,2.02,1.44,4.04,2.15,5.71,2.5,.09,.02,.19,.04,.28,.06-3.32,1.05-6.16,3.12-8.26,6.05-4.41,1.2-8.01,3.86-10.29,7.48-2.86,.46-5.46,1.68-7.58,3.64-2.92,2.7-4.55,6.41-4.71,10.59-2.71,3.56-3.73,7.81-2.82,11.88,.65,2.89,2.22,5.43,4.49,7.4,1.9,5.45,6.9,9.08,13.27,9.13,.78,0,1.55-.04,2.3-.14,.04,.47,.1,.94,.19,1.41-.74,2.43-.75,5.05,.05,7.5,1.44,4.42,5.29,7.72,10.05,8.61,1.07,.2,2.02,.26,2.74,.29,3.13,1.46,6.89,1.35,10.01-.38,.38-.06,1.1-.1,1.65-.14l.44-.03c.65-.04,1.31-.15,1.96-.3,4.54,.86,9.13-.65,12.57-4.32,.51-.54,.98-1.1,1.41-1.69,1.98-.46,3.86-1.35,5.55-2.67,3.18-.4,6.09-1.72,8.45-3.8,2.12-.16,4.13-.75,5.95-1.77,1.16-.65,2.19-1.45,3.12-2.39,2.96-.23,5.77-1.37,8.11-3.31,1.55-.06,2.91-.37,4.07-.79,5.55,6.96,12.22,13.54,22.17,16.94,10.34,3.53,19.86,3.95,29.1,1.28,5.42-1.56,10.13-3.84,14.69-6.05,2.17-1.05,4.22-2.04,6.26-2.92,6.49-2.77,12.95-5.74,19.2-8.61l2.66-1.22c.83-.38,1.79-.76,2.81-1.15,2.12-.83,4.57-1.78,7.03-3.25,1.35-.8,2.7-1.75,4-2.92,8.18-7.3,17.46-14.71,28.39-22.63,4.39-3.18,9.93-7.72,13.81-14.59,8.35-14.79,9.03-30.42,2.05-45.48,.88-.83,1.64-1.79,2.29-2.88,2.91-1.12,5.27-3.05,6.88-5.62,1.39-.4,2.7-1.01,3.9-1.81,1.63-1.08,3-2.49,4.07-4.15,2.9-1.07,5.42-2.96,7.27-5.48,1.95-.82,3.65-2.04,5-3.55,2.68-.28,4.73-1.24,6.19-2.2,1.86-1.23,4.12-3.38,5.49-7.07,1.3-1.34,2.15-2.69,2.73-3.63,2.93-1.9,4.85-5.18,5.07-8.65,.34-.71,.78-1.63,1.14-2.78,1.71-5.39,0-10.77-4.48-14.06-1.75-1.28-3.54-1.89-5.12-2.15-.31-.27-.65-.54-1.03-.81,1.18-1.51,2.08-3.23,2.62-5.08,1.29-4.39,.34-8.95-2.54-12.2-.65-.73-.67-.85-.72-1.09Z"/>
      <image width="992" height="926" transform="translate(0 179.92) rotate(-30.74) scale(.35)" xlink:href="C:\Users\Laura\Downloads\ajoloteRHS.png"/>
    </g>
  </g>
</svg>