<?xml version="1.0" encoding="UTF-8"?>
<svg id="Capa_2" data-name="Capa 2" xmlns="http://www.w3.org/2000/svg" viewBox="0 0 2308.69 1735.33">
  <defs>
    <style>
      .cls-1 {
        fill: none;
        stroke: #a0e8fc;
        stroke-dasharray: 0 0 0 0 0 40 0 40;
        stroke-linecap: round;
        stroke-miterlimit: 10;
        stroke-width: 19px;
      }
    </style>
  </defs>
  <g id="Capa_1-2" data-name="Capa 1">
    <path class="cls-1" d="M1331.61,613.95c0-159.53-129.32-288.85-288.85-288.85h-30.15c-159.53,0-288.85,129.32-288.85,288.85"/>
    <path class="cls-1" d="M1331.61,613.95c0,159.53,129.32,288.86,288.85,288.86h30.15c159.53,0,288.85-129.33,288.85-288.86,32.35-207.13,212.7-244.64,267.09-169.78,185.49,255.33,44.84,355.97-13.49,422.9-66.51,76.31-162.95,61.45-235.64,151.85-95.99,119.4-53.74,293.52-41.89,345.6,48.66,213.89,214,330.13,261.82,361.31"/>
    <path class="cls-1" d="M9.5,9.5C325.2,231.12,115.9,454.42,115.9,613.95s129.32,288.86,288.85,288.86h30.15c159.53,0,288.85-129.33,288.85-288.86"/>
  </g>
</svg>