<?xml version="1.0" encoding="UTF-8"?>
<svg xmlns="http://www.w3.org/2000/svg" xmlns:xlink="http://www.w3.org/1999/xlink" viewBox="0 0 235.68 157.21">
  <defs>
    <style>
      .cls-1 {
        fill: url(#Degradado_sin_nombre_76-6);
      }

      .cls-2 {
        fill: #327706;
      }

      .cls-3, .cls-4 {
        fill: #fff;
      }

      .cls-5 {
        fill: url(#Degradado_sin_nombre_76-5);
      }

      .cls-6 {
        fill: url(#Degradado_sin_nombre_76-7);
      }

      .cls-7 {
        fill: url(#Degradado_sin_nombre_102-2);
      }

      .cls-7, .cls-8, .cls-9, .cls-10, .cls-11, .cls-12, .cls-13, .cls-14, .cls-15, .cls-16, .cls-17 {
        mix-blend-mode: multiply;
      }

      .cls-18 {
        fill: url(#Degradado_sin_nombre_95);
      }

      .cls-18, .cls-19, .cls-20, .cls-21 {
        mix-blend-mode: hard-light;
      }

      .cls-22 {
        fill: url(#Degradado_sin_nombre_76-3);
      }

      .cls-23, .cls-24 {
        mix-blend-mode: soft-light;
        opacity: .7;
      }

      .cls-25 {
        fill: url(#Degradado_sin_nombre_98);
      }

      .cls-26 {
        fill: url(#Degradado_sin_nombre_76-11);
      }

      .cls-27 {
        isolation: isolate;
      }

      .cls-28 {
        fill: url(#Degradado_sin_nombre_76-9);
      }

      .cls-8 {
        fill: url(#Degradado_sin_nombre_103-4);
      }

      .cls-29 {
        fill: url(#Degradado_sin_nombre_70);
      }

      .cls-19 {
        fill: url(#Degradado_sin_nombre_76);
      }

      .cls-30 {
        fill: url(#Degradado_sin_nombre_70-6);
      }

      .cls-31 {
        fill: #76c619;
      }

      .cls-32 {
        fill: url(#Degradado_sin_nombre_70-5);
      }

      .cls-33 {
        fill: url(#Degradado_sin_nombre_76-10);
      }

      .cls-9 {
        fill: url(#Degradado_sin_nombre_102-5);
      }

      .cls-20 {
        fill: url(#Degradado_sin_nombre_95-3);
      }

      .cls-34 {
        fill: url(#Degradado_sin_nombre_98-2);
      }

      .cls-10 {
        fill: url(#Degradado_sin_nombre_102-6);
      }

      .cls-35 {
        fill: url(#Degradado_sin_nombre_76-8);
      }

      .cls-11 {
        fill: url(#Degradado_sin_nombre_103);
      }

      .cls-36 {
        fill: url(#Degradado_sin_nombre_70-3);
      }

      .cls-37 {
        fill: url(#Degradado_sin_nombre_76-4);
      }

      .cls-4 {
        opacity: .87;
      }

      .cls-38 {
        fill: url(#Degradado_sin_nombre_70-2);
      }

      .cls-12 {
        fill: url(#Degradado_sin_nombre_103-3);
      }

      .cls-39 {
        fill: url(#Degradado_sin_nombre_70-4);
      }

      .cls-13 {
        fill: url(#Degradado_sin_nombre_102);
      }

      .cls-40 {
        fill: url(#Degradado_sin_nombre_76-2);
      }

      .cls-24 {
        fill: url(#Degradado_sin_nombre_98-3);
      }

      .cls-14 {
        fill: url(#Degradado_sin_nombre_102-3);
      }

      .cls-15 {
        fill: url(#Degradado_sin_nombre_103-2);
      }

      .cls-16 {
        fill: url(#Degradado_sin_nombre_102-4);
      }

      .cls-17 {
        fill: url(#Degradado_sin_nombre_102-7);
      }

      .cls-21 {
        fill: url(#Degradado_sin_nombre_95-2);
      }
    </style>
    <linearGradient id="Degradado_sin_nombre_102" data-name="Degradado sin nombre 102" x1="73.26" y1="116.62" x2="115.99" y2="116.62" gradientUnits="userSpaceOnUse">
      <stop offset="0" stop-color="#0a8949"/>
      <stop offset=".17" stop-color="#369e6a" stop-opacity=".82"/>
      <stop offset=".74" stop-color="#c6e3d4" stop-opacity=".23"/>
      <stop offset="1" stop-color="#fff" stop-opacity="0"/>
    </linearGradient>
    <linearGradient id="Degradado_sin_nombre_95" data-name="Degradado sin nombre 95" x1="-4600.3" y1="5133.77" x2="-4585.36" y2="5156.47" gradientTransform="translate(8516.65 648.54) rotate(60.54) scale(1 1.38)" gradientUnits="userSpaceOnUse">
      <stop offset=".16" stop-color="#00b9b7" stop-opacity="0"/>
      <stop offset=".22" stop-color="#0ebcba" stop-opacity=".06"/>
      <stop offset=".34" stop-color="#33c7c5" stop-opacity=".2"/>
      <stop offset=".49" stop-color="#6fd7d6" stop-opacity=".44"/>
      <stop offset=".68" stop-color="#c1eeed" stop-opacity=".76"/>
      <stop offset=".81" stop-color="#fff"/>
    </linearGradient>
    <linearGradient id="Degradado_sin_nombre_70" data-name="Degradado sin nombre 70" x1="24.2" y1="-35.09" x2="21.94" y2="85.76" gradientUnits="userSpaceOnUse">
      <stop offset=".19" stop-color="#fff"/>
      <stop offset=".27" stop-color="#fbfcfd" stop-opacity=".98"/>
      <stop offset=".35" stop-color="#f0f6fa" stop-opacity=".94"/>
      <stop offset=".44" stop-color="#deecf4" stop-opacity=".86"/>
      <stop offset=".52" stop-color="#c4ddec" stop-opacity=".75"/>
      <stop offset=".6" stop-color="#a3cae2" stop-opacity=".6"/>
      <stop offset=".68" stop-color="#7ab3d5" stop-opacity=".43"/>
      <stop offset=".76" stop-color="#4c98c7" stop-opacity=".23"/>
      <stop offset=".84" stop-color="#187bb7" stop-opacity="0"/>
    </linearGradient>
    <linearGradient id="Degradado_sin_nombre_70-2" data-name="Degradado sin nombre 70" x1="69.97" y1="-34.23" x2="67.72" y2="86.61" xlink:href="#Degradado_sin_nombre_70"/>
    <linearGradient id="Degradado_sin_nombre_70-3" data-name="Degradado sin nombre 70" x1="117.54" y1="-33.35" x2="115.28" y2="87.5" xlink:href="#Degradado_sin_nombre_70"/>
    <linearGradient id="Degradado_sin_nombre_70-4" data-name="Degradado sin nombre 70" x1="163.03" y1="-32.5" x2="160.77" y2="88.35" xlink:href="#Degradado_sin_nombre_70"/>
    <linearGradient id="Degradado_sin_nombre_70-5" data-name="Degradado sin nombre 70" x1="149.4" y1="52.34" x2="126.85" y2="139.37" xlink:href="#Degradado_sin_nombre_70"/>
    <linearGradient id="Degradado_sin_nombre_70-6" data-name="Degradado sin nombre 70" x1="190.4" y1="62.96" x2="167.85" y2="149.99" xlink:href="#Degradado_sin_nombre_70"/>
    <linearGradient id="Degradado_sin_nombre_102-2" data-name="Degradado sin nombre 102" x1="208.06" y1="63.68" x2="205.85" y2="6.36" xlink:href="#Degradado_sin_nombre_102"/>
    <linearGradient id="Degradado_sin_nombre_95-2" data-name="Degradado sin nombre 95" x1="195.97" y1="43.78" x2="240.46" y2="44.68" gradientTransform="matrix(1, 0, 0, 1, 0, 0)" xlink:href="#Degradado_sin_nombre_95"/>
    <linearGradient id="Degradado_sin_nombre_95-3" data-name="Degradado sin nombre 95" x1="-4613.27" y1="4459.53" x2="-4598.33" y2="4482.23" gradientTransform="translate(6349.24 1872.84) rotate(60.54)" xlink:href="#Degradado_sin_nombre_95"/>
    <linearGradient id="Degradado_sin_nombre_98" data-name="Degradado sin nombre 98" x1="19.81" y1="143.17" x2="20.61" y2="77.24" gradientUnits="userSpaceOnUse">
      <stop offset=".16" stop-color="#187bb7" stop-opacity="0"/>
      <stop offset=".24" stop-color="#4c98c7" stop-opacity=".23"/>
      <stop offset=".32" stop-color="#7ab3d5" stop-opacity=".43"/>
      <stop offset=".4" stop-color="#a3cae2" stop-opacity=".6"/>
      <stop offset=".48" stop-color="#c4ddec" stop-opacity=".75"/>
      <stop offset=".56" stop-color="#deecf4" stop-opacity=".86"/>
      <stop offset=".65" stop-color="#f0f6fa" stop-opacity=".94"/>
      <stop offset=".73" stop-color="#fbfcfd" stop-opacity=".98"/>
      <stop offset=".81" stop-color="#fff"/>
    </linearGradient>
    <linearGradient id="Degradado_sin_nombre_98-2" data-name="Degradado sin nombre 98" x1="59.52" y1="143.65" x2="60.32" y2="77.72" xlink:href="#Degradado_sin_nombre_98"/>
    <linearGradient id="Degradado_sin_nombre_76" data-name="Degradado sin nombre 76" x1="21.9" y1="-7.47" x2="23.69" y2="57.3" gradientUnits="userSpaceOnUse">
      <stop offset=".19" stop-color="#fff"/>
      <stop offset=".32" stop-color="#c1eeed" stop-opacity=".76"/>
      <stop offset=".51" stop-color="#6fd7d6" stop-opacity=".44"/>
      <stop offset=".66" stop-color="#33c7c5" stop-opacity=".2"/>
      <stop offset=".78" stop-color="#0ebcba" stop-opacity=".06"/>
      <stop offset=".84" stop-color="#00b9b7" stop-opacity="0"/>
    </linearGradient>
    <linearGradient id="Degradado_sin_nombre_102-3" data-name="Degradado sin nombre 102" x1="22.12" y1="12630.39" x2="23.74" y2="12688.94" gradientTransform="translate(0 12711.12) scale(1 -1)" xlink:href="#Degradado_sin_nombre_102"/>
    <linearGradient id="Degradado_sin_nombre_76-2" data-name="Degradado sin nombre 76" x1="57.28" y1="-6.79" x2="59.06" y2="57.8" xlink:href="#Degradado_sin_nombre_76"/>
    <linearGradient id="Degradado_sin_nombre_76-3" data-name="Degradado sin nombre 76" x1="78.85" y1="-6.05" x2="80.52" y2="54.31" xlink:href="#Degradado_sin_nombre_76"/>
    <linearGradient id="Degradado_sin_nombre_102-4" data-name="Degradado sin nombre 102" x1="2954.9" y1="12659.95" x2="2956.56" y2="12720.31" gradientTransform="translate(3027.05 12740.24) rotate(-180)" xlink:href="#Degradado_sin_nombre_102"/>
    <linearGradient id="Degradado_sin_nombre_102-5" data-name="Degradado sin nombre 102" x1="2627.85" y1="12630.49" x2="2629.51" y2="12690.85" gradientTransform="translate(3276.14 12678.61) rotate(177.7)" xlink:href="#Degradado_sin_nombre_102"/>
    <linearGradient id="Degradado_sin_nombre_76-4" data-name="Degradado sin nombre 76" x1="128.23" y1="74.5" x2="130.02" y2="139.09" xlink:href="#Degradado_sin_nombre_76"/>
    <linearGradient id="Degradado_sin_nombre_76-5" data-name="Degradado sin nombre 76" x1="149.81" y1="75.24" x2="151.47" y2="135.6" xlink:href="#Degradado_sin_nombre_76"/>
    <linearGradient id="Degradado_sin_nombre_76-6" data-name="Degradado sin nombre 76" x1="-1738" y1="871.15" x2="-1736.33" y2="931.51" gradientTransform="translate(2114.1 -198.63) rotate(18.3)" xlink:href="#Degradado_sin_nombre_76"/>
    <linearGradient id="Degradado_sin_nombre_102-6" data-name="Degradado sin nombre 102" x1="5243.79" y1="12045.28" x2="5245.45" y2="12105.64" gradientTransform="translate(1112.67 13144.03) rotate(-161.7) scale(.95 1)" xlink:href="#Degradado_sin_nombre_102"/>
    <linearGradient id="Degradado_sin_nombre_76-7" data-name="Degradado sin nombre 76" x1="1984.27" y1="-74.39" x2="1985.93" y2="-14.03" gradientTransform="translate(-1832.77 725.24) rotate(-17.19)" xlink:href="#Degradado_sin_nombre_76"/>
    <linearGradient id="Degradado_sin_nombre_103" data-name="Degradado sin nombre 103" x1="1935.87" y1="-55.47" x2="1937.53" y2="4.89" gradientTransform="translate(-1832.77 725.24) rotate(-17.19)" gradientUnits="userSpaceOnUse">
      <stop offset="0" stop-color="#fff" stop-opacity="0"/>
      <stop offset=".26" stop-color="#c6e3d4" stop-opacity=".23"/>
      <stop offset=".83" stop-color="#369e6a" stop-opacity=".82"/>
      <stop offset="1" stop-color="#0a8949"/>
    </linearGradient>
    <linearGradient id="Degradado_sin_nombre_76-8" data-name="Degradado sin nombre 76" x1="116.09" y1="-7.91" x2="117.94" y2="58.87" xlink:href="#Degradado_sin_nombre_76"/>
    <linearGradient id="Degradado_sin_nombre_102-7" data-name="Degradado sin nombre 102" x1="116.16" y1="12700.45" x2="118" y2="12767.21" gradientTransform="translate(0 12783.35) scale(1 -1)" xlink:href="#Degradado_sin_nombre_102"/>
    <linearGradient id="Degradado_sin_nombre_76-9" data-name="Degradado sin nombre 76" x1="161.47" y1="-7.62" x2="163.34" y2="59.93" xlink:href="#Degradado_sin_nombre_76"/>
    <linearGradient id="Degradado_sin_nombre_76-10" data-name="Degradado sin nombre 76" x1="19.56" y1="65.4" x2="21.43" y2="132.95" xlink:href="#Degradado_sin_nombre_76"/>
    <linearGradient id="Degradado_sin_nombre_76-11" data-name="Degradado sin nombre 76" x1="162.17" y1="137.95" x2="162.55" y2="151.72" xlink:href="#Degradado_sin_nombre_76"/>
    <linearGradient id="Degradado_sin_nombre_103-2" data-name="Degradado sin nombre 103" x1="160.1" y1="142.08" x2="160.48" y2="155.85" gradientTransform="matrix(1, 0, 0, 1, 0, 0)" xlink:href="#Degradado_sin_nombre_103"/>
    <linearGradient id="Degradado_sin_nombre_103-3" data-name="Degradado sin nombre 103" x1="159.79" y1="24.69" x2="161.46" y2="85.15" gradientTransform="matrix(1, 0, 0, 1, 0, 0)" xlink:href="#Degradado_sin_nombre_103"/>
    <linearGradient id="Degradado_sin_nombre_103-4" data-name="Degradado sin nombre 103" x1="59.37" y1="108.79" x2="60.63" y2="154.52" gradientTransform="matrix(1, 0, 0, 1, 0, 0)" xlink:href="#Degradado_sin_nombre_103"/>
    <linearGradient id="Degradado_sin_nombre_98-3" data-name="Degradado sin nombre 98" x1="65.29" y1="116.62" x2="136.14" y2="115.35" xlink:href="#Degradado_sin_nombre_98"/>
  </defs>
  <g class="cls-27">
    <g id="Capa_2" data-name="Capa 2">
      <g id="Capa_1-2" data-name="Capa 1">
        <g>
          <g>
            <g>
              <path class="cls-3" d="M9.82,72.9c-.67-.09-1.34-.37-1.95-.37-.18,0-.97,.09-1.09,.09-.3-.09-.49-.75-.49-1.22,.12-8.32,.67-16.65,.67-24.97,0-5.05-.18-10.01-.12-15.06,.06-8.42,.3-17.02-.24-25.44,0-.56,.06-1.31,.43-1.4,1.09-.37,2.19-.28,3.28-.28,1.64,0,7.6-.84,9.06,.37,.18,.19,.24,.65,.24,.94,.06,.28,.06,1.5,.06,1.87,.06,2.99,.18,21.6,.18,24.5,3.83-.09,7.6,.56,11.43,0,0-3.09,.12-21.88,.12-24.87,0-.37,0-1.59,.12-1.96-.06-.84,.67-1.03,1.22-1.22,1.82-.47,3.71-.28,5.53-.19,1.7,.09,3.41,.09,5.05,.09,.61,0,1.22,.19,1.82,.28,.67,.09,.49,1.5,.43,2.52-.18,2.43-.18,4.96-.24,7.39-.06,6.36,.12,12.72,.12,18.98,0,3.65-.12,7.2-.18,10.75-.06,9.16,.61,18.23,.73,27.31,0,.47-.18,1.03-.49,1.12-.12,.09-.73,0-.85,0-.79-.19-1.64,.28-2.43,.28-3.1,.09-6.2-.28-9.24-.65-.49-.09-.97-.09-1.4-.09s-.67-.65-.49-1.12c.06-.09-.06-.47-.06-.56,.18-4.58,.3-9.16,.3-13.75,0-1.03-.06-7.11,0-8.14-2.37,.37-4.8,.28-7.18,.19-1.46-.09-2.92-.37-4.38,0v8.42c0,4.58,.12,9.07,.24,13.65,0,.09-.06,.47-.06,.56,.18,.47-.06,1.12-.43,1.12-1.7,.09-3.4,.47-5.11,.65-1.52,.09-3.1,.19-4.62,.19Z"/>
              <path class="cls-3" d="M74.7,72.53c-1.52-.19-3.04-.09-4.56,0-.49,0-3.34,.19-3.83,.19s-2.68,0-3.16-.28c-.73-.47-.06-2.06,.24-3.18,.49-1.4,2.43-10.1,2.8-11.6,1.03-4.11,2.13-8.14,3.28-12.25-1.4,0-2.8,.37-4.2,.47-.12,0-.24,.19-.37,.19-1.58,.09-3.1,0-4.62,.19-.24,0-.61,0-.79-.28-.3,.28-.61,.09-.79-.37-1.34-4.21-2.61-8.51-3.53-13-.43-1.96-2.92-14.12-3.34-16.08-.3-1.59-1.52-8.79-2.13-10.19-.12-.37-.18-.47-.06-.84-.18-.84,.43-1.12,.97-1.31,.85-.28,5.35-.09,6.26-.19,1.7,0,3.4-.28,5.11-.37,.37,0,1.16,.09,1.4,.56,.79,1.87,1.16,4.11,1.52,6.17,1.7,9.35,3.28,18.89,5.96,27.68,1.16-3.55,2.07-7.29,3.16-10.85,.24-.84,1.4-5.61,1.64-6.45,1.22-4.77,2.86-9.35,3.83-14.31,.06-.28,.43-1.68,.55-1.96,.12-.28,.43-.28,.61-.47,.49-.47,1.16-.75,1.76-.75,.91,.09,1.82,.47,2.74,.47,.91,.09,6.08-.09,6.93,0,.18,.09,.43,0,.55,.19,.12,.09,.18,.28,.3,.28,.49,.09,.97,0,1.4-.09,.18,0,.61,.09,.73,0,.43-.37,.91,.28,.73,.94-1.58,5.61-3.16,11.13-4.74,16.65-2.55,8.98-4.8,18.14-6.99,27.31-1.76,7.2-3.53,14.4-5.05,21.79-.18,.65-.37,1.87-.79,1.96-.55,.09-3.04-.19-3.53-.19Z"/>
              <path class="cls-3" d="M114.95,74.12c-1.58,0-9.97-.47-11.61-.84-.67-.19-1.4-.65-1.95-1.4-.67-.94-.97-2.34-1.16-3.65-.24-2.24-.37-4.58-.43-6.83-.06-1.68-.36-11.88-.36-13.56-.12-5.05-.24-33.1-.12-38.15,0-.09-.06-.84-.06-.94,.06-.47,.12-1.87,.37-2.24,.18-.75,.55-1.5,.97-1.87,.61-.56,1.28-.94,1.95-1.03,3.1-.47,6.14,.28,9.24,.47,2.07,.09,4.07-.09,6.14-.19,5.35,0,10.7,2.71,14.96,7.76,3.71,4.4,6.26,11.5,7.24,18.61,1.16,8.32,.3,17.67-2.25,25.34-.18,.47-.61,2.06-.91,2.24-.12,.09-.18,.65-.24,.75-2.19,5.24-5.35,9.91-9,12.44-3.95,2.71-8.45,3.18-12.77,3.09Zm4.5-22.72c1.64-.47,3.28-1.31,4.62-2.81,.85-.84,1.58-2.15,2.07-3.55,.85-2.43,1.09-5.42,1.03-8.14-.12-2.9-.67-6.08-1.95-8.23-1.4-2.43-3.83-3.27-5.9-3.65-.97-.19-3.83-.28-4.62,.56-.91,.84-.91,4.86-.97,6.45-.12,4.96,.06,9.91,.24,14.87,.06,.84,.49,3.18,.85,3.74,.79,1.4,3.41,1.12,4.62,.75Z"/>
              <path class="cls-3" d="M170.29,72.99c-1.16-2.71-5.96-15.9-6.69-18.8-.73-.19-1.52-.37-2.25-.28,.12,5.89,.06,11.88,.79,17.67,.12,.75,.18,1.59-.24,1.68-.3,.47-.79,.28-1.16,.28-2.01,0-3.95-.19-5.96-.09s-3.95-.47-5.96-.28c-.97,.09-2.13,.84-2.92-.09-.3,.09-.49-.28-.49-.75,0-2.81,.06-5.61,.06-8.32-.12-13.19,.43-26.37,.97-39.46,0-.09-.12-.47-.12-.56-.06-.28,.06-2.15,.06-2.52,.12-3.18,.24-6.45,.3-9.63,0-.84,.06-4.86,.18-5.61,.06-.56,.37-1.12,.73-1.31,1.16-.65,6.26,.28,7.48,.28,.85,.09,5.9,.47,6.75,.47,2.61-.09,5.11-.84,7.72-.84,1.22,0,6.57,1.03,7.72,1.59,2.68,1.31,4.86,5.05,6.08,8.88,1.16,3.55,1.58,7.57,1.7,11.41,.06,2.9,.06,5.89-.37,8.7-.43,3.09-1.46,6.08-2.74,8.51-1.64,2.99-3.65,5.89-6.08,7.01,.43,.94,2.98,7.01,3.4,7.95,.12,.19,.12,.65,.12,.65,.18,0,.3,.28,.37,.47,1.76,3.83,3.34,7.95,5.35,11.6,.18,.28,.18,.56,.06,.94,.3,.47-.06,.94-.43,.94-1.46-.09-9.97-.09-11.43,0-.3,0-1.82,.09-2.13,.09-.3,.56-.67,.09-.91-.56Zm-3.22-37.69c1.09-.37,2.13-1.68,2.68-3.27,.79-2.24,1.28-7.01,.3-9.07-.43-.94-1.82-2.34-2.55-2.43-.43-.09-2.98-.47-3.41-.47-.67,0-2.25-.09-2.68,.65-.24,.47-.43,2.62-.43,3.18-.18,1.78-.3,3.46-.36,5.24,0,.84,.06,5.61,.06,6.36,0,.28,.24,.37,.36,.37,1.95,.84,4.07,.19,6.02-.56Z"/>
            </g>
            <path class="cls-3" d="M145.39,153.13c-1.52-.19-3.04-.09-4.56,0-.49,0-3.34,.19-3.83,.19s-2.68,0-3.16-.28c-.73-.47-.06-2.06,.24-3.18,.49-1.4,2.43-10.1,2.8-11.6,1.03-4.11,2.13-8.14,3.28-12.25-1.4,0-2.8,.37-4.2,.47-.12,0-.24,.19-.36,.19-1.58,.09-3.1,0-4.62,.19-.24,0-.61,0-.79-.28-.3,.28-.61,.09-.79-.37-1.34-4.21-2.61-8.51-3.53-13-.43-1.96-2.92-14.12-3.34-16.08-.3-1.59-1.52-8.79-2.13-10.19-.12-.37-.18-.47-.06-.84-.18-.84,.43-1.12,.97-1.31,.85-.28,5.35-.09,6.26-.19,1.7,0,3.4-.28,5.11-.37,.37,0,1.16,.09,1.4,.56,.79,1.87,1.16,4.11,1.52,6.17,1.7,9.35,3.28,18.89,5.96,27.68,1.16-3.55,2.07-7.29,3.16-10.85,.24-.84,1.4-5.61,1.64-6.45,1.22-4.77,2.86-9.35,3.83-14.31,.06-.28,.43-1.68,.55-1.96,.12-.28,.43-.28,.61-.47,.49-.47,1.16-.75,1.76-.75,.91,.09,1.82,.47,2.74,.47,.91,.09,6.08-.09,6.93,0,.18,.09,.43,0,.55,.19,.12,.09,.18,.28,.3,.28,.49,.09,.97,0,1.4-.09,.18,0,.61,.09,.73,0,.43-.37,.91,.28,.73,.94-1.58,5.61-3.16,11.13-4.74,16.65-2.55,8.98-4.8,18.14-6.99,27.31-1.76,7.2-3.53,14.4-5.05,21.79-.18,.65-.37,1.87-.79,1.96-.55,.09-3.04-.19-3.53-.19Z"/>
            <path class="cls-3" d="M155.17,149.75c-.34-.51,.37-2.04,.78-2.89,.93-2.05,2.03-4.01,3.28-5.88,.52-.68,1.68-2.38,2.28-2.58,.4-.1,1.27,.6,1.59,.78,.33,.29,2.52,1.73,2.89,1.93,.37,.21,2.63,1.04,3.04,1.16,.42,.24,3.06,1.5,3.54,1.65,.42,.24,.72,.83,.19,1.28-.94,1.94-1.88,3.99-2.98,5.84-.36,.65-2.38,4.02-2.8,4.65-.28,.38-.68,.48-.96,.22-.5,.15-1.71-.42-2.13-.55-1.53-.75-7.64-4.15-8.71-5.61Zm11.96-17.32c-.17-.2-.87-.81-1.04-1.01-.11-.17-.09-.59,.09-.91-.02-.22,.02-.42,.16-.66,3.95-7.33,8.16-14.51,12.27-21.75,1.14-2.04,7.23-13.21,8.26-15.31-.14-.62,.33-1.21,.84-1.14,.11,.06,.53,.3,.64,.36,2.01,1.01,3.97,2,6.02,2.93,.79,.33,4.83,1.95,5.54,2.55,.22,.23,.3,.71,.03,1.19-.87,1.44-1.7,2.8-2.52,4.27-.14,.24-.39,.32-.43,.51,.01,.22-.12,.47-.21,.63-4.69,8.52-9.85,16.78-15.02,24.92-1.43,2.31-2.97,4.45-4.24,6.85-.22,.52-.6,.95-.92,.77-.1,.05-.45,.18-.55,.12-3.32-.67-6.34-2.25-8.93-4.34Z"/>
            <g>
              <path class="cls-3" d="M6.63,147.9c-.24,0-.55-.19-.61-.56-.06-.19-.3-.28-.3-.56-.55-2.62-.43-14.21-.36-17.02,.06-6.27,0-12.62,.06-18.89,.06-3.37,1.09-21.79,1.4-25.15,.06-1.03,.49-4.58,.91-5.42,.36-.75,1.09-.94,1.64-1.12,2.31-.37,4.56-.56,6.87-.56,3.28,0,6.57,.09,9.85,.47,2.01,.19,4.01,.65,5.96,1.59,2.49,1.4,4.93,3.74,6.69,6.83,.79,1.4,1.4,2.9,1.89,4.58,1.52,5.05,1.82,11.41,.73,16.74-.67,2.99-1.82,5.7-3.28,7.76-1.95,2.81-4.38,4.86-6.87,6.36-.12,.09-.3,0-.43,.19-.12,.09-.24,.19-.36,.28-3.22,1.78-6.69,2.81-10.09,3.65-.12,4.86,.06,9.82,.3,14.77,.12,1.59,.06,3.27,.12,4.86,.06,.84-.49,1.22-.85,.65-1.46,.19-10.09,.47-11.55,.56-.61,0-1.16-.09-1.7,0Zm16.05-38.62c1.76-.28,3.65-.94,5.11-2.52,1.76-2.06,2.43-6.17,1.28-9.07-1.09-2.71-3.34-4.3-5.41-4.58-1.03-.09-2.37,0-3.1,1.12-1.22,2.15-1.34,10.47-1.46,13.28,0,.28,.3,.75,.43,.94,.79,1.12,2.07,.94,3.16,.84Zm7.6,12.06c.06,0,.12-.09,.18-.09-.06,0-.12,.09-.18,.09Z"/>
              <path class="cls-3" d="M62.09,146.4c-3.59-.19-7.18,.65-10.76,.65-.73,0-3.28,.09-3.95-.56-.18-.19-.37-.47-.43-.84,0-.19-.06-.94-.12-1.03-.12-.19-.12-.37-.12-.65,0-1.59-.06-3.18-.12-4.68-.24-4.68-.18-9.35-.24-13.93-.06-5.33-.06-10.66,0-15.99,.06-4.49,.36-25.62,1.09-29.92,.12-.56,.61-.84,.97-.84,1.22,0,8.57-.19,9.85-.09,.37,0,1.58,.09,1.89,.47,.43,.47,.24,2.15,.24,2.9-.12,3.09-.43,21.79-.49,24.78-.06,4.3-.24,8.51-.3,12.72,0,1.78-.06,6.36,.79,7.57,.55,.65,2.61,.84,3.28,.94,5.29,.37,10.58,.19,15.87-.19,.3-.09,.61,.37,.55,.84,0,.09,.12,.56,.12,.65-.06,2.24-.36,14.12-.24,16.36,0,.37-.06,.75-.24,.94,.06,.84-.61,.94-1.09,.94-1.16,.19-2.25,.37-3.34,.47-4.38,.37-8.76-1.31-13.2-1.5Z"/>
            </g>
            <g>
              <path class="cls-31" d="M84.21,149.28c-5.53,3.12-12.31-.73-12.78-7.3-.61-8.61-.97-17.83-.92-27.6,.04-8.59,.38-16.75,.93-24.44,.47-6.57,7.21-10.47,12.74-7.37,5.81,3.26,11.99,7.1,18.36,11.65,7.38,5.27,13.83,10.63,19.41,15.75,4.12,3.79,3.94,10.6-.42,14.08-3.74,2.99-7.7,6-11.87,8.99-8.77,6.28-17.32,11.64-25.45,16.23Z"/>
              <path class="cls-2" d="M80.07,152.23c-1.66,0-3.32-.41-4.85-1.23-3.27-1.76-5.39-5.08-5.66-8.89-.66-9.19-.97-18.52-.93-27.74,.04-8.16,.35-16.43,.94-24.56,.27-3.83,2.4-7.17,5.67-8.94,3.09-1.66,6.76-1.63,9.83,.08,6.35,3.56,12.58,7.51,18.53,11.76,6.81,4.86,13.4,10.21,19.59,15.9,2.38,2.19,3.68,5.34,3.57,8.64-.11,3.26-1.6,6.28-4.09,8.26-3.9,3.11-7.92,6.16-11.95,9.05-8.22,5.89-16.84,11.39-25.62,16.34-1.57,.89-3.31,1.33-5.04,1.33Zm.02-68.88c-1.05,0-2.1,.26-3.08,.79-2.15,1.16-3.55,3.38-3.73,5.94-.58,8.06-.89,16.24-.93,24.32-.04,9.12,.27,18.36,.92,27.46,.18,2.53,1.57,4.74,3.71,5.89,2.01,1.08,4.31,1.06,6.31-.07h0c8.66-4.89,17.17-10.31,25.28-16.12,3.98-2.85,7.95-5.86,11.79-8.93,1.64-1.31,2.62-3.31,2.7-5.49,.08-2.22-.79-4.32-2.37-5.78-6.08-5.59-12.55-10.84-19.24-15.61-5.84-4.17-11.96-8.05-18.19-11.54-1.01-.56-2.09-.85-3.18-.85Z"/>
            </g>
            <path class="cls-13" d="M84.02,147.3c-4.34,2.87-9.67-.67-10.04-6.72-.48-7.92-.76-16.41-.72-25.39,.03-7.9,.3-15.41,.73-22.48,.37-6.04,5.66-9.63,10-6.78,4.56,2.99,9.41,6.53,14.42,10.72,5.79,4.84,10.86,9.78,15.24,14.49,3.24,3.49,3.09,9.75-.33,12.96-2.94,2.75-6.05,5.52-9.32,8.27-6.88,5.78-13.6,10.71-19.98,14.93Z"/>
            <path class="cls-18" d="M83.32,143.74c-2.51,1.42-5.91,.15-7.6-2.83-1.68-2.98-1.01-6.55,1.5-7.97,2.51-1.42,5.91-.15,7.6,2.83,1.68,2.98,1.01,6.55-1.5,7.97Z"/>
            <g>
              <g>
                <path class="cls-31" d="M6.37,71.52c-.67-.09-1.34-.37-1.95-.37-.18,0-.97,.09-1.09,.09-.3-.09-.49-.75-.49-1.22,.12-8.32,.67-16.65,.67-24.97,0-5.05-.18-10.01-.12-15.06,.06-8.42,.3-17.02-.24-25.44,0-.56,.06-1.31,.43-1.4,1.09-.37,2.19-.28,3.28-.28,1.64,0,7.6-.84,9.06,.37,.18,.19,.24,.65,.24,.94,.06,.28,.06,1.5,.06,1.87,.06,2.99,.18,21.6,.18,24.5,3.83-.09,7.6,.56,11.43,0,0-3.09,.12-21.88,.12-24.87,0-.37,0-1.59,.12-1.96-.06-.84,.67-1.03,1.22-1.22,1.82-.47,3.71-.28,5.53-.19,1.7,.09,3.41,.09,5.05,.09,.61,0,1.22,.19,1.82,.28,.67,.09,.49,1.5,.43,2.52-.18,2.43-.18,4.96-.24,7.39-.06,6.36,.12,12.72,.12,18.98,0,3.65-.12,7.2-.18,10.75-.06,9.16,.61,18.23,.73,27.31,0,.47-.18,1.03-.49,1.12-.12,.09-.73,0-.85,0-.79-.19-1.64,.28-2.43,.28-3.1,.09-6.2-.28-9.24-.65-.49-.09-.97-.09-1.4-.09s-.67-.65-.49-1.12c.06-.09-.06-.47-.06-.56,.18-4.58,.3-9.16,.3-13.75,0-1.03-.06-7.11,0-8.14-2.37,.37-4.8,.28-7.18,.19-1.46-.09-2.92-.37-4.38,0v8.42c0,4.58,.12,9.07,.24,13.65,0,.09-.06,.47-.06,.56,.18,.47-.06,1.12-.43,1.12-1.7,.09-3.4,.47-5.11,.65-1.52,.09-3.1,.19-4.62,.19Z"/>
                <path class="cls-2" d="M6.37,73.38l-.26-.02c-.34-.05-.69-.13-1.03-.22-.24-.06-.54-.14-.66-.14-.07,0-.27,.03-.46,.04-.29,.03-.56,.05-.64,.05h-.28l-.27-.08c-1.33-.41-1.8-1.86-1.8-2.99,.05-3.69,.19-7.4,.32-10.99,.17-4.59,.35-9.33,.35-13.98,0-2.16-.03-4.29-.07-6.43-.04-2.82-.09-5.74-.05-8.65,.01-1.56,.03-3.14,.05-4.72,.08-6.78,.15-13.8-.29-20.58v-.12c0-1.77,.58-2.84,1.73-3.18,1.2-.4,2.32-.38,3.31-.37h.52c.31,0,.94-.04,1.6-.09,3.94-.29,7.08-.41,8.65,.9l.14,.13c.61,.62,.75,1.51,.77,2.07,.04,.32,.06,.86,.06,2.03,.05,2.65,.15,17.04,.18,22.65,.88,.02,1.75,.07,2.61,.11,1.76,.09,3.45,.17,5.12,.07,0-2.45,.03-6.71,.06-10.93,.03-5.41,.06-10.78,.06-12.27,0-1.15,.04-1.75,.12-2.16,.03-1.3,.83-2.23,2.38-2.75l.23-.07c1.88-.48,3.77-.37,5.43-.28l.66,.04c1.66,.09,3.33,.09,4.95,.09,.59,0,1.12,.11,1.59,.2,.17,.04,.35,.07,.52,.1,2.28,.32,2.1,2.99,2.02,4.13l-.02,.34c-.13,1.8-.17,3.66-.2,5.46-.01,.63-.02,1.25-.04,1.87-.03,3.59,.01,7.27,.06,10.84,.03,2.71,.07,5.42,.07,8.1,0,2.46-.06,4.9-.11,7.25-.03,1.18-.05,2.36-.07,3.53-.03,5.19,.17,10.46,.37,15.56,.15,3.83,.31,7.79,.36,11.69,0,1.04-.42,2.35-1.57,2.84-.57,.27-1.17,.21-1.63,.17h-.22l-.2-.05h0c-.07,0-.37,.07-.57,.12-.4,.09-.89,.21-1.43,.21-3.24,.1-6.55-.31-9.47-.67l-.12-.02c-.31-.06-.69-.06-1.05-.06-.77,0-1.47-.38-1.92-1.04-.41-.6-.57-1.37-.44-2.09-.03-.13-.04-.26-.04-.41,.21-5.18,.3-9.66,.3-13.75,0-.24,0-.78,0-1.46-.01-1.66-.02-3.33-.02-4.61-1.82,.11-3.61,.04-5.37-.03-.39-.02-.73-.06-1.07-.09-.49-.05-.95-.09-1.38-.1v6.75c0,4.47,.11,8.77,.24,13.33v.27c0,.12,0,.31-.03,.5,.11,.72-.04,1.49-.45,2.08-.42,.62-1.07,.99-1.78,1.01-.92,.05-1.86,.2-2.86,.35-.71,.11-1.42,.22-2.12,.29-1.78,.11-3.3,.2-4.82,.2Zm-1.66-4.07c.48,.03,.91,.14,1.29,.24,.17,.04,.34,.09,.51,.12,1.37,0,2.79-.09,4.36-.18,.57-.06,1.22-.17,1.88-.27,.65-.1,1.3-.2,1.97-.28h0s0-.16,0-.16c-.12-4.58-.24-8.91-.24-13.43v-9.86l1.39-.36c1.45-.37,2.82-.24,4.04-.13,.31,.03,.61,.06,.92,.08,2.22,.09,4.56,.18,6.77-.17l2.28-.36-.13,2.3c-.04,.72-.02,4.66,0,6.55,0,.69,0,1.23,0,1.48,0,4.09-.1,8.54-.3,13.61,0,0,0,.01,0,.02,.12,.01,.24,.03,.36,.05,2.78,.34,5.91,.72,8.9,.63,.17,0,.42-.06,.63-.11,.37-.09,.82-.19,1.32-.21-.06-3.6-.2-7.25-.34-10.79-.2-5.14-.41-10.46-.37-15.75,.02-1.2,.05-2.39,.07-3.57,.05-2.34,.11-4.75,.11-7.17,0-2.67-.03-5.36-.07-8.06-.04-3.58-.09-7.28-.06-10.94,.02-.64,.03-1.25,.04-1.87,.03-1.85,.07-3.77,.21-5.63l.02-.35c0-.12,.02-.26,.03-.41-.17-.03-.32-.05-.45-.05-1.67,0-3.4,0-5.15-.1l-.67-.04c-1.49-.08-2.9-.16-4.2,.14-.02,.15-.05,.53-.05,1.41,0,1.49-.03,6.87-.06,12.29-.03,5.5-.06,11.03-.06,12.59v1.6l-1.59,.23c-2.55,.37-5.03,.25-7.43,.13-1.46-.07-2.83-.14-4.23-.11l-1.9,.05v-1.9c0-2.83-.12-21.51-.18-24.46,0-1.02-.02-1.4-.03-1.54-1.26-.25-4.35-.02-5.61,.07-.79,.06-1.42,.11-1.87,.11h-.57c-.46-.01-.88-.02-1.27,.02,.43,6.82,.35,13.8,.27,20.55-.02,1.58-.04,3.15-.05,4.71-.03,2.87,.01,5.76,.05,8.55,.03,2.16,.07,4.31,.07,6.49,0,4.72-.18,9.49-.35,14.12-.12,3.32-.25,6.75-.31,10.13ZM41.4,4.53s.03,0,.04,0c-.01,0-.03,0-.04,0Zm-11.55-.24h0s0,0,0,0Z"/>
              </g>
              <g>
                <path class="cls-31" d="M71.25,71.15c-1.52-.19-3.04-.09-4.56,0-.49,0-3.34,.19-3.83,.19s-2.68,0-3.16-.28c-.73-.47-.06-2.06,.24-3.18,.49-1.4,2.43-10.1,2.8-11.6,1.03-4.11,2.13-8.14,3.28-12.25-1.4,0-2.8,.37-4.2,.47-.12,0-.24,.19-.37,.19-1.58,.09-3.1,0-4.62,.19-.24,0-.61,0-.79-.28-.3,.28-.61,.09-.79-.37-1.34-4.21-2.61-8.51-3.53-13-.43-1.96-2.92-14.12-3.34-16.08-.3-1.59-1.52-8.79-2.13-10.19-.12-.37-.18-.47-.06-.84-.18-.84,.43-1.12,.97-1.31,.85-.28,5.35-.09,6.26-.19,1.7,0,3.4-.28,5.11-.37,.37,0,1.16,.09,1.4,.56,.79,1.87,1.16,4.11,1.52,6.17,1.7,9.35,3.28,18.89,5.96,27.68,1.16-3.55,2.07-7.29,3.16-10.85,.24-.84,1.4-5.61,1.64-6.45,1.22-4.77,2.86-9.35,3.83-14.31,.06-.28,.43-1.68,.55-1.96,.12-.28,.43-.28,.61-.47,.49-.47,1.16-.75,1.76-.75,.91,.09,1.82,.47,2.74,.47,.91,.09,6.08-.09,6.93,0,.18,.09,.43,0,.55,.19,.12,.09,.18,.28,.3,.28,.49,.09,.97,0,1.4-.09,.18,0,.61,.09,.73,0,.43-.37,.91,.28,.73,.94-1.58,5.61-3.16,11.13-4.74,16.65-2.55,8.98-4.8,18.14-6.99,27.31-1.76,7.2-3.53,14.4-5.05,21.79-.18,.65-.37,1.87-.79,1.96-.55,.09-3.04-.19-3.53-.19Z"/>
                <path class="cls-2" d="M74.38,73.21c-.53,0-1.21-.05-2.21-.13-.42-.03-.77-.07-.93-.07h-.22c-1.35-.18-2.74-.09-4.22,0h-.11c-.23,0-1.02,.05-1.81,.09-.88,.05-1.76,.1-2.02,.1-2.93,0-3.62-.26-4.09-.53-1.86-1.19-1.19-3.39-.79-4.71,.06-.2,.12-.39,.17-.56l.04-.12c.33-.94,1.54-6.21,2.19-9.04,.26-1.11,.46-1.99,.55-2.38,.75-2.99,1.56-6.05,2.56-9.67-.36,.05-.73,.11-1.11,.14-.21,.11-.5,.21-.84,.23-.65,.04-1.3,.05-1.93,.05-.89,.01-1.74,.02-2.55,.12h-.23c-.39,.01-.74-.04-1.05-.13-.17,0-.34-.02-.52-.06-.45-.1-1.28-.46-1.74-1.63l-.04-.11c-1.29-4.06-2.62-8.47-3.58-13.19-.21-.96-.94-4.5-1.67-8.04-.73-3.52-1.46-7.04-1.67-8.02-.07-.34-.15-.83-.26-1.43-.33-1.85-1.34-7.47-1.76-8.42l-.09-.26c-.13-.4-.25-.84-.14-1.44-.04-.84,.23-2.25,2.25-2.94,.76-.25,2.09-.27,4.76-.26,.75,0,1.68,0,1.92-.02h.19c.93,0,1.88-.1,2.88-.2,.71-.07,1.42-.14,2.13-.18h.1c.52,0,2.29,.11,3.05,1.56l.06,.13c.82,1.95,1.22,4.2,1.57,6.19l.64,3.54c1.08,6,2.19,12.14,3.63,18.04,.42-1.51,.86-3.07,1.32-4.58,.11-.38,.45-1.75,.79-3.13,.36-1.46,.71-2.84,.84-3.29,.46-1.8,1-3.64,1.52-5.42,.83-2.83,1.69-5.75,2.27-8.73,.03-.13,.44-1.82,.66-2.34,.32-.74,.9-1.06,1.18-1.2,.84-.72,1.89-1.13,2.9-1.13h.19c.51,.06,.99,.17,1.41,.27,.43,.1,.83,.2,1.14,.2h.19c.36,.05,2.12,.02,3.29,0,2.12-.03,3.17-.04,3.66,.01l.42,.08c.37,.06,.69,.19,.95,.38,.11-.02,.21-.04,.27-.06l.4-.04c.07,0,.17,0,.27,.01,.62-.22,1.31-.15,1.9,.22,.97,.61,1.41,1.86,1.08,3.05-1.58,5.62-3.17,11.14-4.75,16.66-2.57,9.03-4.87,18.43-6.97,27.23-1.74,7.1-3.52,14.39-5.03,21.73l-.03,.12c-.03,.12-.06,.25-.1,.39-.24,1.02-.61,2.56-2.08,2.88-.23,.04-.48,.06-.8,.06Zm-12.97-3.76c.36,.02,.83,.03,1.45,.03,.23,0,1.02-.05,1.81-.09,.81-.05,1.63-.09,1.95-.1,1.54-.1,3.13-.19,4.77,0,.24,0,.64,.04,1.09,.08,.29,.02,.74,.06,1.15,.09,0-.02,0-.04,.01-.06,.04-.17,.08-.33,.12-.47,1.52-7.39,3.31-14.7,5.04-21.76,2.12-8.86,4.43-18.3,7.02-27.41,1.44-5.01,2.87-10.01,4.3-15.09-.28,.01-.58,0-.89-.05-.32-.04-.69-.16-1.05-.47-.61-.01-1.99,0-2.95,.02-1.84,.03-3.04,.05-3.62,0-.7-.01-1.34-.16-1.9-.29-.29-.07-.57-.13-.81-.17-.11,.02-.28,.09-.42,.22-.1,.1-.2,.19-.31,.26-.12,.43-.28,1.06-.32,1.23-.61,3.12-1.49,6.12-2.35,9.03-.51,1.75-1.04,3.56-1.5,5.35-.13,.47-.48,1.84-.82,3.22-.36,1.46-.71,2.84-.84,3.29-.49,1.58-.94,3.2-1.38,4.77-.56,2.02-1.15,4.11-1.8,6.13l-1.61,4.96h.9l-.66,2.36c-1.35,4.8-2.36,8.56-3.27,12.2-.09,.37-.29,1.23-.54,2.33-.99,4.28-1.9,8.22-2.28,9.36-.05,.2-.12,.4-.18,.62-.04,.12-.08,.26-.12,.41Zm-4.97-27.65l.76,1.17c.81-.07,1.6-.08,2.36-.09,.45,0,.91-.01,1.37-.03,.21-.1,.47-.19,.79-.21,.51-.04,1.05-.12,1.62-.2,.85-.13,1.74-.27,2.68-.27h1.14l-1.52-4.99c-2.41-7.91-3.95-16.46-5.44-24.73l-.64-3.55c-.29-1.65-.59-3.36-1.11-4.81-.59,.04-1.19,.1-1.78,.15-1.02,.1-2.08,.21-3.16,.21-.42,.03-1.1,.03-2.2,.03-.9,0-2.43-.01-3.23,.04,.47,1.35,1.07,4.45,1.88,8.91,.11,.59,.19,1.06,.25,1.35,.2,.94,.94,4.48,1.67,8.01,.73,3.52,1.46,7.04,1.67,8.02,.79,3.87,1.83,7.54,2.9,10.98ZM75.97,1.22s-.06,.05-.09,.08c.03-.03,.06-.06,.09-.08Z"/>
              </g>
              <g>
                <path class="cls-31" d="M111.51,72.74c-1.58,0-9.97-.47-11.61-.84-.67-.19-1.4-.65-1.95-1.4-.67-.94-.97-2.34-1.16-3.65-.24-2.24-.37-4.58-.43-6.83-.06-1.68-.36-11.88-.36-13.56-.12-5.05-.24-33.1-.12-38.15,0-.09-.06-.84-.06-.94,.06-.47,.12-1.87,.37-2.24,.18-.75,.55-1.5,.97-1.87,.61-.56,1.28-.94,1.95-1.03,3.1-.47,6.14,.28,9.24,.47,2.07,.09,4.07-.09,6.14-.19,5.35,0,10.7,2.71,14.96,7.76,3.71,4.4,6.26,11.5,7.24,18.61,1.16,8.32,.3,17.67-2.25,25.34-.18,.47-.61,2.06-.91,2.24-.12,.09-.18,.65-.24,.75-2.19,5.24-5.35,9.91-9,12.44-3.95,2.71-8.45,3.18-12.77,3.09Zm4.5-22.72c1.64-.47,3.28-1.31,4.62-2.81,.85-.84,1.58-2.15,2.07-3.55,.85-2.43,1.09-5.42,1.03-8.14-.12-2.9-.67-6.08-1.95-8.23-1.4-2.43-3.83-3.27-5.9-3.65-.97-.19-3.83-.28-4.62,.56-.91,.84-.91,4.86-.97,6.45-.12,4.96,.06,9.91,.24,14.87,.06,.84,.49,3.18,.85,3.74,.79,1.4,3.41,1.12,4.62,.75Z"/>
                <path class="cls-2" d="M112.53,74.61c-.36,0-.7,0-1.04-.01-1.48,0-10.06-.45-12.01-.89-1.23-.34-2.28-1.09-3.03-2.12-.96-1.34-1.3-3.1-1.5-4.49-.23-2.1-.37-4.38-.44-7.03-.06-1.7-.37-11.91-.37-13.61-.13-5.22-.24-33.04-.12-38.13,0-.08-.01-.22-.02-.35-.02-.27-.04-.54-.04-.6l.02-.24c.01-.09,.02-.22,.04-.38,.09-.97,.17-1.71,.42-2.28,.18-.65,.61-1.83,1.49-2.61,.88-.81,1.9-1.33,2.91-1.47,2.35-.35,4.6-.09,6.78,.17,.98,.12,1.9,.23,2.83,.28,1.42,.07,2.85-.02,4.36-.1,.53-.03,1.06-.06,1.59-.08h0c6.07,0,11.88,2.99,16.46,8.42,3.72,4.41,6.58,11.72,7.66,19.55,1.19,8.61,.35,18.15-2.33,26.18l-.03,.09c-.04,.1-.09,.27-.15,.46-.3,.92-.52,1.58-.86,2.07-.04,.17-.09,.36-.18,.57-2.49,5.93-5.91,10.61-9.63,13.19-4.25,2.92-8.96,3.43-12.8,3.43ZM97.68,7.43c0,.06,.01,.17,.02,.27,.02,.27,.04,.54,.04,.6-.12,4.94,0,32.84,.12,38.11,0,1.71,.3,11.83,.36,13.54,.07,2.57,.21,4.75,.42,6.69,.18,1.32,.46,2.27,.82,2.77,.37,.5,.81,.66,.94,.7,1.31,.3,9.58,.77,11.12,.77h.04c3.45,.08,7.91-.17,11.68-2.76,3.09-2.14,6.12-6.35,8.31-11.55v-.02c.08-.36,.2-.87,.58-1.3,.11-.26,.28-.77,.36-1.03,.08-.25,.15-.47,.21-.62,2.45-7.39,3.26-16.53,2.16-24.46-.98-7.17-3.53-13.77-6.82-17.67-3.86-4.58-8.67-7.1-13.54-7.1-.43,.02-.95,.05-1.46,.08-1.54,.09-3.13,.18-4.77,.11-1.06-.06-2.08-.18-3.07-.3-2.03-.24-3.94-.47-5.81-.18-.14,.02-.48,.11-.96,.56-.1,.1-.3,.44-.43,.94l-.15,.42c-.06,.27-.11,.84-.13,1.1-.01,.13-.02,.25-.03,.35Zm16.27,44.74c-1.58,0-3.29-.45-4.16-1.96-.71-1.18-1.08-4.16-1.1-4.55-.18-4.98-.37-10.04-.25-15.05l.02-.65c.11-3.83,.38-5.98,1.5-7.08,1.8-1.83,6.23-1.07,6.28-1.06,3.41,.62,5.75,2.1,7.16,4.54,1.61,2.71,2.08,6.43,2.19,9.08,.05,2.41-.1,5.87-1.14,8.83-.59,1.72-1.47,3.21-2.47,4.22-1.41,1.57-3.24,2.68-5.44,3.31-.66,.2-1.6,.38-2.59,.38Zm-.97-3.86l.02,.04c.22,.14,1.44,.2,2.46-.11h.04c1.56-.46,2.79-1.19,3.75-2.27l.08-.08c.6-.6,1.21-1.66,1.62-2.84,.85-2.44,.98-5.42,.93-7.49-.13-3.05-.74-5.74-1.69-7.32-.85-1.48-2.32-2.35-4.63-2.77-.78-.15-2.36-.13-2.95,.07-.33,.89-.41,3.6-.44,4.53l-.02,.66c-.12,4.87,.06,9.87,.24,14.71,.05,.73,.4,2.43,.59,2.88Zm-.04-.06h0s0,0,0,0Z"/>
              </g>
              <g>
                <path class="cls-31" d="M166.84,71.62c-1.16-2.71-5.96-15.9-6.69-18.8-.73-.19-1.52-.37-2.25-.28,.12,5.89,.06,11.88,.79,17.67,.12,.75,.18,1.59-.24,1.68-.3,.47-.79,.28-1.16,.28-2.01,0-3.95-.19-5.96-.09-2.01,.09-3.95-.47-5.96-.28-.97,.09-2.13,.84-2.92-.09-.3,.09-.49-.28-.49-.75,0-2.81,.06-5.61,.06-8.32-.12-13.19,.43-26.37,.97-39.46,0-.09-.12-.47-.12-.56-.06-.28,.06-2.15,.06-2.52,.12-3.18,.24-6.45,.3-9.63,0-.84,.06-4.86,.18-5.61,.06-.56,.37-1.12,.73-1.31,1.16-.65,6.26,.28,7.48,.28,.85,.09,5.9,.47,6.75,.47,2.61-.09,5.11-.84,7.72-.84,1.22,0,6.57,1.03,7.72,1.59,2.68,1.31,4.86,5.05,6.08,8.88,1.16,3.55,1.58,7.57,1.7,11.41,.06,2.9,.06,5.89-.37,8.7-.43,3.09-1.46,6.08-2.74,8.51-1.64,2.99-3.65,5.89-6.08,7.01,.43,.94,2.98,7.01,3.4,7.95,.12,.19,.12,.65,.12,.65,.18,0,.3,.28,.37,.47,1.76,3.83,3.34,7.95,5.35,11.6,.18,.28,.18,.56,.06,.94,.3,.47-.06,.94-.43,.94-1.46-.09-9.97-.09-11.43,0-.3,0-1.82,.09-2.13,.09-.3,.56-.67,.09-.91-.56Zm-3.22-37.69c1.09-.37,2.13-1.68,2.68-3.27,.79-2.24,1.28-7.01,.3-9.07-.43-.94-1.82-2.34-2.55-2.43-.43-.09-2.98-.47-3.41-.47-.67,0-2.25-.09-2.68,.65-.24,.47-.43,2.62-.43,3.18-.18,1.78-.3,3.46-.36,5.24,0,.84,.06,5.61,.06,6.36,0,.28,.24,.37,.36,.37,1.95,.84,4.07,.19,6.02-.56Z"/>
                <path class="cls-2" d="M167.46,74.28s-.1,0-.15,0c-.68-.05-1.61-.43-2.19-1.97-.82-1.95-3.51-9.23-5.27-14.35,.07,4.02,.19,8.11,.69,12.03,.33,2.03-.23,3-.96,3.45-.55,.5-1.29,.71-2.21,.61-.89,0-1.71-.04-2.52-.07-1.18-.04-2.28-.09-3.41-.03-1.08,.05-2.09-.06-3.07-.16-.99-.11-1.92-.21-2.81-.12-.11,.01-.33,.07-.53,.12-.74,.2-2.19,.59-3.42-.34-.17-.07-.34-.16-.49-.27-.63-.47-.99-1.27-.99-2.2,0-1.42,.02-2.84,.03-4.25,.01-1.37,.03-2.73,.03-4.07-.12-13.22,.43-26.48,.97-39.3-.04-.15-.08-.31-.1-.49-.05-.35-.04-.86,.02-2.11,.01-.29,.03-.54,.03-.65,.13-3.5,.25-6.59,.3-9.67,0-.01,.03-4.66,.2-5.82,.14-1.19,.81-2.25,1.72-2.72,1.08-.61,2.92-.53,6.62-.09,.68,.08,1.45,.17,1.7,.17h.2c.87,.11,5.8,.47,6.55,.47,1.05-.04,2.15-.21,3.33-.39,1.41-.22,2.86-.45,4.4-.45,1.41,0,7.08,1.07,8.53,1.78,2.87,1.4,5.5,5.14,7.04,9.99,1.05,3.23,1.64,7.13,1.79,11.91,.06,2.77,.08,5.97-.39,9.03-.42,3.07-1.46,6.31-2.93,9.09-1.81,3.31-3.55,5.54-5.38,6.9,.31,.72,.69,1.61,1.06,2.5,.71,1.67,1.42,3.33,1.66,3.87,.1,.19,.17,.4,.22,.6,.12,.18,.24,.4,.33,.66,.57,1.24,1.12,2.5,1.67,3.77,1.11,2.56,2.26,5.21,3.56,7.58,.32,.53,.45,1.11,.38,1.74,.12,.56,.03,1.13-.25,1.65-.43,.78-1.23,1.27-2.1,1.27h-.12c-1.36-.09-9.83-.09-11.19,0h-.12c-.15,0-.56,.03-.97,.05-.14,0-.28,.01-.42,.02-.31,.18-.66,.28-1.03,.28Zm-14.93-4.08c.83,0,1.64,.03,2.44,.06,.62,.02,1.24,.05,1.86,.06-.59-4.81-.66-9.69-.73-14.42-.02-1.11-.03-2.22-.06-3.33l-.03-1.67,1.65-.21c1.04-.13,2.02,.09,2.95,.32l1.07,.27,.27,1.07c.63,2.5,4.86,14.21,6.35,17.93,.13,0,.27-.01,.42-.02,.44-.02,.88-.04,1.09-.05,1.28-.07,6.7-.09,9.75-.05-1.19-2.27-2.23-4.68-3.24-7.01-.46-1.06-.92-2.12-1.39-3.16h-.81v-1.84c-.26-.59-.97-2.25-1.68-3.92-.74-1.73-1.47-3.47-1.68-3.93l-.76-1.68,1.68-.77c1.64-.76,3.35-2.79,5.23-6.22,1.25-2.39,2.16-5.19,2.52-7.87,.42-2.8,.4-5.81,.35-8.4-.14-4.4-.67-7.97-1.61-10.87-1.21-3.8-3.22-6.85-5.13-7.79-.86-.41-5.94-1.4-6.91-1.4-1.25,0-2.5,.2-3.82,.4-1.23,.19-2.5,.39-3.83,.44h0c-.99,0-5.81-.36-6.92-.47-.44,0-1.05-.08-2.03-.19-1.03-.12-3.26-.39-4.25-.31-.08,.65-.15,4.14-.15,5.29-.06,3.14-.17,6.25-.31,9.7,0,.07-.01,.38-.03,.75-.02,.38-.05,1.14-.05,1.43l.02,.09c.06,.23,.12,.46,.12,.75-.54,12.93-1.1,26.22-.97,39.44,0,1.37-.01,2.74-.03,4.13-.01,1.16-.03,2.33-.03,3.5,.08-.02,.16-.04,.23-.06,.34-.09,.72-.19,1.14-.23,1.26-.12,2.42,0,3.55,.13,.88,.09,1.7,.18,2.5,.15,.43-.02,.86-.03,1.29-.03Zm-7.84-47.98v.02s0-.02,0-.02Zm14.88,14.52c-.83,0-1.66-.13-2.49-.45-.98-.23-1.71-1.12-1.71-2.17,0-.36-.01-1.66-.03-3-.02-1.44-.03-2.92-.03-3.36,.06-1.81,.18-3.5,.37-5.37,.02-.6,.14-2.96,.63-3.9,.96-1.69,3.11-1.67,4.14-1.65h.18c.63,0,3.13,.38,3.73,.5,1.68,.28,3.41,2.37,3.92,3.49,1.31,2.77,.55,8.2-.24,10.46-.75,2.18-2.17,3.83-3.79,4.4-1.51,.58-3.09,1.07-4.68,1.07Zm-.49-3.75c1.07,.15,2.34-.21,3.87-.8l.07-.02c.37-.13,1.09-.87,1.52-2.12,.73-2.08,1.05-6.25,.38-7.67-.2-.45-.94-1.21-1.29-1.42-.41-.08-2.61-.4-3.02-.42h-.19c-.18,0-.54,0-.84,.02-.09,.63-.18,1.6-.18,1.96v.19c-.2,1.8-.31,3.43-.37,5.11,0,.37,.02,1.83,.03,3.25,0,.69,.01,1.37,.02,1.92Z"/>
              </g>
            </g>
            <g>
              <path class="cls-31" d="M142.64,153.13c-1.52-.19-3.04-.09-4.56,0-.49,0-3.34,.19-3.83,.19s-2.68,0-3.16-.28c-.73-.47-.06-2.06,.24-3.18,.49-1.4,2.43-10.1,2.8-11.6,1.03-4.11,2.13-8.14,3.28-12.25-1.4,0-2.8,.37-4.2,.47-.12,0-.24,.19-.36,.19-1.58,.09-3.1,0-4.62,.19-.24,0-.61,0-.79-.28-.3,.28-.61,.09-.79-.37-1.34-4.21-2.61-8.51-3.53-13-.43-1.96-2.92-14.12-3.34-16.08-.3-1.59-1.52-8.79-2.13-10.19-.12-.37-.18-.47-.06-.84-.18-.84,.43-1.12,.97-1.31,.85-.28,5.35-.09,6.26-.19,1.7,0,3.4-.28,5.11-.37,.37,0,1.16,.09,1.4,.56,.79,1.87,1.16,4.11,1.52,6.17,1.7,9.35,3.28,18.89,5.96,27.68,1.16-3.55,2.07-7.29,3.16-10.85,.24-.84,1.4-5.61,1.64-6.45,1.22-4.77,2.86-9.35,3.83-14.31,.06-.28,.43-1.68,.55-1.96,.12-.28,.43-.28,.61-.47,.49-.47,1.16-.75,1.76-.75,.91,.09,1.82,.47,2.74,.47,.91,.09,6.08-.09,6.93,0,.18,.09,.43,0,.55,.19,.12,.09,.18,.28,.3,.28,.49,.09,.97,0,1.4-.09,.18,0,.61,.09,.73,0,.43-.37,.91,.28,.73,.94-1.58,5.61-3.16,11.13-4.74,16.65-2.55,8.98-4.8,18.14-6.99,27.31-1.76,7.2-3.53,14.4-5.05,21.79-.18,.65-.37,1.87-.79,1.96-.55,.09-3.04-.19-3.53-.19Z"/>
              <path class="cls-2" d="M145.77,155.18c-.53,0-1.21-.05-2.2-.13-.42-.03-.77-.07-.93-.07h-.22c-1.35-.18-2.75-.09-4.22,0h-.11c-.23,0-1.02,.05-1.81,.09-.88,.05-1.76,.1-2.02,.1-2.93,0-3.63-.26-4.09-.53-1.86-1.19-1.19-3.39-.79-4.71,.06-.2,.12-.39,.17-.56l.04-.12c.33-.95,1.54-6.21,2.19-9.04,.26-1.11,.46-1.99,.55-2.38,.75-2.99,1.56-6.04,2.56-9.67-.36,.05-.73,.11-1.11,.14-.21,.11-.5,.21-.84,.23-.65,.04-1.3,.05-1.93,.05-.89,.01-1.74,.02-2.55,.12h-.23c-.39,.01-.74-.04-1.05-.13-.17,0-.34-.02-.52-.06-.45-.11-1.28-.46-1.74-1.63l-.04-.11c-1.29-4.06-2.62-8.47-3.58-13.19-.21-.96-.94-4.5-1.67-8.04-.73-3.52-1.46-7.04-1.67-8.02-.07-.34-.15-.82-.26-1.43-.33-1.85-1.34-7.47-1.76-8.42l-.1-.27c-.13-.4-.25-.84-.14-1.44-.04-.84,.23-2.25,2.25-2.94,.76-.25,2.1-.27,4.76-.26,.75,0,1.68,0,1.92-.02h.19c.93,0,1.88-.1,2.88-.2,.71-.07,1.41-.14,2.12-.18h.1c.52,0,2.29,.11,3.05,1.56l.06,.13c.82,1.95,1.22,4.2,1.57,6.19l.64,3.53c1.08,6,2.19,12.15,3.63,18.04,.42-1.51,.86-3.07,1.32-4.58,.11-.38,.45-1.75,.79-3.13,.36-1.46,.71-2.84,.84-3.29,.46-1.8,1-3.64,1.52-5.42,.83-2.83,1.69-5.75,2.27-8.73,.03-.14,.44-1.82,.66-2.34,.32-.74,.9-1.06,1.18-1.2,.84-.73,1.89-1.13,2.9-1.13h.19c.51,.06,.98,.17,1.41,.27,.43,.1,.83,.2,1.14,.2h.19c.36,.05,2.11,.02,3.28,0,2.13-.03,3.18-.04,3.67,.01l.42,.08c.37,.06,.69,.19,.96,.38,.1-.02,.2-.04,.27-.06l.4-.04c.07,0,.17,0,.27,.01,.62-.21,1.31-.15,1.9,.22,.97,.61,1.41,1.86,1.08,3.06-1.58,5.59-3.15,11.08-4.72,16.58-2.6,9.12-4.89,18.51-7,27.31-1.73,7.07-3.52,14.37-5.03,21.73l-.03,.12c-.03,.11-.06,.25-.1,.39-.24,1.02-.61,2.56-2.08,2.89-.23,.04-.49,.06-.8,.06Zm-12.97-3.76c.36,.02,.83,.03,1.45,.03,.23,0,1.02-.05,1.81-.09,.81-.05,1.63-.09,1.95-.1,1.54-.09,3.13-.19,4.77,0,.24,.01,.64,.04,1.09,.08,.29,.02,.74,.06,1.15,.09,0-.02,0-.04,.01-.06,.04-.17,.08-.32,.11-.46,1.53-7.41,3.32-14.73,5.05-21.8,2.11-8.83,4.42-18.26,7.01-27.37,1.45-5.06,2.88-10.04,4.3-15.09-.28,.01-.57,0-.89-.05-.32-.04-.69-.17-1.05-.47-.61-.01-1.99,0-2.96,.02-1.84,.03-3.03,.04-3.61,0-.7-.01-1.34-.16-1.9-.29-.29-.07-.56-.13-.81-.17-.11,.02-.28,.09-.42,.22-.1,.1-.2,.19-.31,.26-.12,.43-.28,1.05-.32,1.23-.61,3.11-1.49,6.12-2.35,9.03-.51,1.75-1.04,3.56-1.5,5.34-.13,.47-.48,1.84-.82,3.22-.36,1.46-.71,2.84-.84,3.29-.49,1.58-.94,3.21-1.38,4.78-.56,2.02-1.15,4.11-1.8,6.13l-1.61,4.96h.9l-.66,2.36c-1.35,4.8-2.36,8.56-3.27,12.2-.09,.37-.29,1.23-.54,2.32-.99,4.28-1.9,8.22-2.28,9.36-.05,.2-.12,.4-.18,.62-.04,.12-.08,.26-.12,.41Zm-4.97-27.65l.76,1.17c.81-.07,1.6-.08,2.36-.09,.45,0,.91-.01,1.37-.03,.21-.1,.47-.19,.79-.21,.51-.04,1.05-.12,1.62-.2,.85-.13,1.74-.27,2.68-.27h1.14l-1.52-4.99c-2.41-7.91-3.95-16.46-5.44-24.74l-.64-3.54c-.29-1.66-.59-3.36-1.11-4.81-.59,.04-1.18,.1-1.77,.15-1.02,.1-2.08,.21-3.17,.21-.42,.03-1.1,.03-2.2,.03-.9,0-2.43-.01-3.23,.04,.47,1.35,1.07,4.45,1.88,8.92,.11,.59,.19,1.06,.24,1.34,.2,.94,.94,4.48,1.67,8.01,.73,3.52,1.46,7.04,1.67,8.02,.79,3.87,1.83,7.54,2.9,10.98Zm19.53-40.58s-.06,.05-.09,.09c.03-.03,.06-.06,.09-.09Z"/>
            </g>
            <g>
              <path class="cls-31" d="M152.42,149.06c-.34-.51,.37-2.04,.78-2.89,.93-2.05,2.03-4.01,3.28-5.88,.52-.68,1.68-2.38,2.28-2.58,.4-.1,1.27,.6,1.59,.78,.33,.29,2.52,1.73,2.89,1.93,.37,.21,2.63,1.04,3.04,1.16,.42,.24,3.06,1.5,3.54,1.65,.42,.24,.72,.83,.19,1.28-.94,1.94-1.88,3.99-2.98,5.84-.36,.65-2.38,4.02-2.8,4.65-.28,.38-.68,.48-.96,.22-.5,.15-1.71-.42-2.13-.55-1.53-.75-7.64-4.15-8.71-5.61Zm11.96-17.32c-.17-.2-.87-.81-1.04-1.01-.11-.17-.09-.59,.09-.91-.02-.22,.02-.42,.16-.66,3.95-7.33,8.16-14.51,12.27-21.75,1.14-2.04,7.23-13.21,8.26-15.31-.14-.62,.33-1.21,.84-1.14,.11,.06,.53,.3,.64,.36,2.01,1.01,3.97,2,6.02,2.93,.79,.33,4.83,1.95,5.54,2.55,.22,.23,.3,.71,.03,1.19-.87,1.44-1.7,2.8-2.52,4.27-.14,.24-.39,.32-.43,.51,.01,.22-.12,.47-.21,.63-4.69,8.52-9.85,16.78-15.02,24.92-1.43,2.31-2.97,4.45-4.24,6.85-.22,.52-.6,.95-.92,.77-.1,.05-.45,.18-.55,.12-3.32-.67-6.34-2.25-8.93-4.34Z"/>
              <path class="cls-2" d="M163.62,157.21c-.26,0-.52-.04-.77-.13-.62-.04-1.27-.27-1.96-.53-.12-.05-.22-.09-.29-.11l-.28-.11c-.08-.04-7.78-4-9.39-6.18l-.05-.07c-.86-1.29-.19-2.97,.64-4.71,.96-2.1,2.11-4.17,3.41-6.11l.36-.49c1.1-1.49,1.89-2.5,2.87-2.82l.15-.04c1.1-.26,2.05,.38,2.75,.84,.07,.05,.14,.09,.19,.13l.32,.23c.3,.24,2.24,1.52,2.56,1.7,.32,.16,2.3,.89,2.67,1l.38,.16c.4,.22,2.81,1.36,3.22,1.51l.31,.14c.8,.45,1.33,1.23,1.41,2.1,.07,.68-.14,1.34-.58,1.87l-.41,.84c-.78,1.62-1.59,3.3-2.52,4.88-.36,.64-2.4,4.05-2.85,4.73-.52,.71-1.21,1.11-1.94,1.18-.07,0-.14,0-.21,0Zm-1.78-4.27c.11,.04,.23,.08,.37,.14,.18,.07,.55,.21,.78,.27l.08-.03c.68-1.1,2.02-3.35,2.32-3.89,.88-1.47,1.65-3.08,2.39-4.63l.17-.36c-.89-.4-1.95-.92-2.42-1.16-.71-.24-2.71-.97-3.22-1.25-.33-.18-2.33-1.47-3.05-2.03-.05-.03-.11-.07-.17-.11-.31,.38-.65,.84-.82,1.07-.11,.15-.21,.29-.3,.4-1.18,1.77-2.22,3.64-3.1,5.57-.32,.68-.5,1.11-.6,1.39,1.39,1.18,5.59,3.65,7.55,4.62Zm11.55-15c-.18,0-.36-.02-.55-.07-3.4-.71-6.64-2.28-9.63-4.69l-.24-.24c-.08-.09-.23-.22-.38-.36-.29-.27-.57-.54-.68-.67l-.12-.16c-.48-.71-.46-1.62-.21-2.35,.04-.4,.17-.78,.38-1.16,2.82-5.24,5.84-10.5,8.75-15.59,1.18-2.06,2.36-4.11,3.52-6.17,1.19-2.13,6.56-11.99,8-14.79,.04-.64,.29-1.26,.74-1.75,.58-.64,1.42-.94,2.25-.83l.34,.05,.93,.52c2.04,1.03,3.93,1.98,5.9,2.87l.44,.18c3.48,1.43,4.93,2.13,5.55,2.66l.13,.12c.83,.87,.95,2.23,.31,3.38l-.1,.16c-.84,1.39-1.64,2.7-2.42,4.11-.1,.18-.22,.33-.32,.46-.1,.31-.24,.55-.31,.69-4.82,8.76-10.09,17.16-15.07,25.01-.48,.77-.98,1.55-1.48,2.32-.95,1.47-1.86,2.85-2.65,4.34-.24,.54-.77,1.42-1.72,1.74-.22,.07-.44,.11-.66,.12-.2,.05-.43,.09-.68,.09Zm-.36-3.65s-.03,.02-.04,.02l.04-.02Zm-7.38-3.92c2.38,1.9,4.93,3.17,7.58,3.78,.86-1.6,1.83-3.09,2.77-4.53,.49-.75,.97-1.49,1.45-2.26,4.96-7.82,10.2-16.16,14.97-24.84l.02-.1c.13-.64,.51-1.03,.72-1.22,.66-1.18,1.32-2.28,2.01-3.41-.67-.32-1.81-.82-3.74-1.61l-.51-.21c-1.81-.82-3.52-1.67-5.35-2.59-1.52,2.96-7.06,13.12-8.08,14.94-1.18,2.08-2.36,4.14-3.54,6.2-2.88,5.02-5.85,10.22-8.64,15.39v.14c.15,.13,.26,.23,.35,.33Zm27.4-29.01h0s0,0,0,0Z"/>
            </g>
            <g>
              <path class="cls-31" d="M207.77,76.67c-6.9-.11-12.97-2.35-18.06-7.09-4.13-3.85-6.64-8.57-7.63-14.12-.71-3.98-.04-7.78,1.38-11.5,2.32-6.07,5.47-11.72,8.84-17.25,3.77-6.19,7.88-12.16,12.14-18.01,1-1.37,2.03-2.71,3.03-4.09,.26-.35,.37-.36,.64,0,5.31,7.03,10.34,14.25,14.97,21.75,2.76,4.48,5.35,9.06,7.51,13.86,1.3,2.89,2.45,5.83,2.99,8.96,.43,2.51,.22,5-.3,7.46-1.07,5.03-3.52,9.31-7.25,12.83-4.16,3.93-9.12,6.23-14.8,6.97-1.15,.15-2.3,.23-3.46,.22Z"/>
              <path class="cls-2" d="M207.92,78.52c-.05,0-.11,0-.16,0h-.02c-7.53-.12-14.02-2.68-19.3-7.59-4.37-4.07-7.13-9.17-8.19-15.16-.7-3.96-.22-8.04,1.48-12.48,2.53-6.62,5.97-12.59,8.99-17.56,3.42-5.62,7.31-11.38,12.23-18.14,.49-.68,1-1.35,1.5-2.02,.51-.68,1.03-1.37,1.53-2.06,.49-.68,1.1-1.03,1.8-1.03,.71,0,1.32,.33,1.83,1.01,5.76,7.64,10.69,14.8,15.07,21.89,3.27,5.3,5.69,9.77,7.62,14.08,1.21,2.69,2.52,5.9,3.12,9.41,.43,2.49,.33,5.16-.32,8.17-1.14,5.35-3.76,9.99-7.79,13.79-4.4,4.16-9.73,6.67-15.84,7.46-1.23,.16-2.4,.24-3.56,.24Zm-.13-3.71c1.04,.01,2.08-.06,3.2-.21,5.31-.69,9.95-2.87,13.77-6.48,3.47-3.28,5.73-7.27,6.71-11.87,.54-2.53,.64-4.74,.29-6.76-.53-3.1-1.74-6.04-2.85-8.52-1.86-4.15-4.21-8.49-7.4-13.65-4.01-6.51-8.51-13.08-13.7-20.05-.13,.17-.26,.35-.39,.52-.49,.66-.99,1.32-1.47,1.98-4.86,6.68-8.69,12.36-12.06,17.89-2.94,4.82-6.27,10.61-8.69,16.95-1.45,3.8-1.87,7.24-1.29,10.51,.93,5.25,3.24,9.53,7.07,13.09,4.65,4.33,10.15,6.48,16.82,6.59Z"/>
            </g>
            <g>
              <g>
                <path class="cls-31" d="M3.19,146.52c-.24,0-.55-.19-.61-.56-.06-.19-.3-.28-.3-.56-.55-2.62-.43-14.21-.36-17.02,.06-6.27,0-12.62,.06-18.89,.06-3.37,1.09-21.79,1.4-25.15,.06-1.03,.49-4.58,.91-5.42,.36-.75,1.09-.94,1.64-1.12,2.31-.37,4.56-.56,6.87-.56,3.28,0,6.57,.09,9.85,.47,2.01,.19,4.01,.65,5.96,1.59,2.49,1.4,4.93,3.74,6.69,6.83,.79,1.4,1.4,2.9,1.89,4.58,1.52,5.05,1.82,11.41,.73,16.74-.67,2.99-1.82,5.7-3.28,7.76-1.95,2.81-4.38,4.86-6.87,6.36-.12,.09-.3,0-.43,.19-.12,.09-.24,.19-.36,.28-3.22,1.78-6.69,2.81-10.09,3.65-.12,4.86,.06,9.82,.3,14.77,.12,1.59,.06,3.27,.12,4.86,.06,.84-.49,1.22-.85,.65-1.46,.19-10.09,.47-11.55,.56-.61,0-1.16-.09-1.7,0Zm16.05-38.62c1.76-.28,3.65-.94,5.11-2.52,1.76-2.06,2.43-6.17,1.28-9.07-1.09-2.71-3.34-4.3-5.41-4.58-1.03-.09-2.37,0-3.1,1.12-1.22,2.15-1.34,10.47-1.46,13.28,0,.28,.3,.75,.43,.94,.79,1.12,2.07,.94,3.16,.84Z"/>
                <path class="cls-2" d="M4.95,148.37h-.06c-.24,0-.48-.01-.7-.02-.28-.02-.53-.03-.69,0l-.31,.03c-1.03,0-1.92-.64-2.29-1.58-.18-.24-.41-.63-.46-1.15-.65-3.48-.38-17.17-.38-17.31,.03-3.1,.03-6.25,.03-9.4s0-6.32,.03-9.46c.06-3.31,1.08-21.75,1.41-25.3h0s.37-4.63,1.1-6.09c.66-1.36,1.91-1.78,2.57-2l.43-.12c2.43-.39,4.78-.59,7.17-.59,4.04,0,7.15,.15,10.06,.48,2.4,.22,4.56,.8,6.55,1.76l.11,.05c2.94,1.65,5.56,4.32,7.39,7.52,.85,1.51,1.52,3.14,2.06,4.99,1.63,5.41,1.92,12.01,.77,17.63-.73,3.26-1.97,6.18-3.59,8.46-1.89,2.73-4.38,5.04-7.38,6.85-.16,.11-.32,.18-.47,.23l-.43,.3c-3.04,1.67-6.26,2.71-9.16,3.47-.06,4.48,.12,8.99,.33,13.23,.07,.96,.08,1.99,.09,2.99,0,.64,0,1.27,.03,1.89,.09,1.25-.56,2.38-1.63,2.73-.55,.18-1.12,.14-1.62-.1-1.43,.1-4.17,.22-7.5,.35-1.58,.06-2.9,.12-3.4,.15h-.06Zm10.49-2.95s0,0,0,.01c0,0,0,0,0-.01Zm-11.42-.8c.12,0,.24,.01,.36,.02,.15,0,.3,.02,.45,.02,.55-.03,1.86-.09,3.42-.15,2.3-.09,5.56-.22,7.16-.33,0-.27,0-.54,0-.82,0-.98-.01-1.9-.08-2.79-.24-4.81-.44-9.9-.31-14.96l.04-1.42,1.37-.34c2.96-.73,6.4-1.71,9.52-3.4l.11-.08c.22-.22,.53-.43,.96-.55,2.47-1.52,4.52-3.44,6.08-5.69,1.33-1.88,2.39-4.39,3-7.11,1.01-4.93,.75-11-.7-15.8-.46-1.59-1.02-2.96-1.72-4.21-1.48-2.6-3.59-4.76-5.93-6.09-1.58-.75-3.31-1.21-5.27-1.39-2.81-.32-5.78-.46-9.68-.46-2.14,0-4.25,.17-6.43,.51-.16,.05-.4,.13-.46,.18-.2,.53-.61,3.46-.68,4.66-.31,3.45-1.34,21.93-1.4,25.08-.03,3.11-.03,6.26-.03,9.41s0,6.32-.03,9.46c-.1,4.38-.11,13.52,.26,16.23Zm14.12-34.8c-1.14,0-2.58-.27-3.59-1.7-.41-.64-.76-1.27-.76-2,.02-.43,.03-.88,.05-1.39,.23-6.5,.58-10.92,1.65-12.81l.06-.1c.67-1.03,2.05-2.21,4.82-1.96,3.02,.41,5.72,2.65,6.97,5.73,1.39,3.49,.69,8.31-1.59,10.97-1.57,1.72-3.6,2.73-6.23,3.15l-.32,.03c-.3,.03-.66,.06-1.06,.06Zm-.63-3.96s.07,.11,.11,.18c.07,.1,.45,.09,1.25,.02h.13c1.74-.3,3.04-.93,3.97-1.95,1.19-1.39,1.86-4.76,.92-7.13-.91-2.26-2.69-3.26-3.94-3.43-.41-.03-1.04-.03-1.27,.26-.81,1.61-1.06,8.7-1.14,11.05-.01,.37-.02,.71-.04,1Z"/>
              </g>
              <g>
                <path class="cls-31" d="M58.65,145.02c-3.59-.19-7.18,.65-10.76,.65-.73,0-3.28,.09-3.95-.56-.18-.19-.37-.47-.43-.84,0-.19-.06-.94-.12-1.03-.12-.19-.12-.37-.12-.65,0-1.59-.06-3.18-.12-4.68-.24-4.68-.18-9.35-.24-13.93-.06-5.33-.06-10.66,0-15.99,.06-4.49,.36-25.62,1.09-29.92,.12-.56,.61-.84,.97-.84,1.22,0,8.57-.19,9.85-.09,.37,0,1.58,.09,1.89,.47,.43,.47,.24,2.15,.24,2.9-.12,3.09-.43,21.79-.49,24.78-.06,4.3-.24,8.51-.3,12.72,0,1.78-.06,6.36,.79,7.57,.55,.65,2.61,.84,3.28,.94,5.29,.37,10.58,.19,15.87-.19,.3-.09,.61,.37,.55,.84,0,.09,.12,.56,.12,.65-.06,2.24-.36,14.12-.24,16.36,0,.37-.06,.75-.24,.94,.06,.84-.61,.94-1.09,.94-1.16,.19-2.25,.37-3.34,.47-4.38,.37-8.76-1.31-13.2-1.5Z"/>
                <path class="cls-2" d="M70.54,148.43c-2.26,0-4.48-.41-6.63-.81-1.85-.34-3.6-.67-5.34-.74h-.02c-1.82-.09-3.67,.1-5.63,.31-1.64,.17-3.33,.35-5.04,.35h-.23c-2.39,.03-4.06-.15-5.02-1.09-.53-.54-.85-1.17-.96-1.87l-.02-.3c0-.07-.02-.27-.03-.41-.21-.49-.21-.95-.21-1.27,0-1.53-.06-3.05-.12-4.6-.17-3.36-.19-6.77-.21-10.06,0-1.32-.01-2.63-.03-3.93-.06-5.32-.06-10.72,0-16.04,.1-7.71,.42-26.08,1.12-30.21,.31-1.42,1.48-2.39,2.8-2.39,.37,0,1.29-.02,2.44-.04,3.51-.06,6.5-.11,7.48-.05,.74,0,2.39,.14,3.22,1.11,.82,.93,.76,2.36,.71,3.63,0,.19-.01,.35-.01,.49-.09,2.34-.28,13.32-.4,19.87-.04,2.34-.07,4.17-.09,4.95-.03,2.18-.09,4.34-.15,6.49-.06,2.08-.12,4.15-.15,6.22v.31c0,3.76,.19,5.33,.38,5.97,.33,.11,.93,.22,1.79,.33l.23,.03c4.44,.31,9.21,.25,15.45-.18,.61-.09,1.24,.09,1.73,.5,.59,.5,.92,1.27,.92,2.07v.05c.07,.27,.11,.47,.11,.72-.13,4.85-.35,14.41-.25,16.26v.1c0,.56-.09,1.06-.27,1.47-.09,.65-.39,1.1-.65,1.38-.51,.54-1.21,.83-2.1,.87l-.2,.03c-1.08,.18-2.1,.34-3.16,.43-.49,.04-.98,.06-1.46,.06Zm-11.8-5.26c2.01,.09,3.96,.45,5.86,.8,2.48,.46,4.82,.89,7.1,.7,.9-.08,1.83-.23,2.82-.39l.16-.17c-.1-2.58,.16-13.16,.24-15.86-5.85,.38-10.46,.4-14.8,.1l-.38-.05c-1.64-.21-3.32-.5-4.2-1.55l-.1-.13c-.95-1.36-1.13-4.08-1.13-8.31v-.33c.03-2.11,.09-4.2,.15-6.3,.06-2.13,.12-4.28,.15-6.45,.02-.79,.05-2.61,.09-4.95,.12-6.57,.31-17.57,.4-19.88,0-.1,0-.32,.02-.56,0-.21,.02-.55,.02-.85-.12-.01-.23-.02-.31-.02h-.14c-.8-.06-4.81,0-7.21,.05-.68,.01-1.29,.02-1.75,.03-.6,5.01-.89,23.26-.97,28.94-.06,5.29-.06,10.65,0,15.94,.02,1.31,.02,2.63,.03,3.95,.02,3.25,.04,6.61,.21,9.9,.07,1.61,.12,3.17,.12,4.77h0c.13,.36,.19,.77,.22,1.13,.36,.06,1.02,.12,2.27,.11h.27c1.52,0,3.04-.16,4.65-.33,2.01-.21,4.09-.43,6.2-.32Zm-13.8-.94s.02,.03,.03,.05c0-.02-.02-.03-.03-.05Z"/>
              </g>
            </g>
            <g>
              <g class="cls-23">
                <path class="cls-29" d="M6.37,71.52c-.67-.09-1.34-.37-1.95-.37-.18,0-.97,.09-1.09,.09-.3-.09-.49-.75-.49-1.22,.12-8.32,.67-16.65,.67-24.97,0-5.05-.18-10.01-.12-15.06,.06-8.42,.3-17.02-.24-25.44,0-.56,.06-1.31,.43-1.4,1.09-.37,2.19-.28,3.28-.28,1.64,0,7.6-.84,9.06,.37,.18,.19,.24,.65,.24,.94,.06,.28,.06,1.5,.06,1.87,.06,2.99,.18,21.6,.18,24.5,3.83-.09,7.6,.56,11.43,0,0-3.09,.12-21.88,.12-24.87,0-.37,0-1.59,.12-1.96-.06-.84,.67-1.03,1.22-1.22,1.82-.47,3.71-.28,5.53-.19,1.7,.09,3.41,.09,5.05,.09,.61,0,1.22,.19,1.82,.28,.67,.09,.49,1.5,.43,2.52-.18,2.43-.18,4.96-.24,7.39-.06,6.36,.12,12.72,.12,18.98,0,3.65-.12,7.2-.18,10.75-.06,9.16,.61,18.23,.73,27.31,0,.47-.18,1.03-.49,1.12-.12,.09-.73,0-.85,0-.79-.19-1.64,.28-2.43,.28-3.1,.09-6.2-.28-9.24-.65-.49-.09-.97-.09-1.4-.09s-.67-.65-.49-1.12c.06-.09-.06-.47-.06-.56,.18-4.58,.3-9.16,.3-13.75,0-1.03-.06-7.11,0-8.14-2.37,.37-4.8,.28-7.18,.19-1.46-.09-2.92-.37-4.38,0v8.42c0,4.58,.12,9.07,.24,13.65,0,.09-.06,.47-.06,.56,.18,.47-.06,1.12-.43,1.12-1.7,.09-3.4,.47-5.11,.65-1.52,.09-3.1,.19-4.62,.19Z"/>
                <path class="cls-38" d="M71.25,71.15c-1.52-.19-3.04-.09-4.56,0-.49,0-3.34,.19-3.83,.19s-2.68,0-3.16-.28c-.73-.47-.06-2.06,.24-3.18,.49-1.4,2.43-10.1,2.8-11.6,1.03-4.11,2.13-8.14,3.28-12.25-1.4,0-2.8,.37-4.2,.47-.12,0-.24,.19-.37,.19-1.58,.09-3.1,0-4.62,.19-.24,0-.61,0-.79-.28-.3,.28-.61,.09-.79-.37-1.34-4.21-2.61-8.51-3.53-13-.43-1.96-2.92-14.12-3.34-16.08-.3-1.59-1.52-8.79-2.13-10.19-.12-.37-.18-.47-.06-.84-.18-.84,.43-1.12,.97-1.31,.85-.28,5.35-.09,6.26-.19,1.7,0,3.4-.28,5.11-.37,.37,0,1.16,.09,1.4,.56,.79,1.87,1.16,4.11,1.52,6.17,1.7,9.35,3.28,18.89,5.96,27.68,1.16-3.55,2.07-7.29,3.16-10.85,.24-.84,1.4-5.61,1.64-6.45,1.22-4.77,2.86-9.35,3.83-14.31,.06-.28,.43-1.68,.55-1.96,.12-.28,.43-.28,.61-.47,.49-.47,1.16-.75,1.76-.75,.91,.09,1.82,.47,2.74,.47,.91,.09,6.08-.09,6.93,0,.18,.09,.43,0,.55,.19,.12,.09,.18,.28,.3,.28,.49,.09,.97,0,1.4-.09,.18,0,.61,.09,.73,0,.43-.37,.91,.28,.73,.94-1.58,5.61-3.16,11.13-4.74,16.65-2.55,8.98-4.8,18.14-6.99,27.31-1.76,7.2-3.53,14.4-5.05,21.79-.18,.65-.37,1.87-.79,1.96-.55,.09-3.04-.19-3.53-.19Z"/>
                <path class="cls-36" d="M111.51,72.74c-1.58,0-9.97-.47-11.61-.84-.67-.19-1.4-.65-1.95-1.4-.67-.94-.97-2.34-1.16-3.65-.24-2.24-.37-4.58-.43-6.83-.06-1.68-.36-11.88-.36-13.56-.12-5.05-.24-33.1-.12-38.15,0-.09-.06-.84-.06-.94,.06-.47,.12-1.87,.37-2.24,.18-.75,.55-1.5,.97-1.87,.61-.56,1.28-.94,1.95-1.03,3.1-.47,6.14,.28,9.24,.47,2.07,.09,4.07-.09,6.14-.19,5.35,0,10.7,2.71,14.96,7.76,3.71,4.4,6.26,11.5,7.24,18.61,1.16,8.32,.3,17.67-2.25,25.34-.18,.47-.61,2.06-.91,2.24-.12,.09-.18,.65-.24,.75-2.19,5.24-5.35,9.91-9,12.44-3.95,2.71-8.45,3.18-12.77,3.09Zm4.5-22.72c1.64-.47,3.28-1.31,4.62-2.81,.85-.84,1.58-2.15,2.07-3.55,.85-2.43,1.09-5.42,1.03-8.14-.12-2.9-.67-6.08-1.95-8.23-1.4-2.43-3.83-3.27-5.9-3.65-.97-.19-3.83-.28-4.62,.56-.91,.84-.91,4.86-.97,6.45-.12,4.96,.06,9.91,.24,14.87,.06,.84,.49,3.18,.85,3.74,.79,1.4,3.41,1.12,4.62,.75Z"/>
                <path class="cls-39" d="M166.15,71.62c-1.16-2.71-5.96-15.9-6.69-18.8-.73-.19-1.52-.37-2.25-.28,.12,5.89,.06,11.88,.79,17.67,.12,.75,.18,1.59-.24,1.68-.3,.47-.79,.28-1.16,.28-2.01,0-3.95-.19-5.96-.09-2.01,.09-3.95-.47-5.96-.28-.97,.09-2.13,.84-2.92-.09-.3,.09-.49-.28-.49-.75,0-2.81,.06-5.61,.06-8.32-.12-13.19,.43-26.37,.97-39.46,0-.09-.12-.47-.12-.56-.06-.28,.06-2.15,.06-2.52,.12-3.18,.24-6.45,.3-9.63,0-.84,.06-4.86,.18-5.61,.06-.56,.37-1.12,.73-1.31,1.16-.65,6.26,.28,7.48,.28,.85,.09,5.9,.47,6.75,.47,2.61-.09,5.11-.84,7.72-.84,1.22,0,6.57,1.03,7.72,1.59,2.68,1.31,4.86,5.05,6.08,8.88,1.16,3.55,1.58,7.57,1.7,11.41,.06,2.9,.06,5.89-.37,8.7-.43,3.09-1.46,6.08-2.74,8.51-1.64,2.99-3.65,5.89-6.08,7.01,.43,.94,2.98,7.01,3.4,7.95,.12,.19,.12,.65,.12,.65,.18,0,.3,.28,.37,.47,1.76,3.83,3.34,7.95,5.35,11.6,.18,.28,.18,.56,.06,.94,.3,.47-.06,.94-.43,.94-1.46-.09-9.97-.09-11.43,0-.3,0-1.82,.09-2.13,.09-.3,.56-.67,.09-.91-.56Zm-3.22-37.69c1.09-.37,2.13-1.68,2.68-3.27,.79-2.24,1.28-7.01,.3-9.07-.43-.94-1.82-2.34-2.55-2.43-.43-.09-2.98-.47-3.41-.47-.67,0-2.25-.09-2.68,.65-.24,.47-.43,2.62-.43,3.18-.18,1.78-.3,3.46-.36,5.24,0,.84,.06,5.61,.06,6.36,0,.28,.24,.37,.36,.37,1.95,.84,4.07,.19,6.02-.56Z"/>
              </g>
              <g class="cls-23">
                <path class="cls-32" d="M142.64,153.13c-1.52-.19-3.04-.09-4.56,0-.49,0-3.34,.19-3.83,.19s-2.68,0-3.16-.28c-.73-.47-.06-2.06,.24-3.18,.49-1.4,2.43-10.1,2.8-11.6,1.03-4.11,2.13-8.14,3.28-12.25-1.4,0-2.8,.37-4.2,.47-.12,0-.24,.19-.36,.19-1.58,.09-3.1,0-4.62,.19-.24,0-.61,0-.79-.28-.3,.28-.61,.09-.79-.37-1.34-4.21-2.61-8.51-3.53-13-.43-1.96-2.92-14.12-3.34-16.08-.3-1.59-1.52-8.79-2.13-10.19-.12-.37-.18-.47-.06-.84-.18-.84,.43-1.12,.97-1.31,.85-.28,5.35-.09,6.26-.19,1.7,0,3.4-.28,5.11-.37,.37,0,1.16,.09,1.4,.56,.79,1.87,1.16,4.11,1.52,6.17,1.7,9.35,3.28,18.89,5.96,27.68,1.16-3.55,2.07-7.29,3.16-10.85,.24-.84,1.4-5.61,1.64-6.45,1.22-4.77,2.86-9.35,3.83-14.31,.06-.28,.43-1.68,.55-1.96,.12-.28,.43-.28,.61-.47,.49-.47,1.16-.75,1.76-.75,.91,.09,1.82,.47,2.74,.47,.91,.09,6.08-.09,6.93,0,.18,.09,.43,0,.55,.19,.12,.09,.18,.28,.3,.28,.49,.09,.97,0,1.4-.09,.18,0,.61,.09,.73,0,.43-.37,.91,.28,.73,.94-1.58,5.61-3.16,11.13-4.74,16.65-2.55,8.98-4.8,18.14-6.99,27.31-1.76,7.2-3.53,14.4-5.05,21.79-.18,.65-.37,1.87-.79,1.96-.55,.09-3.04-.19-3.53-.19Z"/>
              </g>
              <g class="cls-23">
                <path class="cls-30" d="M152.42,149.06c-.34-.51,.37-2.04,.78-2.89,.93-2.05,2.03-4.01,3.28-5.88,.52-.68,1.68-2.38,2.28-2.58,.4-.1,1.27,.6,1.59,.78,.33,.29,2.52,1.73,2.89,1.93,.37,.21,2.63,1.04,3.04,1.16,.42,.24,3.06,1.5,3.54,1.65,.42,.24,.72,.83,.19,1.28-.94,1.94-1.88,3.99-2.98,5.84-.36,.65-2.38,4.02-2.8,4.65-.28,.38-.68,.48-.96,.22-.5,.15-1.71-.42-2.13-.55-1.53-.75-7.64-4.15-8.71-5.61Zm11.96-17.32c-.17-.2-.87-.81-1.04-1.01-.11-.17-.09-.59,.09-.91-.02-.22,.02-.42,.16-.66,3.95-7.33,8.16-14.51,12.27-21.75,1.14-2.04,7.23-13.21,8.26-15.31-.14-.62,.33-1.21,.84-1.14,.11,.06,.53,.3,.64,.36,2.01,1.01,3.97,2,6.02,2.93,.79,.33,4.83,1.95,5.54,2.55,.22,.23,.3,.71,.03,1.19-.87,1.44-1.7,2.8-2.52,4.27-.14,.24-.39,.32-.43,.51,.01,.22-.12,.47-.21,.63-4.69,8.52-9.85,16.78-15.02,24.92-1.43,2.31-2.97,4.45-4.24,6.85-.22,.52-.6,.95-.92,.77-.1,.05-.45,.18-.55,.12-3.32-.67-6.34-2.25-8.93-4.34Z"/>
              </g>
              <ellipse class="cls-7" cx="207.59" cy="51.52" rx="22.04" ry="21.7"/>
              <path class="cls-21" d="M212.41,16.05c5.91,11.44,5.66,19.45,4.13,24.8-2.96,10.38-12.29,16.25-10.33,24.8,0,.03,.01,.06,.02,.09,1.09,4.6,5.82,7.34,10.42,6.25,.86-.2,1.74-.47,2.65-.84,.27-.11,.54-.22,.8-.34,7.79-3.56,11.86-12.27,9.99-20.63-1.19-5.33-3.21-11.65-6.66-18.3-3.54-6.82-7.59-12.06-11.02-15.84Z"/>
              <path class="cls-20" d="M194.8,65.88c-1.82,1.03-4.66-.55-6.35-3.53-1.68-2.98-1.57-6.23,.25-7.26,1.82-1.03,4.66,.55,6.35,3.53,1.68,2.98,1.57,6.23-.25,7.26Z"/>
            </g>
            <g>
              <path class="cls-3" d="M202.77,13.98l5.04-7.18c2.21,3.08,4.45,6.39,6.67,9.93,3.2,5.1,5.96,10.03,8.35,14.7-2.28-3.62-5.3-8.33-9.03-14.01-1.84-2.79-3.54-5.3-6.2-5.51-2.06-.16-3.81,1.14-4.82,2.07Z"/>
              <path class="cls-3" d="M225.5,37.4c1.15,1.7,7.42,11.39,4.13,22.04-.53,1.7-1.79,5.63-5.51,8.96-4.99,4.46-11.07,4.85-13.82,4.78-.72-.02-1.33-.59-1.33-1.31,0,0,0-.01,0-.02-.02-5.7,10.45-7.74,15.16-13.78,2.58-3.32,4.52-9.24,1.38-20.67Z"/>
              <ellipse class="cls-3" cx="223.78" cy="33.96" rx="1.03" ry="1.38" transform="translate(5.75 94.72) rotate(-24.2)"/>
              <path class="cls-4" d="M197.26,26.38c-1.52-.71-6.37,4.9-8.96,11.71-1.29,3.41-1.86,6.7-1.38,6.89,.53,.2,1.27-3.67,4.82-6.2,2.13-1.52,3.18-1.06,8.27-3.44,4.21-1.98,4.17-2.61,4.13-2.76-.21-.77-3.68,.44-5.51-1.38-1.69-1.67-.4-4.36-1.38-4.82Z"/>
              <path class="cls-3" d="M102.74,98.08c-1.02-.83-2.35,.55-1.48,1.54,.56,.64,1.1,1.26,1.62,1.85,8.09,9.25,9.38,10.94,9.64,13.78,.53,5.75-3.73,10.64-8.27,15.84-3.79,4.34-7.64,7.21-10.33,8.96,8.07-5.67,16.14-11.34,24.22-17,4.1-2.88,4.31-8.87,.44-12.04l-15.84-12.93Z"/>
              <path class="cls-3" d="M80.98,83.83c-.97-.69-2.29-.45-2.91,.41-.67,.94-.38,2.4,.75,3.03,3.22,1.26,6.67,2.75,10.27,4.55,.95,.47,1.88,.95,2.79,1.43,1,.53,1.9-.85,1.02-1.56-1.4-1.11-2.9-2.22-4.49-3.32-2.58-1.77-5.07-3.27-7.43-4.55Z"/>
              <circle class="cls-3" cx="97.02" cy="95.61" r="1.03"/>
            </g>
            <g>
              <g class="cls-23">
                <path class="cls-25" d="M3.19,146.52c-.24,0-.55-.19-.61-.56-.06-.19-.3-.28-.3-.56-.55-2.62-.43-14.21-.36-17.02,.06-6.27,0-12.62,.06-18.89,.06-3.37,1.09-21.79,1.4-25.15,.06-1.03,.49-4.58,.91-5.42,.36-.75,1.09-.94,1.64-1.12,2.31-.37,4.56-.56,6.87-.56,3.28,0,6.57,.09,9.85,.47,2.01,.19,4.01,.65,5.96,1.59,2.49,1.4,4.93,3.74,6.69,6.83,.79,1.4,1.4,2.9,1.89,4.58,1.52,5.05,1.82,11.41,.73,16.74-.67,2.99-1.82,5.7-3.28,7.76-1.95,2.81-4.38,4.86-6.87,6.36-.12,.09-.3,0-.43,.19-.12,.09-.24,.19-.36,.28-3.22,1.78-6.69,2.81-10.09,3.65-.12,4.86,.06,9.82,.3,14.77,.12,1.59,.06,3.27,.12,4.86,.06,.84-.49,1.22-.85,.65-1.46,.19-10.09,.47-11.55,.56-.61,0-1.16-.09-1.7,0Zm16.05-38.62c1.76-.28,3.65-.94,5.11-2.52,1.76-2.06,2.43-6.17,1.28-9.07-1.09-2.71-3.34-4.3-5.41-4.58-1.03-.09-2.37,0-3.1,1.12-1.22,2.15-1.34,10.47-1.46,13.28,0,.28,.3,.75,.43,.94,.79,1.12,2.07,.94,3.16,.84Z"/>
                <path class="cls-34" d="M58.65,145.02c-3.59-.19-7.18,.65-10.76,.65-.73,0-3.28,.09-3.95-.56-.18-.19-.37-.47-.43-.84,0-.19-.06-.94-.12-1.03-.12-.19-.12-.37-.12-.65,0-1.59-.06-3.18-.12-4.68-.24-4.68-.18-9.35-.24-13.93-.06-5.33-.06-10.66,0-15.99,.06-4.49,.36-25.62,1.09-29.92,.12-.56,.61-.84,.97-.84,1.22,0,8.57-.19,9.85-.09,.37,0,1.58,.09,1.89,.47,.43,.47,.24,2.15,.24,2.9-.12,3.09-.43,21.79-.49,24.78-.06,4.3-.24,8.51-.3,12.72,0,1.78-.06,6.36,.79,7.57,.55,.65,2.61,.84,3.28,.94,5.29,.37,10.58,.19,15.87-.19,.3-.09,.61,.37,.55,.84,0,.09,.12,.56,.12,.65-.06,2.24-.36,14.12-.24,16.36,0,.37-.06,.75-.24,.94,.06,.84-.61,.94-1.09,.94-1.16,.19-2.25,.37-3.34,.47-4.38,.37-8.76-1.31-13.2-1.5Z"/>
              </g>
              <path class="cls-19" d="M5.41,9.5l.77,27.14c.06,2.15,1.82,3.86,3.97,3.86h25.2c2.2,0,3.98-1.78,3.98-3.98V9.39c0-2.08-1.6-3.8-3.67-3.96h-.09c-2.22-.18-4.15,1.5-4.28,3.72l-1.22,20.8c-.13,2.18-2,3.85-4.18,3.74l-7.75-.42c-2.03-.11-3.65-1.74-3.75-3.77l-1.02-20.31c-.11-2.24-2.05-3.94-4.28-3.76h0c-2.11,.16-3.73,1.96-3.67,4.08Z"/>
              <path class="cls-14" d="M5.59,65.36l.77-24.48c.06-1.94,1.82-3.48,3.97-3.48h25.2c2.2,0,3.98,1.61,3.98,3.59v24.47c0,1.87-1.6,3.43-3.67,3.57h-.09c-2.22,.16-4.15-1.35-4.28-3.36l-1.22-18.76c-.13-1.97-2-3.48-4.18-3.37l-7.75,.38c-2.03,.1-3.65,1.57-3.75,3.4l-1.02,18.31c-.11,2.02-2.05,3.55-4.28,3.39h0c-2.11-.15-3.73-1.77-3.67-3.68Z"/>
              <path class="cls-40" d="M50.81,10.91l6.52,27.2c.51,2.13,2.58,3.5,4.74,3.13h0c2.37-.4,3.91-2.73,3.35-5.07l-6.49-27.21c-.49-2.04-2.41-3.4-4.5-3.17h-.03c-2.49,.27-4.18,2.67-3.6,5.11Z"/>
              <path class="cls-22" d="M77.26,9.47l-6.04,23.01c-.85,3.25,1.51,6.45,4.87,6.59h0c2.42,.1,4.6-1.46,5.28-3.79l6.66-22.99c.96-3.3-1.45-6.61-4.89-6.72l-.62-.02c-2.45-.08-4.64,1.55-5.26,3.92Z"/>
              <path class="cls-16" d="M73.75,64.77l6.04-23.01c.85-3.25-1.51-6.45-4.87-6.59h0c-2.42-.1-4.6,1.46-5.28,3.79l-6.66,22.99c-.96,3.3,1.45,6.61,4.89,6.72l.62,.02c2.45,.08,4.64-1.55,5.26-3.92Z"/>
              <path class="cls-9" d="M145.22,148.02l5.11-23.23c.72-3.28-1.77-6.39-5.13-6.39h0c-2.43,0-4.54,1.65-5.12,4l-5.73,23.24c-.82,3.33,1.72,6.55,5.15,6.52h.62c2.46-.02,4.57-1.74,5.1-4.14Z"/>
              <path class="cls-37" d="M121.76,92.2l6.52,27.2c.51,2.13,2.58,3.5,4.74,3.13h0c2.37-.4,3.91-2.73,3.35-5.07l-6.49-27.21c-.49-2.04-2.41-3.4-4.5-3.17h-.03c-2.49,.27-4.18,2.67-3.6,5.11Z"/>
              <path class="cls-5" d="M148.21,90.76l-6.04,23.01c-.85,3.25,1.51,6.45,4.87,6.59h0c2.42,.1,4.6-1.46,5.28-3.79l6.66-22.99c.96-3.3-1.45-6.61-4.89-6.72l-.62-.02c-2.45-.08-4.64,1.55-5.26,3.92Z"/>
              <path class="cls-1" d="M184.05,96.86l-12.96,19.95c-1.83,2.82-.59,6.6,2.55,7.79h0c2.27,.86,4.83,.06,6.2-1.94l13.54-19.74c1.94-2.83,.7-6.74-2.53-7.92l-.58-.21c-2.3-.85-4.89,.01-6.23,2.07Z"/>
              <path class="cls-10" d="M175.84,130.63l12.67-20.04c1.79-2.83,.66-6.58-2.32-7.71h0c-2.15-.82-4.61,.02-5.95,2.03l-13.22,19.84c-1.9,2.85-.77,6.71,2.29,7.84l.55,.2c2.19,.81,4.66-.09,5.97-2.16Z"/>
              <path class="cls-6" d="M43.94,83.08l1.03,23.77c.15,3.35,3.35,5.72,6.6,4.86h0c2.35-.62,3.97-2.76,3.92-5.18l-.43-23.93c-.06-3.43-3.34-5.89-6.65-4.98l-.6,.16c-2.37,.65-3.97,2.85-3.87,5.3Z"/>
              <path class="cls-11" d="M3.3,115.45l1.03,23.77c.15,3.35,3.35,5.72,6.6,4.86h0c2.35-.62,3.97-2.76,3.92-5.18l-.43-23.93c-.06-3.43-3.34-5.89-6.65-4.98l-.6,.16c-2.37,.65-3.97,2.85-3.87,5.3Z"/>
              <path class="cls-35" d="M99.59,9.73l-.28,26.63c-.02,2.28,1.78,4.15,4.02,4.15h.12c2.22,0,4.02-1.84,4.02-4.11v-13.21c0-1.98,1.38-3.74,3.3-4.04,4.5-.72,9.08,.63,12.29,3.79,3.53,3.47,4.96,8.68,3.96,13.68-.53,2.64,1.55,5.06,4.19,4.9,.03,0,.06,0,.1,0,1.94-.12,3.54-1.63,3.75-3.6,1.27-11.8-3.66-23.04-12.67-28.74-7.31-4.63-15.08-4.21-19.48-3.43-1.91,.34-3.3,2.02-3.32,4Z"/>
              <path class="cls-17" d="M99.71,65.28l-.28-26.63c-.02-2.28,1.78-4.15,4.01-4.15h.12c2.21,0,4.01,1.84,4.01,4.11v13.21c0,1.98,1.38,3.74,3.29,4.04,4.49,.72,9.05-.63,12.24-3.79,3.51-3.47,4.94-8.68,3.95-13.68-.53-2.64,1.55-5.06,4.17-4.9,.03,0,.06,0,.1,0,1.93,.12,3.53,1.63,3.74,3.6,1.27,11.8-3.65,23.04-12.63,28.74-7.28,4.63-15.03,4.21-19.41,3.43-1.9-.34-3.29-2.02-3.31-4Z"/>
              <path class="cls-28" d="M145.41,9.98v26.65c0,2.19,1.68,4.01,3.86,4.19l1.41,.12c2.45,.2,4.55-1.73,4.55-4.19V17.42c0-2.91,11.63-2.81,13.78,.69,3.21,5.23,2.83,12.26-.95,17.78-1.22,1.78-.87,4.21,.79,5.59,.02,.02,.05,.04,.07,.06,2.04,1.69,5.15,1.1,6.39-1.24,5.87-11.09,5.67-22.58-.1-29.08-1.3-1.47-4.09-4.03-9.36-5.33-.32-.08-.66-.12-1-.12h-15.24c-2.32,0-4.2,1.88-4.2,4.2Z"/>
              <path class="cls-33" d="M3.5,83.01v26.65c0,2.19,1.68,4.01,3.86,4.19l1.41,.12c2.45,.2,4.55-1.73,4.55-4.19v-19.32c0-2.91,11.63-2.81,13.78,.69,3.21,5.23,2.83,12.26-.95,17.78-1.22,1.78-.87,4.21,.79,5.59,.02,.02,.05,.04,.07,.06,2.04,1.69,5.15,1.1,6.39-1.24,5.87-11.09,5.67-22.58-.1-29.08-1.3-1.47-4.09-4.03-9.36-5.33-.32-.08-.66-.12-1-.12H7.7c-2.32,0-4.2,1.88-4.2,4.2Z"/>
              <path class="cls-26" d="M158.98,145.7l3.88,2.14c1.35,.75,3.06,.2,3.72-1.2l.25-.53c.67-1.41,0-3.08-1.45-3.65l-4.13-1.61c-1.2-.47-2.56-.02-3.24,1.07h0c-.82,1.31-.38,3.04,.97,3.78Z"/>
              <path class="cls-15" d="M156.91,149.83l3.88,2.14c1.35,.75,3.06,.2,3.72-1.2l.25-.53c.67-1.41,0-3.08-1.45-3.65l-4.13-1.61c-1.2-.47-2.56-.02-3.24,1.07h0c-.82,1.31-.38,3.04,.97,3.78Z"/>
              <path class="cls-12" d="M145.41,39.44v26.11c0,1.5,1.22,2.72,2.72,2.72h4.23c1.5,0,2.72-1.22,2.72-2.72v-13.2c0-2.37,2.48-3.93,4.62-2.89h0c.59,.29,1.06,.78,1.31,1.39l7.2,17.01c.47,1.12,1.63,1.78,2.83,1.64l3.01-.36c1.81-.22,2.9-2.12,2.17-3.79l-6.92-15.87c-.19-.43-.26-.91-.21-1.38l.84-7.78c.17-1.57-1.04-2.96-2.62-3.01l-19.09-.59c-1.53-.05-2.8,1.18-2.8,2.72Z"/>
              <path class="cls-8" d="M46.11,122.07l.48,17.14c.06,2.25,1.94,4.02,4.18,3.95l18.72-.56c2.12-.06,3.84-1.75,3.94-3.87l.23-4.88c.11-2.28-1.69-4.21-3.97-4.26l-10.83-.24c-1.96-.04-3.61-1.47-3.92-3.41l-.76-4.65c-.32-1.96-2.02-3.41-4.01-3.41h0c-2.29,0-4.13,1.89-4.06,4.18Z"/>
              <path class="cls-24" d="M88.15,89.22c2.24,5.88,4.8,14.56,5.38,25.31,.66,12.25-1.51,22.23-3.44,28.65l21.31-16.56c7.24-5.63,6.95-16.65-.58-21.89-10.44-7.26-22.47-15.57-22.67-15.52Z"/>
            </g>
          </g>
          <path class="cls-3" d="M88.51,130.65c-2.32,1.31-5.16-.31-5.35-3.06-.26-3.61-.4-7.47-.39-11.56,.02-3.6,.16-7.02,.39-10.24,.2-2.75,3.02-4.39,5.34-3.09,2.43,1.36,5.02,2.97,7.69,4.88,3.09,2.21,5.79,4.45,8.13,6.6,1.73,1.59,1.65,4.44-.18,5.9-1.57,1.25-3.22,2.51-4.97,3.77-3.67,2.63-7.25,4.88-10.66,6.8Z"/>
        </g>
      </g>
    </g>
  </g>
</svg>