<?xml version="1.0" encoding="UTF-8"?>
<svg id="Capa_2" data-name="Capa 2" xmlns="http://www.w3.org/2000/svg" viewBox="0 0 123.52 164.13">
  <defs>
    <style>
      .cls-1 {
        fill: #367cc6;
      }
    </style>
  </defs>
  <g id="Capa_1-2" data-name="Capa 1">
    <g>
      <path class="cls-1" d="M32.24,103.27c.87,7.28,3.25,15.15,10.06,18.99,7.47,4.21,16.84,2.11,24.43-.56-.61-.08-1.22-.15-1.82-.23,3.43,1.7,3.12,7.98,3.14,11.18,.03,7.18-.82,14.35-1.49,21.49-.22,2.3,2.62,2.78,4.05,1.67,9.34-7.25,18.56-15.27,25.23-25.14,4.38-6.48,7.67-14.46,5.8-22.37-.98-4.14-3.41-7.77-6.4-10.74v3.35c10.34-9.07,18.34-20.41,23.03-33.36,4.66-12.88,5.86-26.84,5.01-40.45-.53-8.54-1.84-17.02-3.61-25.39-.28-1.31-1.73-1.91-2.92-1.65-14.32,2.99-28.33,8.09-40.63,16.09-11.22,7.3-20.77,16.85-28.18,27.98-4.31,6.46-7.8,13.39-10.75,20.57,.97-.55,1.94-1.11,2.92-1.66-7.73-1.31-15.25,.11-21.43,5.08-7.12,5.73-11.15,14.68-13.9,23.18C2.54,98.14,1.11,105.22,.03,112.33c-.28,1.84,1.58,3.96,3.48,2.68,5.31-3.59,10.91-7.09,17.01-9.18,4.05-1.39,8.82-2.38,12.89-.51,2.76,1.26,5.17-2.83,2.39-4.1-11.69-5.34-25.28,3.34-34.69,9.69,1.16,.89,2.32,1.79,3.48,2.68,1.61-10.55,3.86-21.47,8.81-31.03,3.16-6.11,7.77-12.07,14.55-14.3,3.51-1.14,7.24-1.26,10.86-.65,1.39,.24,2.39-.36,2.92-1.66,4.9-11.93,11.74-23.12,20.7-32.43,9.05-9.41,20.07-16.71,32.09-21.76,7.55-3.18,15.46-5.46,23.47-7.14-.97-.55-1.94-1.1-2.92-1.66,5.48,25.94,6.27,54.5-8.48,77.67-4.04,6.35-9.08,11.95-14.73,16.92-.96,.84-.86,2.5,0,3.35,4.62,4.58,6.58,10.42,4.94,16.8-2.15,8.34-8.28,15.41-14.21,21.38-4.79,4.82-9.99,9.21-15.35,13.37l4.05,1.68c.68-7.23,1.55-14.5,1.49-21.77-.04-4.46-.22-10.2-3.56-13.6-.64-.65-1.58-1.41-2.5-1.63-1.51-.38-3.57,.79-5.03,1.21-2.62,.76-5.31,1.34-8.03,1.49-3.91,.21-8.08-.42-11.06-3.17-3.68-3.39-5.04-8.6-5.62-13.4-.36-2.99-5.11-3.02-4.74,0"/>
      <path class="cls-1" d="M103.98,42.24c0,6.36-5.15,11.51-11.5,11.51s-11.51-5.15-11.51-11.51,5.15-11.5,11.51-11.5,11.5,5.15,11.5,11.5"/>
      <path class="cls-1" d="M23.85,127.79l-.91,23.92,22.71-11.51c3.08,15.41-7.98,22.9-30.58,23.92-6.38-23.91-2.03-34.21,8.78-36.33"/>
    </g>
  </g>
</svg>