<?xml version="1.0" encoding="UTF-8"?>
<svg id="Capa_2" data-name="Capa 2" xmlns="http://www.w3.org/2000/svg" viewBox="0 0 184.5 169.61">
  <defs>
    <style>
      .cls-1 {
        fill: #b84081;
      }
    </style>
  </defs>
  <g id="Capa_1-2" data-name="Capa 1">
    <g>
      <path class="cls-1" d="M116.16,15.93c-3.05-5.22-12.52-3.52-17.57-3.52h-3.13c-1.18,0-2.26,.7-2.72,1.79,0,0,0,.01,0,.02-.77,1.86,.6,3.9,2.62,3.9h10.9c1.11,0,3.42-.46,4.46,.19,1.06,.66,.7,2.76,.7,3.8v7.81c0,1.39,1.02,2.58,2.39,2.79h.06c1.71,.27,3.26-1.05,3.26-2.78v-8.15c0-2.02,.11-4.01-.97-5.86"/>
      <path class="cls-1" d="M117.14,152.96v-.96c0-1.35-1.2-2.39-2.54-2.21-.02,0-.04,0-.06,0-1.79,.25-3.12,1.79-3.12,3.6v6.8c0,1.27,.41,3.5-1.41,3.67H28.58c-6.76,0-13.56,.23-20.31,0-1.36-.05-2.22-.47-2.32-1.95-.13-1.72,0-3.51,0-5.24V34.69c0-4.84-.39-14.27,0-19.11,0-.02-.05-.31-.13-.78-.55-3.26-5.37-3.07-5.58,.23,0,.04,0,.06,0,.1-.06,1.15,0,6.72,0,7.88V116.16c0,15.28-.52,30.66,0,45.94,.15,4.28,3.02,7.31,7.33,7.49,1.96,.08,3.93,0,5.89,0H109.46c.17,.02,.35,.02,.54,0,.27,0,.51-.03,.74-.09,7.35-1.12,6.38-10.84,6.38-16.53"/>
      <path class="cls-1" d="M147.02,64.46s-.03,.04-.05,.06c-.8,.92-.92,2.25-.3,3.3,4.35,7.33,6.85,15.82,6.92,24.75-.16,20.18-12.81,38.87-31.93,45.81-19.32,7.01-41.2,1.09-54.4-14.62-13.17-15.67-14.82-38.76-4.34-56.26,10.45-17.44,31.35-26.84,51.34-22.83,5.2,1.05,10.06,2.91,14.48,5.44,1.25,.71,2.83,.41,3.71-.74,.01-.02,.02-.03,.04-.05,1.03-1.37,.63-3.33-.86-4.18-2.66-1.53-5.48-2.84-8.43-3.9-21.3-7.72-46.12-.89-60.44,16.66-14.39,17.64-16.5,42.99-4.76,62.61,11.82,19.74,35.28,29.99,57.79,25.46,25.18-5.07,43.34-27.9,43.53-53.4-.08-9.94-2.85-19.47-7.74-27.72-.98-1.64-3.29-1.83-4.55-.4"/>
      <path class="cls-1" d="M132.07,76.03c-.95,.85-1.19,2.24-.62,3.38,1.98,4,3.11,8.47,3.17,13.16-.15,12.52-8,24.06-19.97,28.17-11.78,4.05-25,.34-32.94-9.25-7.91-9.57-8.88-23.54-2.55-34.19,6.3-10.57,18.94-16.4,31.08-14.07,2.12,.41,4.15,1.03,6.07,1.85,1.13,.49,2.43,.22,3.25-.7l.07-.08c1.27-1.44,.77-3.69-.99-4.45-.58-.25-1.17-.48-1.77-.71-13.86-5.12-30.09-.63-39.44,10.76-9.42,11.46-10.84,28.02-3.21,40.82,7.67,12.87,22.87,19.54,37.54,16.7,16.56-3.2,28.37-18.18,28.57-34.85-.07-5.58-1.41-10.94-3.8-15.74-.83-1.67-3.02-2.1-4.41-.85-.02,.02-.04,.03-.06,.05"/>
      <path class="cls-1" d="M116.91,85.84c-1.58,1.83-5.62,6.09-6.83,7.3-1.68,1.67-4.62,1.84-6.39,.21-1.65-1.52-1.33-4.75,.33-6.28,.74-.68,5.62-5.4,7.08-6.85-1.89-.97-4.04-1.52-6.31-1.52-7.66,0-13.86,6.21-13.86,13.86s6.21,13.87,13.86,13.87,13.86-6.21,13.86-13.87c0-2.44-.63-4.73-1.74-6.73"/>
      <path class="cls-1" d="M25.04,27.33c-.32-.48-.89-.76-1.47-.7-.31,.03-.63,.05-.95,.05-5.73,0-10.48-4.77-10.49-10.5-.01-5.72,4.78-10.49,10.49-10.49h0c.44,0,.88-.17,1.13-.54,.52-.75,.71-1.74,.77-2.58,.09-1.28-.02-2.51-1.3-2.56-4.92-.16-9.84,1.92-13.05,5.79-9.57,11.55,.89,28.94,15.51,26.28,1.22-.23,1.76-1.69,.96-2.63-.59-.69-1.13-1.4-1.62-2.13"/>
      <path class="cls-1" d="M45.12,27.44c-.45-.62-1.19-.95-1.94-.84-.42,.05-.85,.08-1.29,.08-5.73,0-10.48-4.76-10.49-10.49-.01-5.73,4.78-10.49,10.49-10.49h0c.77,0,1.71-.52,1.77-1.29,.04-.44,.05-1.56,0-2.06-.15-1.57-.37-2.36-1.94-2.33-4.66,.07-9.23,2.12-12.28,5.8-9.57,11.55,.89,28.94,15.51,26.28,1.54-.28,2.2-2.12,1.19-3.32-.36-.43-.71-.87-1.04-1.33"/>
      <path class="cls-1" d="M63.36,27.16c-.25-.37-.68-.59-1.13-.55-.35,.04-.71,.06-1.08,.06-5.73,0-10.48-4.76-10.49-10.49-.01-5.52,4.44-10.15,9.88-10.48,.68-.04,1.36-.18,1.94-.52,.86-.49,1.84-1.44,1.98-3.24,.07-.94-.59-1.75-1.52-1.85-5.3-.57-10.76,1.53-14.23,5.72-9.57,11.55,.9,28.94,15.51,26.27,.2-.03,.4-.08,.6-.12,.9-.2,1.28-1.27,.68-1.96-.78-.89-1.49-1.84-2.15-2.84"/>
      <path class="cls-1" d="M81.03,26.64c-.21,.02-.41,.03-.62,.03-5.73,0-10.48-4.77-10.49-10.49-.01-5.73,4.78-10.49,10.49-10.49h0c.49,0,.93-.3,1.11-.76v-.03c.99-2.47-1.08-5.11-3.7-4.68-3.79,.62-7.35,2.56-9.86,5.59-9.57,11.55,.89,28.94,15.51,26.28,0,0,0,0,.01,0,.61-.11,1.07-.33,1.09-.96,.06-1.99-.16-4.77-3.56-4.49"/>
      <path class="cls-1" d="M102.35,27.23c-.41-.46-1.03-.68-1.64-.61-.34,.04-.68,.05-1.03,.05-5.73,0-10.48-4.76-10.49-10.49-.01-5.73,4.78-10.49,10.49-10.49,1.52,0,2.94,.33,4.22,.9,.07,.04,.21,.07,.38,.12,1.1,.26,2.25,.29,3.37,.11l.68-.11c1.78,0,2.6-2.27,1.2-3.36-1.25-.98-2.67-1.78-4.23-2.36-6.34-2.37-13.74-.38-18.05,4.83-9.57,11.55,.9,28.94,15.51,26.27h.03c1.4-.26,2.01-1.93,1.11-3.02-.5-.61-1-1.24-1.54-1.83"/>
      <path class="cls-1" d="M104.31,91.74l1.12,1.12c.66,.66,1.73,.68,2.42,.04l46.8-43.91c.92-.86,2.14-1.32,3.39-1.27l9.12,.31c1.02,.03,2.02-.37,2.73-1.11l14.31-14.85c.64-.66,.19-1.77-.73-1.8l-14.37-.53c-.55-.03-1-.46-1.02-1.02l-.72-16.09c-.04-.92-1.16-1.36-1.82-.7l-15.18,15.18c-.68,.68-1.06,1.6-1.06,2.55v9.98c0,1.2-.46,2.36-1.28,3.24l-43.74,46.43c-.65,.69-.63,1.76,.04,2.42"/>
      <path class="cls-1" d="M20.97,17.88h-6.13c0-3.02,2.45-5.47,5.47-5.47h.66v5.47Z"/>
      <path class="cls-1" d="M40.51,17.88h-6.13c0-3.02,2.45-5.47,5.47-5.47h.66v5.47Z"/>
      <path class="cls-1" d="M60.04,17.88h-6.13c0-3.02,2.45-5.47,5.47-5.47h.66v5.47Z"/>
      <path class="cls-1" d="M79.58,17.88h-6.13c0-3.02,2.45-5.47,5.47-5.47h.66v5.47Z"/>
    </g>
  </g>
</svg>