<?xml version="1.0" encoding="UTF-8"?>
<svg id="Capa_2" data-name="Capa 2" xmlns="http://www.w3.org/2000/svg" viewBox="0 0 380.77 484.19">
  <defs>
    <style>
      .cls-1 {
        fill: #fff;
      }

      .cls-2 {
        fill: #9359b4;
      }

      .cls-3 {
        fill: none;
        stroke: #9359b4;
        stroke-miterlimit: 10;
        stroke-width: 4px;
      }
    </style>
  </defs>
  <g id="Capa_1-2" data-name="Capa 1">
    <g>
      <g>
        <g>
          <path class="cls-2" d="M169.45,480.36L27.92,413.97c-20.25-9.5-28.99-33.7-19.5-53.94L161.96,32.7c9.5-20.25,33.7-28.99,53.95-19.5l141.53,66.39c20.25,9.5,28.99,33.7,19.49,53.95L223.39,460.86c-9.5,20.25-33.7,28.99-53.94,19.49ZM210.06,25.67c-13.37-6.27-29.35-.5-35.62,12.87L20.89,365.88c-6.27,13.37-.5,29.35,12.87,35.62l141.53,66.39c13.37,6.27,29.35,.5,35.62-12.87L364.46,127.68c6.27-13.37,.5-29.35-12.87-35.62L210.06,25.67Z"/>
          <g>
            <path class="cls-2" d="M175.07,324.71c-5.14,.41-10.27,.83-15.41,1.24,3.34-7.11,6.67-14.23,10.01-21.34,1.28-2.72-.56-5.03-2.8-5.65-1.91-1.33-4.85-1.27-6.13,1.46-3.34,7.11-6.67,14.23-10.01,21.34-2.96-4.21-5.93-8.43-8.89-12.64-3.07-4.36-9.87,.34-6.81,4.69,4.34,6.17,8.68,12.34,13.02,18.5,.62,.88,1.5,1.39,2.43,1.61,.77,.58,1.73,.93,2.79,.84,7.52-.61,15.03-1.21,22.55-1.82,5.3-.43,4.57-8.66-.75-8.23Z"/>
            <path class="cls-2" d="M216.02,237.41c-7.02,.57-14.05,1.13-21.07,1.7-4.06-5.76-8.11-11.53-12.16-17.29-3.07-4.36-9.87,.34-6.81,4.69,3.89,5.52,7.77,11.05,11.66,16.57-3.8,8.11-7.6,16.21-11.41,24.32-1.28,2.72,.56,5.03,2.8,5.65,1.91,1.33,4.85,1.27,6.13-1.46,3.8-8.11,7.61-16.21,11.41-24.32,6.73-.54,13.46-1.09,20.2-1.63,5.3-.43,4.57-8.66-.75-8.23Z"/>
            <path class="cls-2" d="M247.22,180.7c-4.18-6.51-8.35-13.03-12.53-19.54-.77-1.19-2.36-1.96-3.78-1.77-8.34,1.11-16.68,2.21-25.02,3.32-5.26,.7-4.55,8.94,.75,8.23,7.53-1,15.06-2,22.59-2.99,3.73,5.81,7.46,11.63,11.19,17.44,2.88,4.49,9.68-.22,6.81-4.69Z"/>
            <path class="cls-2" d="M117.22,275.04c-4.89-6.08-9.78-12.16-14.66-18.24,3.72-8.01,7.44-16.02,11.16-24.03,2.24-4.82-5.24-8.34-7.48-3.51-4.08,8.79-8.16,17.58-12.24,26.36-.58,1.25-.56,2.99,.34,4.1,5.36,6.67,10.72,13.34,16.09,20.01,3.32,4.13,10.15-.54,6.81-4.69Z"/>
            <path class="cls-2" d="M252.67,295.95c-3.78,7.98-7.56,15.96-11.34,23.95-7.8,.13-15.6,.26-23.4,.39-5.32,.09-4.56,8.32,.75,8.23l25.67-.42c1.43-.02,2.78-1.12,3.37-2.36,4.15-8.76,8.3-17.51,12.45-26.27,2.28-4.81-5.2-8.33-7.48-3.51Z"/>
            <path class="cls-2" d="M288.45,238.86c.58-1.25,.56-2.99-.34-4.1-5.36-6.67-10.72-13.34-16.09-20.01-3.32-4.13-10.15,.54-6.81,4.69,3.8,4.72,7.59,9.45,11.39,14.17-6.25,.5-12.5,1-18.74,1.51-5.3,.43-4.57,8.66,.75,8.24,6.45-.52,12.91-1.04,19.36-1.56-3.08,6.64-6.17,13.28-9.25,19.92-2.24,4.82,5.24,8.34,7.48,3.51,4.08-8.79,8.16-17.58,12.24-26.36Z"/>
            <path class="cls-2" d="M157.94,188.24c-3.61-5.12-7.22-10.25-10.82-15.38,6.06-.1,12.12-.2,18.18-.3,5.32-.09,4.56-8.32-.75-8.23-8.56,.14-17.11,.28-25.67,.42-1.43,.02-2.78,1.12-3.37,2.36-4.15,8.76-8.3,17.51-12.44,26.27-2.28,4.81,5.2,8.33,7.48,3.51,3.13-6.62,6.27-13.23,9.4-19.85,3.73,5.29,7.45,10.59,11.18,15.88,3.07,4.36,9.87-.34,6.81-4.69Z"/>
          </g>
        </g>
        <g>
          <path class="cls-2" d="M107.54,349.88l-40.64,35.64,15.37,7.21,6.67-6.41,17.05,8-.66,9.23,15.63,7.33,1.43-54.03-14.86-6.97Zm-9.3,27.52l9.64-9.26-.96,13.33-8.68-4.07Z"/>
          <path class="cls-2" d="M150.25,424.62l16.14,7.57-2.95-18.25c3.11-.11,5.92-.87,8.4-2.37,2.84-1.72,5.07-4.3,6.69-7.76s2.2-6.85,1.72-10.17c-.47-3.32-1.92-6.38-4.33-9.18-2.41-2.8-5.71-5.18-9.9-7.14l-21.59-10.13-21.03,44.84,15.12,7.09,5.29-11.27,4.12,1.93,2.32,14.84Zm13.33-32.51c.56,1.41,.46,2.92-.3,4.55s-1.86,2.67-3.31,3.14c-1.45,.47-3.22,.21-5.31-.77l-5.51-2.58,4.93-10.51,5.51,2.58c2.09,.98,3.42,2.18,3.98,3.59Z"/>
        </g>
      </g>
      <g>
        <g>
          <path class="cls-3" d="M166.86,473L25.33,406.61c-20.25-9.5-28.99-33.7-19.5-53.94L159.38,25.33c9.5-20.25,33.7-28.99,53.95-19.5l141.53,66.39c20.25,9.5,28.99,33.7,19.49,53.95L220.81,453.5c-9.5,20.25-33.7,28.99-53.94,19.49ZM207.48,18.31c-13.37-6.27-29.35-.5-35.62,12.87L18.31,358.51c-6.27,13.37-.5,29.35,12.87,35.62l141.53,66.39c13.37,6.27,29.35,.5,35.62-12.87L361.87,120.32c6.27-13.37,.5-29.35-12.87-35.62L207.48,18.31Z"/>
          <g>
            <path class="cls-3" d="M172.49,317.35c-5.14,.41-10.27,.83-15.41,1.24,3.34-7.11,6.67-14.23,10.01-21.34,1.28-2.72-.56-5.03-2.8-5.65-1.91-1.33-4.85-1.27-6.13,1.46-3.34,7.11-6.67,14.23-10.01,21.34-2.96-4.21-5.93-8.43-8.89-12.64-3.07-4.36-9.87,.34-6.81,4.69,4.34,6.17,8.68,12.34,13.02,18.5,.62,.88,1.5,1.39,2.43,1.61,.77,.58,1.73,.93,2.79,.84,7.52-.61,15.03-1.21,22.55-1.82,5.3-.43,4.57-8.66-.75-8.23Z"/>
            <path class="cls-3" d="M213.44,230.04c-7.02,.57-14.05,1.13-21.07,1.7-4.06-5.76-8.11-11.53-12.16-17.29-3.07-4.36-9.87,.34-6.81,4.69,3.89,5.52,7.77,11.05,11.66,16.57-3.8,8.11-7.6,16.21-11.41,24.32-1.28,2.72,.56,5.03,2.8,5.65,1.91,1.33,4.85,1.27,6.13-1.46,3.8-8.11,7.61-16.21,11.41-24.32,6.73-.54,13.46-1.09,20.2-1.63,5.3-.43,4.57-8.66-.75-8.23Z"/>
            <path class="cls-3" d="M244.64,173.33c-4.18-6.51-8.35-13.03-12.53-19.54-.77-1.19-2.36-1.96-3.78-1.77-8.34,1.11-16.68,2.21-25.02,3.32-5.26,.7-4.55,8.94,.75,8.23,7.53-1,15.06-2,22.59-2.99,3.73,5.81,7.46,11.63,11.19,17.44,2.88,4.49,9.68-.22,6.81-4.69Z"/>
            <path class="cls-3" d="M114.64,267.68c-4.89-6.08-9.78-12.16-14.66-18.24,3.72-8.01,7.44-16.02,11.16-24.03,2.24-4.82-5.24-8.34-7.48-3.51-4.08,8.79-8.16,17.58-12.24,26.36-.58,1.25-.56,2.99,.34,4.1,5.36,6.67,10.72,13.34,16.09,20.01,3.32,4.13,10.15-.54,6.81-4.69Z"/>
            <path class="cls-3" d="M250.08,288.59c-3.78,7.98-7.56,15.96-11.34,23.95-7.8,.13-15.6,.26-23.4,.39-5.32,.09-4.56,8.32,.75,8.23l25.67-.42c1.43-.02,2.78-1.12,3.37-2.36,4.15-8.76,8.3-17.51,12.45-26.27,2.28-4.81-5.2-8.33-7.48-3.51Z"/>
            <path class="cls-3" d="M285.87,231.5c.58-1.25,.56-2.99-.34-4.1-5.36-6.67-10.72-13.34-16.09-20.01-3.32-4.13-10.15,.54-6.81,4.69,3.8,4.72,7.59,9.45,11.39,14.17-6.25,.5-12.5,1-18.74,1.51-5.3,.43-4.57,8.66,.75,8.24,6.45-.52,12.91-1.04,19.36-1.56-3.08,6.64-6.17,13.28-9.25,19.92-2.24,4.82,5.24,8.34,7.48,3.51,4.08-8.79,8.16-17.58,12.24-26.36Z"/>
            <path class="cls-3" d="M155.36,180.88c-3.61-5.12-7.22-10.25-10.82-15.38,6.06-.1,12.12-.2,18.18-.3,5.32-.09,4.56-8.32-.75-8.23-8.56,.14-17.11,.28-25.67,.42-1.43,.02-2.78,1.12-3.37,2.36-4.15,8.76-8.3,17.51-12.44,26.27-2.28,4.81,5.2,8.33,7.48,3.51,3.13-6.62,6.27-13.23,9.4-19.85,3.73,5.29,7.45,10.59,11.18,15.88,3.07,4.36,9.87-.34,6.81-4.69Z"/>
          </g>
        </g>
        <g>
          <path class="cls-3" d="M104.96,342.52l-40.64,35.64,15.37,7.21,6.67-6.41,17.05,8-.66,9.23,15.63,7.33,1.43-54.03-14.86-6.97Zm-9.3,27.52l9.64-9.26-.96,13.33-8.68-4.07Z"/>
          <path class="cls-3" d="M147.66,417.26l16.14,7.57-2.95-18.25c3.11-.11,5.92-.87,8.4-2.37,2.84-1.72,5.07-4.3,6.69-7.76s2.2-6.85,1.72-10.17c-.47-3.32-1.92-6.38-4.33-9.18-2.41-2.8-5.71-5.18-9.9-7.14l-21.59-10.13-21.03,44.84,15.12,7.09,5.29-11.27,4.12,1.93,2.32,14.84Zm13.33-32.51c.56,1.41,.46,2.92-.3,4.55s-1.86,2.67-3.31,3.14c-1.45,.47-3.22,.21-5.31-.77l-5.51-2.58,4.93-10.51,5.51,2.58c2.09,.98,3.42,2.18,3.98,3.59Z"/>
        </g>
      </g>
      <g>
        <g>
          <path class="cls-1" d="M166.86,473L25.33,406.61c-20.25-9.5-28.99-33.7-19.5-53.94L159.38,25.33c9.5-20.25,33.7-28.99,53.95-19.5l141.53,66.39c20.25,9.5,28.99,33.7,19.49,53.95L220.81,453.5c-9.5,20.25-33.7,28.99-53.94,19.49ZM207.48,18.31c-13.37-6.27-29.35-.5-35.62,12.87L18.31,358.51c-6.27,13.37-.5,29.35,12.87,35.62l141.53,66.39c13.37,6.27,29.35,.5,35.62-12.87L361.87,120.32c6.27-13.37,.5-29.35-12.87-35.62L207.48,18.31Z"/>
          <g>
            <path class="cls-1" d="M172.49,317.35c-5.14,.41-10.27,.83-15.41,1.24,3.34-7.11,6.67-14.23,10.01-21.34,1.28-2.72-.56-5.03-2.8-5.65-1.91-1.33-4.85-1.27-6.13,1.46-3.34,7.11-6.67,14.23-10.01,21.34-2.96-4.21-5.93-8.43-8.89-12.64-3.07-4.36-9.87,.34-6.81,4.69,4.34,6.17,8.68,12.34,13.02,18.5,.62,.88,1.5,1.39,2.43,1.61,.77,.58,1.73,.93,2.79,.84,7.52-.61,15.03-1.21,22.55-1.82,5.3-.43,4.57-8.66-.75-8.23Z"/>
            <path class="cls-1" d="M213.44,230.04c-7.02,.57-14.05,1.13-21.07,1.7-4.06-5.76-8.11-11.53-12.16-17.29-3.07-4.36-9.87,.34-6.81,4.69,3.89,5.52,7.77,11.05,11.66,16.57-3.8,8.11-7.6,16.21-11.41,24.32-1.28,2.72,.56,5.03,2.8,5.65,1.91,1.33,4.85,1.27,6.13-1.46,3.8-8.11,7.61-16.21,11.41-24.32,6.73-.54,13.46-1.09,20.2-1.63,5.3-.43,4.57-8.66-.75-8.23Z"/>
            <path class="cls-1" d="M244.64,173.33c-4.18-6.51-8.35-13.03-12.53-19.54-.77-1.19-2.36-1.96-3.78-1.77-8.34,1.11-16.68,2.21-25.02,3.32-5.26,.7-4.55,8.94,.75,8.23,7.53-1,15.06-2,22.59-2.99,3.73,5.81,7.46,11.63,11.19,17.44,2.88,4.49,9.68-.22,6.81-4.69Z"/>
            <path class="cls-1" d="M114.64,267.68c-4.89-6.08-9.78-12.16-14.66-18.24,3.72-8.01,7.44-16.02,11.16-24.03,2.24-4.82-5.24-8.34-7.48-3.51-4.08,8.79-8.16,17.58-12.24,26.36-.58,1.25-.56,2.99,.34,4.1,5.36,6.67,10.72,13.34,16.09,20.01,3.32,4.13,10.15-.54,6.81-4.69Z"/>
            <path class="cls-1" d="M250.08,288.59c-3.78,7.98-7.56,15.96-11.34,23.95-7.8,.13-15.6,.26-23.4,.39-5.32,.09-4.56,8.32,.75,8.23l25.67-.42c1.43-.02,2.78-1.12,3.37-2.36,4.15-8.76,8.3-17.51,12.45-26.27,2.28-4.81-5.2-8.33-7.48-3.51Z"/>
            <path class="cls-1" d="M285.87,231.5c.58-1.25,.56-2.99-.34-4.1-5.36-6.67-10.72-13.34-16.09-20.01-3.32-4.13-10.15,.54-6.81,4.69,3.8,4.72,7.59,9.45,11.39,14.17-6.25,.5-12.5,1-18.74,1.51-5.3,.43-4.57,8.66,.75,8.24,6.45-.52,12.91-1.04,19.36-1.56-3.08,6.64-6.17,13.28-9.25,19.92-2.24,4.82,5.24,8.34,7.48,3.51,4.08-8.79,8.16-17.58,12.24-26.36Z"/>
            <path class="cls-1" d="M155.36,180.88c-3.61-5.12-7.22-10.25-10.82-15.38,6.06-.1,12.12-.2,18.18-.3,5.32-.09,4.56-8.32-.75-8.23-8.56,.14-17.11,.28-25.67,.42-1.43,.02-2.78,1.12-3.37,2.36-4.15,8.76-8.3,17.51-12.44,26.27-2.28,4.81,5.2,8.33,7.48,3.51,3.13-6.62,6.27-13.23,9.4-19.85,3.73,5.29,7.45,10.59,11.18,15.88,3.07,4.36,9.87-.34,6.81-4.69Z"/>
          </g>
        </g>
        <g>
          <path class="cls-1" d="M104.96,342.52l-40.64,35.64,15.37,7.21,6.67-6.41,17.05,8-.66,9.23,15.63,7.33,1.43-54.03-14.86-6.97Zm-9.3,27.52l9.64-9.26-.96,13.33-8.68-4.07Z"/>
          <path class="cls-1" d="M147.66,417.26l16.14,7.57-2.95-18.25c3.11-.11,5.92-.87,8.4-2.37,2.84-1.72,5.07-4.3,6.69-7.76s2.2-6.85,1.72-10.17c-.47-3.32-1.92-6.38-4.33-9.18-2.41-2.8-5.71-5.18-9.9-7.14l-21.59-10.13-21.03,44.84,15.12,7.09,5.29-11.27,4.12,1.93,2.32,14.84Zm13.33-32.51c.56,1.41,.46,2.92-.3,4.55s-1.86,2.67-3.31,3.14c-1.45,.47-3.22,.21-5.31-.77l-5.51-2.58,4.93-10.51,5.51,2.58c2.09,.98,3.42,2.18,3.98,3.59Z"/>
        </g>
      </g>
    </g>
  </g>
</svg>