<?xml version="1.0" encoding="UTF-8"?>
<svg id="Capa_2" data-name="Capa 2" xmlns="http://www.w3.org/2000/svg" viewBox="0 0 201.35 117.13">
  <defs>
    <style>
      .cls-1 {
        fill: #409087;
      }
    </style>
  </defs>
  <g id="Capa_1-2" data-name="Capa 1">
    <g>
      <path class="cls-1" d="M199,52.17c-13.51-16.37-30.43-30.62-49.43-40.18C136.4,5.38,122.12,1.09,107.38,.18c-17.39-1.08-34.65,2.84-50.39,10.14-9.81,4.55-18.95,10.39-27.51,16.99-5.03,3.89-9.87,8.02-14.51,12.36-2.31,2.16-4.56,4.37-6.77,6.63-2.26,2.3-5.12,4.7-6.81,7.47-2.57,4.22-1.35,8.83,1.76,12.31,1.18,1.32,2.39,2.62,3.61,3.91,3.31,3.47,6.75,6.79,10.32,9.99,20.81,18.64,46.25,33.29,74.37,36.55,17.21,1.99,34.6-.87,50.52-7.62,21.47-9.1,39.72-24.61,55.08-41.91,1.82-2.05,3.6-3.96,4.12-6.74,.5-2.65-.15-5.36-1.76-7.51-2.1-2.82-6.89-.06-4.76,2.78,1.64,2.21,1.37,4.16-.3,6.2-2.25,2.74-4.75,5.31-7.21,7.87-4.18,4.34-8.55,8.52-13.12,12.45-8.08,6.96-16.85,13.13-26.3,18.06-15.03,7.84-31.74,12.09-48.72,11.46-27.06-1-52.3-13.98-72.81-31-6.82-5.66-13.52-11.8-19.29-18.56-3.75-4.4,1.58-8.12,4.56-11.19,4.42-4.53,9.01-8.89,13.79-13.02,8.19-7.05,16.99-13.41,26.45-18.63,14.92-8.25,31.54-13.44,48.67-13.65,14.02-.17,27.97,2.95,40.79,8.59,19.65,8.66,36.92,22.46,51.01,38.56,.98,1.12,1.95,2.25,2.9,3.4,2.26,2.74,6.15-1.18,3.9-3.9"/>
      <path class="cls-1" d="M100.8,15.79c-24.94,0-45.17,18.69-45.17,41.74s20.22,41.75,45.17,41.75,45.17-18.69,45.17-41.75S125.75,15.79,100.8,15.79m-19.29,44.81c-8.76,0-15.85-7.09-15.85-15.85s7.1-15.85,15.85-15.85,15.85,7.09,15.85,15.85-7.1,15.85-15.85,15.85"/>
    </g>
  </g>
</svg>