<?xml version="1.0" encoding="UTF-8"?>
<svg xmlns="http://www.w3.org/2000/svg" xmlns:xlink="http://www.w3.org/1999/xlink" viewBox="0 0 340.14 226.9">
  <defs>
    <style>
      .cls-1 {
        fill: url(#Degradado_sin_nombre_76-6);
      }

      .cls-2 {
        fill: #327706;
      }

      .cls-3, .cls-4 {
        fill: #fff;
      }

      .cls-5 {
        fill: url(#Degradado_sin_nombre_76-5);
      }

      .cls-6 {
        fill: url(#Degradado_sin_nombre_76-7);
      }

      .cls-7 {
        fill: url(#Degradado_sin_nombre_102-2);
      }

      .cls-7, .cls-8, .cls-9, .cls-10, .cls-11, .cls-12, .cls-13, .cls-14, .cls-15, .cls-16, .cls-17 {
        mix-blend-mode: multiply;
      }

      .cls-18 {
        fill: url(#Degradado_sin_nombre_95);
      }

      .cls-18, .cls-19, .cls-20, .cls-21 {
        mix-blend-mode: hard-light;
      }

      .cls-22 {
        fill: url(#Degradado_sin_nombre_76-3);
      }

      .cls-23, .cls-24 {
        mix-blend-mode: soft-light;
        opacity: .7;
      }

      .cls-25 {
        fill: url(#Degradado_sin_nombre_98);
      }

      .cls-26 {
        fill: url(#Degradado_sin_nombre_76-11);
      }

      .cls-27 {
        isolation: isolate;
      }

      .cls-28 {
        fill: url(#Degradado_sin_nombre_76-9);
      }

      .cls-8 {
        fill: url(#Degradado_sin_nombre_103-4);
      }

      .cls-29 {
        fill: url(#Degradado_sin_nombre_70);
      }

      .cls-19 {
        fill: url(#Degradado_sin_nombre_76);
      }

      .cls-30 {
        fill: url(#Degradado_sin_nombre_70-6);
      }

      .cls-31 {
        fill: #76c619;
      }

      .cls-32 {
        fill: url(#Degradado_sin_nombre_70-5);
      }

      .cls-33 {
        fill: url(#Degradado_sin_nombre_76-10);
      }

      .cls-9 {
        fill: url(#Degradado_sin_nombre_102-5);
      }

      .cls-20 {
        fill: url(#Degradado_sin_nombre_95-3);
      }

      .cls-34 {
        fill: url(#Degradado_sin_nombre_98-2);
      }

      .cls-10 {
        fill: url(#Degradado_sin_nombre_102-6);
      }

      .cls-35 {
        fill: url(#Degradado_sin_nombre_76-8);
      }

      .cls-11 {
        fill: url(#Degradado_sin_nombre_103);
      }

      .cls-36 {
        fill: url(#Degradado_sin_nombre_70-3);
      }

      .cls-37 {
        fill: url(#Degradado_sin_nombre_76-4);
      }

      .cls-4 {
        opacity: .87;
      }

      .cls-38 {
        fill: url(#Degradado_sin_nombre_70-2);
      }

      .cls-12 {
        fill: url(#Degradado_sin_nombre_103-3);
      }

      .cls-39 {
        fill: url(#Degradado_sin_nombre_70-4);
      }

      .cls-13 {
        fill: url(#Degradado_sin_nombre_102);
      }

      .cls-40 {
        fill: url(#Degradado_sin_nombre_76-2);
      }

      .cls-24 {
        fill: url(#Degradado_sin_nombre_98-3);
      }

      .cls-14 {
        fill: url(#Degradado_sin_nombre_102-3);
      }

      .cls-15 {
        fill: url(#Degradado_sin_nombre_103-2);
      }

      .cls-16 {
        fill: url(#Degradado_sin_nombre_102-4);
      }

      .cls-17 {
        fill: url(#Degradado_sin_nombre_102-7);
      }

      .cls-21 {
        fill: url(#Degradado_sin_nombre_95-2);
      }
    </style>
    <linearGradient id="Degradado_sin_nombre_102" data-name="Degradado sin nombre 102" x1="105.73" y1="168.32" x2="167.41" y2="168.32" gradientUnits="userSpaceOnUse">
      <stop offset="0" stop-color="#0a8949"/>
      <stop offset=".17" stop-color="#369e6a" stop-opacity=".82"/>
      <stop offset=".74" stop-color="#c6e3d4" stop-opacity=".23"/>
      <stop offset="1" stop-color="#fff" stop-opacity="0"/>
    </linearGradient>
    <linearGradient id="Degradado_sin_nombre_95" data-name="Degradado sin nombre 95" x1="2223.15" y1="107.53" x2="2244.72" y2="140.28" gradientTransform="translate(-835.29 -1827.72) rotate(60.54) scale(1 1.38)" gradientUnits="userSpaceOnUse">
      <stop offset=".16" stop-color="#00b9b7" stop-opacity="0"/>
      <stop offset=".22" stop-color="#0ebcba" stop-opacity=".06"/>
      <stop offset=".34" stop-color="#33c7c5" stop-opacity=".2"/>
      <stop offset=".49" stop-color="#6fd7d6" stop-opacity=".44"/>
      <stop offset=".68" stop-color="#c1eeed" stop-opacity=".76"/>
      <stop offset=".81" stop-color="#fff"/>
    </linearGradient>
    <linearGradient id="Degradado_sin_nombre_70" data-name="Degradado sin nombre 70" x1="34.92" y1="-50.64" x2="31.67" y2="123.77" gradientUnits="userSpaceOnUse">
      <stop offset=".19" stop-color="#fff"/>
      <stop offset=".27" stop-color="#fbfcfd" stop-opacity=".98"/>
      <stop offset=".35" stop-color="#f0f6fa" stop-opacity=".94"/>
      <stop offset=".44" stop-color="#deecf4" stop-opacity=".86"/>
      <stop offset=".52" stop-color="#c4ddec" stop-opacity=".75"/>
      <stop offset=".6" stop-color="#a3cae2" stop-opacity=".6"/>
      <stop offset=".68" stop-color="#7ab3d5" stop-opacity=".43"/>
      <stop offset=".76" stop-color="#4c98c7" stop-opacity=".23"/>
      <stop offset=".84" stop-color="#187bb7" stop-opacity="0"/>
    </linearGradient>
    <linearGradient id="Degradado_sin_nombre_70-2" data-name="Degradado sin nombre 70" x1="100.99" y1="-49.41" x2="97.74" y2="125" xlink:href="#Degradado_sin_nombre_70"/>
    <linearGradient id="Degradado_sin_nombre_70-3" data-name="Degradado sin nombre 70" x1="169.64" y1="-48.13" x2="166.39" y2="126.28" xlink:href="#Degradado_sin_nombre_70"/>
    <linearGradient id="Degradado_sin_nombre_70-4" data-name="Degradado sin nombre 70" x1="235.29" y1="-46.9" x2="232.04" y2="127.51" xlink:href="#Degradado_sin_nombre_70"/>
    <linearGradient id="Degradado_sin_nombre_70-5" data-name="Degradado sin nombre 70" x1="215.62" y1="75.54" x2="183.09" y2="201.15" xlink:href="#Degradado_sin_nombre_70"/>
    <linearGradient id="Degradado_sin_nombre_70-6" data-name="Degradado sin nombre 70" x1="274.79" y1="90.87" x2="242.25" y2="216.48" xlink:href="#Degradado_sin_nombre_70"/>
    <linearGradient id="Degradado_sin_nombre_102-2" data-name="Degradado sin nombre 102" x1="300.28" y1="91.9" x2="297.1" y2="9.18" xlink:href="#Degradado_sin_nombre_102"/>
    <linearGradient id="Degradado_sin_nombre_95-2" data-name="Degradado sin nombre 95" x1="282.84" y1="63.19" x2="347.05" y2="64.49" gradientTransform="matrix(1, 0, 0, 1, 0, 0)" xlink:href="#Degradado_sin_nombre_95"/>
    <linearGradient id="Degradado_sin_nombre_95-3" data-name="Degradado sin nombre 95" x1="2204.44" y1="417.5" x2="2226.01" y2="450.25" gradientTransform="translate(-435.75 -2053.41) rotate(60.54)" xlink:href="#Degradado_sin_nombre_95"/>
    <linearGradient id="Degradado_sin_nombre_98" data-name="Degradado sin nombre 98" x1="28.59" y1="206.63" x2="29.74" y2="111.47" gradientUnits="userSpaceOnUse">
      <stop offset=".16" stop-color="#187bb7" stop-opacity="0"/>
      <stop offset=".24" stop-color="#4c98c7" stop-opacity=".23"/>
      <stop offset=".32" stop-color="#7ab3d5" stop-opacity=".43"/>
      <stop offset=".4" stop-color="#a3cae2" stop-opacity=".6"/>
      <stop offset=".48" stop-color="#c4ddec" stop-opacity=".75"/>
      <stop offset=".56" stop-color="#deecf4" stop-opacity=".86"/>
      <stop offset=".65" stop-color="#f0f6fa" stop-opacity=".94"/>
      <stop offset=".73" stop-color="#fbfcfd" stop-opacity=".98"/>
      <stop offset=".81" stop-color="#fff"/>
    </linearGradient>
    <linearGradient id="Degradado_sin_nombre_98-2" data-name="Degradado sin nombre 98" x1="85.9" y1="207.33" x2="87.06" y2="112.17" xlink:href="#Degradado_sin_nombre_98"/>
    <linearGradient id="Degradado_sin_nombre_76" data-name="Degradado sin nombre 76" x1="31.61" y1="-10.79" x2="34.19" y2="82.7" gradientUnits="userSpaceOnUse">
      <stop offset=".19" stop-color="#fff"/>
      <stop offset=".32" stop-color="#c1eeed" stop-opacity=".76"/>
      <stop offset=".51" stop-color="#6fd7d6" stop-opacity=".44"/>
      <stop offset=".66" stop-color="#33c7c5" stop-opacity=".2"/>
      <stop offset=".78" stop-color="#0ebcba" stop-opacity=".06"/>
      <stop offset=".84" stop-color="#00b9b7" stop-opacity="0"/>
    </linearGradient>
    <linearGradient id="Degradado_sin_nombre_102-3" data-name="Degradado sin nombre 102" x1="31.93" y1="-2956.91" x2="34.26" y2="-2872.41" gradientTransform="translate(0 -2840.39) scale(1 -1)" xlink:href="#Degradado_sin_nombre_102"/>
    <linearGradient id="Degradado_sin_nombre_76-2" data-name="Degradado sin nombre 76" x1="82.67" y1="-9.79" x2="85.24" y2="83.42" xlink:href="#Degradado_sin_nombre_76"/>
    <linearGradient id="Degradado_sin_nombre_76-3" data-name="Degradado sin nombre 76" x1="113.8" y1="-8.73" x2="116.21" y2="78.39" xlink:href="#Degradado_sin_nombre_76"/>
    <linearGradient id="Degradado_sin_nombre_102-4" data-name="Degradado sin nombre 102" x1="2865.07" y1="-2927.14" x2="2867.47" y2="-2840.03" gradientTransform="translate(2969.2 -2811.28) rotate(-180)" xlink:href="#Degradado_sin_nombre_102"/>
    <linearGradient id="Degradado_sin_nombre_102-5" data-name="Degradado sin nombre 102" x1="2820.66" y1="-2990.95" x2="2823.06" y2="-2903.84" gradientTransform="translate(2906.71 -2865.49) rotate(177.7)" xlink:href="#Degradado_sin_nombre_102"/>
    <linearGradient id="Degradado_sin_nombre_76-4" data-name="Degradado sin nombre 76" x1="185.07" y1="107.53" x2="187.65" y2="200.75" xlink:href="#Degradado_sin_nombre_76"/>
    <linearGradient id="Degradado_sin_nombre_76-5" data-name="Degradado sin nombre 76" x1="216.21" y1="108.6" x2="218.62" y2="195.71" xlink:href="#Degradado_sin_nombre_76"/>
    <linearGradient id="Degradado_sin_nombre_76-6" data-name="Degradado sin nombre 76" x1="794.16" y1="476.93" x2="796.56" y2="564.05" gradientTransform="translate(-329.34 -582.95) rotate(18.3)" xlink:href="#Degradado_sin_nombre_76"/>
    <linearGradient id="Degradado_sin_nombre_102-6" data-name="Degradado sin nombre 102" x1="2517.07" y1="-3141.12" x2="2519.48" y2="-3054" gradientTransform="translate(3499.65 -2022.7) rotate(-161.7) scale(.95 1)" xlink:href="#Degradado_sin_nombre_102"/>
    <linearGradient id="Degradado_sin_nombre_76-7" data-name="Degradado sin nombre 76" x1="-306.47" y1="-379.07" x2="-304.06" y2="-291.95" gradientTransform="translate(463.81 369.4) rotate(-17.19)" xlink:href="#Degradado_sin_nombre_76"/>
    <linearGradient id="Degradado_sin_nombre_103" data-name="Degradado sin nombre 103" x1="-376.32" y1="-351.76" x2="-373.91" y2="-264.65" gradientTransform="translate(463.81 369.4) rotate(-17.19)" gradientUnits="userSpaceOnUse">
      <stop offset="0" stop-color="#fff" stop-opacity="0"/>
      <stop offset=".26" stop-color="#c6e3d4" stop-opacity=".23"/>
      <stop offset=".83" stop-color="#369e6a" stop-opacity=".82"/>
      <stop offset="1" stop-color="#0a8949"/>
    </linearGradient>
    <linearGradient id="Degradado_sin_nombre_76-8" data-name="Degradado sin nombre 76" x1="167.55" y1="-11.41" x2="170.22" y2="84.96" xlink:href="#Degradado_sin_nombre_76"/>
    <linearGradient id="Degradado_sin_nombre_102-7" data-name="Degradado sin nombre 102" x1="167.65" y1="-2887.82" x2="170.31" y2="-2791.45" gradientTransform="translate(0 -2768.16) scale(1 -1)" xlink:href="#Degradado_sin_nombre_102"/>
    <linearGradient id="Degradado_sin_nombre_76-9" data-name="Degradado sin nombre 76" x1="233.05" y1="-11" x2="235.74" y2="86.49" xlink:href="#Degradado_sin_nombre_76"/>
    <linearGradient id="Degradado_sin_nombre_76-10" data-name="Degradado sin nombre 76" x1="28.23" y1="94.39" x2="30.92" y2="191.89" xlink:href="#Degradado_sin_nombre_76"/>
    <linearGradient id="Degradado_sin_nombre_76-11" data-name="Degradado sin nombre 76" x1="234.05" y1="199.1" x2="234.6" y2="218.97" xlink:href="#Degradado_sin_nombre_76"/>
    <linearGradient id="Degradado_sin_nombre_103-2" data-name="Degradado sin nombre 103" x1="231.07" y1="205.06" x2="231.62" y2="224.94" gradientTransform="matrix(1, 0, 0, 1, 0, 0)" xlink:href="#Degradado_sin_nombre_103"/>
    <linearGradient id="Degradado_sin_nombre_103-3" data-name="Degradado sin nombre 103" x1="230.62" y1="35.64" x2="233.03" y2="122.89" gradientTransform="matrix(1, 0, 0, 1, 0, 0)" xlink:href="#Degradado_sin_nombre_103"/>
    <linearGradient id="Degradado_sin_nombre_103-4" data-name="Degradado sin nombre 103" x1="85.68" y1="157.01" x2="87.51" y2="223.01" gradientTransform="matrix(1, 0, 0, 1, 0, 0)" xlink:href="#Degradado_sin_nombre_103"/>
    <linearGradient id="Degradado_sin_nombre_98-3" data-name="Degradado sin nombre 98" x1="94.23" y1="168.32" x2="196.48" y2="166.48" xlink:href="#Degradado_sin_nombre_98"/>
  </defs>
  <g class="cls-27">
    <g id="Capa_2" data-name="Capa 2">
      <g id="Capa_1-2" data-name="Capa 1">
        <g>
          <g>
            <g>
              <path class="cls-3" d="M14.17,105.21c-.97-.13-1.93-.54-2.81-.54-.26,0-1.4,.13-1.58,.13-.44-.13-.7-1.08-.7-1.75,.18-12.01,.97-24.02,.97-36.04,0-7.29-.26-14.44-.18-21.73,.09-12.15,.44-24.56-.35-36.71,0-.81,.09-1.89,.61-2.02,1.58-.54,3.16-.4,4.74-.4,2.37,0,10.97-1.21,13.08,.54,.26,.27,.35,.94,.35,1.35,.09,.4,.09,2.16,.09,2.7,.09,4.32,.26,31.18,.26,35.36,5.53-.13,10.97,.81,16.5,0,0-4.45,.18-31.58,.18-35.9,0-.54,0-2.29,.17-2.83-.09-1.21,.97-1.48,1.76-1.75,2.63-.67,5.35-.4,7.99-.27,2.46,.13,4.91,.13,7.28,.13,.88,0,1.76,.27,2.63,.4,.97,.13,.7,2.16,.61,3.64-.26,3.51-.26,7.15-.35,10.66-.09,9.18,.18,18.35,.18,27.4,0,5.26-.18,10.39-.26,15.52-.09,13.23,.88,26.32,1.05,39.41,0,.67-.26,1.48-.7,1.62-.18,.13-1.05,0-1.23,0-1.14-.27-2.37,.4-3.51,.4-4.48,.13-8.95-.4-13.34-.94-.7-.13-1.4-.13-2.02-.13s-.97-.94-.7-1.62c.09-.13-.09-.67-.09-.81,.26-6.61,.44-13.23,.44-19.84,0-1.48-.09-10.26,0-11.74-3.42,.54-6.93,.4-10.36,.27-2.11-.13-4.21-.54-6.32,0v12.15c0,6.61,.18,13.09,.35,19.7,0,.13-.09,.67-.09,.81,.26,.67-.09,1.62-.61,1.62-2.46,.13-4.91,.67-7.37,.94-2.19,.13-4.48,.27-6.67,.27Z"/>
              <path class="cls-3" d="M107.81,104.67c-2.19-.27-4.39-.13-6.58,0-.7,0-4.83,.27-5.53,.27s-3.86,0-4.56-.4c-1.05-.67-.09-2.97,.35-4.59,.7-2.02,3.51-14.58,4.04-16.74,1.49-5.94,3.07-11.74,4.74-17.68-2.02,0-4.04,.54-6.05,.67-.18,0-.35,.27-.53,.27-2.28,.13-4.48,0-6.67,.27-.35,0-.88,0-1.14-.4-.44,.4-.88,.13-1.14-.54-1.93-6.07-3.77-12.28-5.09-18.76-.61-2.83-4.21-20.38-4.83-23.21-.44-2.29-2.19-12.69-3.07-14.71-.18-.54-.26-.67-.09-1.21-.26-1.21,.61-1.62,1.4-1.89,1.23-.4,7.72-.13,9.04-.27,2.46,0,4.91-.4,7.37-.54,.53,0,1.67,.13,2.02,.81,1.14,2.7,1.67,5.94,2.19,8.91,2.46,13.5,4.74,27.26,8.6,39.95,1.67-5.13,2.98-10.53,4.56-15.66,.35-1.21,2.02-8.1,2.37-9.31,1.76-6.88,4.13-13.5,5.53-20.65,.09-.4,.61-2.43,.79-2.83,.18-.4,.61-.4,.88-.67,.7-.67,1.67-1.08,2.55-1.08,1.32,.13,2.63,.67,3.95,.67,1.32,.13,8.78-.13,10.01,0,.26,.13,.61,0,.79,.27,.18,.13,.26,.4,.44,.4,.7,.13,1.4,0,2.02-.13,.26,0,.88,.13,1.05,0,.61-.54,1.32,.4,1.05,1.35-2.28,8.1-4.56,16.06-6.85,24.02-3.69,12.96-6.93,26.18-10.09,39.41-2.54,10.39-5.09,20.78-7.28,31.45-.26,.94-.53,2.7-1.14,2.83-.79,.13-4.39-.27-5.09-.27Z"/>
              <path class="cls-3" d="M165.91,106.97c-2.28,0-14.39-.67-16.76-1.21-.97-.27-2.02-.94-2.81-2.02-.97-1.35-1.4-3.37-1.67-5.26-.35-3.24-.53-6.61-.61-9.85-.09-2.43-.53-17.14-.53-19.57-.18-7.29-.35-47.78-.18-55.06,0-.13-.09-1.21-.09-1.35,.09-.67,.18-2.7,.53-3.24,.26-1.08,.79-2.16,1.4-2.7,.88-.81,1.84-1.35,2.81-1.48,4.48-.67,8.86,.4,13.34,.67,2.98,.13,5.88-.13,8.86-.27,7.72,0,15.45,3.91,21.59,11.2,5.35,6.34,9.04,16.6,10.44,26.86,1.67,12.01,.44,25.51-3.25,36.58-.26,.67-.88,2.97-1.32,3.24-.18,.13-.26,.94-.35,1.08-3.16,7.56-7.72,14.31-12.99,17.95-5.7,3.91-12.2,4.59-18.43,4.45Zm6.49-32.8c2.37-.67,4.74-1.89,6.67-4.05,1.23-1.21,2.28-3.1,2.98-5.13,1.23-3.51,1.58-7.83,1.49-11.74-.18-4.18-.97-8.77-2.81-11.88-2.02-3.51-5.53-4.72-8.51-5.26-1.4-.27-5.53-.4-6.67,.81-1.32,1.21-1.32,7.02-1.4,9.31-.17,7.15,.09,14.31,.35,21.46,.09,1.21,.7,4.59,1.23,5.4,1.14,2.02,4.91,1.62,6.67,1.08Z"/>
              <path class="cls-3" d="M245.77,105.35c-1.67-3.91-8.6-22.94-9.65-27.13-1.05-.27-2.19-.54-3.25-.4,.18,8.5,.09,17.14,1.14,25.51,.18,1.08,.26,2.29-.35,2.43-.44,.67-1.14,.4-1.67,.4-2.9,0-5.7-.27-8.6-.13s-5.7-.67-8.6-.4c-1.4,.13-3.07,1.21-4.21-.13-.44,.13-.7-.4-.7-1.08,0-4.05,.09-8.1,.09-12.01-.17-19.03,.61-38.06,1.4-56.95,0-.13-.18-.67-.18-.81-.09-.4,.09-3.1,.09-3.64,.18-4.59,.35-9.31,.44-13.9,0-1.21,.09-7.02,.26-8.1,.09-.81,.53-1.62,1.05-1.89,1.67-.94,9.04,.4,10.8,.4,1.23,.13,8.51,.67,9.74,.67,3.77-.13,7.37-1.21,11.15-1.21,1.76,0,9.48,1.48,11.15,2.29,3.86,1.89,7.02,7.29,8.78,12.82,1.67,5.13,2.28,10.93,2.46,16.47,.09,4.18,.09,8.5-.53,12.55-.61,4.45-2.11,8.77-3.95,12.28-2.37,4.32-5.27,8.5-8.78,10.12,.61,1.35,4.3,10.12,4.91,11.47,.18,.27,.18,.94,.18,.94,.26,0,.44,.4,.53,.67,2.54,5.53,4.83,11.47,7.72,16.74,.26,.4,.26,.81,.09,1.35,.44,.67-.09,1.35-.61,1.35-2.11-.13-14.39-.13-16.5,0-.44,0-2.63,.13-3.07,.13-.44,.81-.97,.13-1.32-.81Zm-4.65-54.39c1.58-.54,3.07-2.43,3.86-4.72,1.14-3.24,1.84-10.12,.44-13.09-.61-1.35-2.63-3.37-3.69-3.51-.61-.13-4.3-.67-4.91-.67-.97,0-3.25-.13-3.86,.94-.35,.67-.61,3.78-.61,4.59-.26,2.56-.44,4.99-.53,7.56,0,1.21,.09,8.1,.09,9.18,0,.4,.35,.54,.53,.54,2.81,1.21,5.88,.27,8.69-.81Z"/>
            </g>
            <path class="cls-3" d="M209.84,221c-2.19-.27-4.39-.13-6.58,0-.7,0-4.83,.27-5.53,.27s-3.86,0-4.56-.4c-1.05-.67-.09-2.97,.35-4.59,.7-2.02,3.51-14.58,4.04-16.74,1.49-5.94,3.07-11.74,4.74-17.68-2.02,0-4.04,.54-6.06,.67-.17,0-.35,.27-.53,.27-2.28,.13-4.48,0-6.67,.27-.35,0-.88,0-1.14-.4-.44,.4-.88,.13-1.14-.54-1.93-6.07-3.77-12.28-5.09-18.76-.61-2.83-4.21-20.38-4.83-23.21-.44-2.29-2.19-12.69-3.07-14.71-.17-.54-.26-.67-.09-1.21-.26-1.21,.61-1.62,1.4-1.89,1.23-.4,7.72-.13,9.04-.27,2.46,0,4.91-.4,7.37-.54,.53,0,1.67,.13,2.02,.81,1.14,2.7,1.67,5.94,2.19,8.91,2.46,13.5,4.74,27.26,8.6,39.95,1.67-5.13,2.98-10.53,4.56-15.66,.35-1.21,2.02-8.1,2.37-9.31,1.76-6.88,4.13-13.5,5.53-20.65,.09-.4,.61-2.43,.79-2.83,.18-.4,.61-.4,.88-.67,.7-.67,1.67-1.08,2.55-1.08,1.32,.13,2.63,.67,3.95,.67,1.32,.13,8.78-.13,10.01,0,.26,.13,.61,0,.79,.27,.18,.13,.26,.4,.44,.4,.7,.13,1.4,0,2.02-.13,.26,0,.88,.13,1.05,0,.61-.54,1.32,.4,1.05,1.35-2.28,8.1-4.56,16.06-6.85,24.02-3.69,12.96-6.93,26.18-10.09,39.41-2.54,10.39-5.09,20.78-7.28,31.45-.26,.94-.53,2.7-1.14,2.83-.79,.13-4.39-.27-5.09-.27Z"/>
            <path class="cls-3" d="M223.96,216.12c-.49-.74,.54-2.95,1.12-4.17,1.35-2.96,2.93-5.78,4.73-8.49,.74-.97,2.42-3.44,3.29-3.73,.58-.14,1.83,.87,2.29,1.12,.47,.42,3.63,2.49,4.17,2.79,.54,.3,3.79,1.5,4.39,1.68,.61,.34,4.42,2.16,5.1,2.38,.61,.34,1.04,1.2,.27,1.85-1.36,2.8-2.71,5.75-4.3,8.42-.53,.94-3.44,5.81-4.04,6.71-.4,.55-.99,.69-1.38,.31-.72,.22-2.47-.61-3.08-.79-2.21-1.08-11.03-6-12.57-8.09Zm17.26-24.99c-.24-.29-1.26-1.17-1.5-1.46-.16-.24-.13-.84,.13-1.32-.02-.32,.03-.6,.23-.95,5.7-10.58,11.78-20.94,17.71-31.39,1.64-2.95,10.43-19.06,11.92-22.09-.21-.89,.47-1.75,1.22-1.64,.15,.09,.77,.43,.92,.51,2.9,1.46,5.73,2.88,8.69,4.23,1.14,.48,6.98,2.81,7.99,3.69,.32,.33,.44,1.02,.04,1.72-1.26,2.08-2.45,4.04-3.64,6.16-.2,.35-.56,.46-.61,.74,.02,.32-.18,.68-.31,.91-6.76,12.3-14.21,24.22-21.67,35.97-2.06,3.33-4.28,6.42-6.11,9.88-.32,.75-.87,1.37-1.33,1.11-.14,.08-.65,.26-.8,.17-4.79-.97-9.14-3.24-12.89-6.26Z"/>
            <g>
              <path class="cls-3" d="M9.57,213.45c-.35,0-.79-.27-.88-.81-.09-.27-.44-.4-.44-.81-.79-3.78-.61-20.51-.53-24.56,.09-9.04,0-18.22,.09-27.26,.09-4.86,1.58-31.45,2.02-36.31,.09-1.48,.7-6.61,1.32-7.83,.53-1.08,1.58-1.35,2.37-1.62,3.33-.54,6.58-.81,9.92-.81,4.74,0,9.48,.13,14.22,.67,2.9,.27,5.79,.94,8.6,2.29,3.6,2.02,7.11,5.4,9.65,9.85,1.14,2.02,2.02,4.18,2.72,6.61,2.19,7.29,2.63,16.47,1.05,24.16-.97,4.32-2.63,8.23-4.74,11.2-2.81,4.05-6.32,7.02-9.92,9.18-.18,.13-.44,0-.61,.27-.18,.13-.35,.27-.53,.4-4.65,2.56-9.65,4.05-14.57,5.26-.18,7.02,.09,14.17,.44,21.32,.18,2.29,.09,4.72,.18,7.02,.09,1.21-.7,1.75-1.23,.94-2.11,.27-14.57,.67-16.68,.81-.88,0-1.67-.13-2.46,0Zm23.17-55.74c2.54-.4,5.27-1.35,7.37-3.64,2.54-2.97,3.51-8.91,1.84-13.09-1.58-3.91-4.83-6.21-7.81-6.61-1.49-.13-3.42,0-4.48,1.62-1.75,3.1-1.93,15.12-2.11,19.16,0,.4,.44,1.08,.61,1.35,1.14,1.62,2.98,1.35,4.56,1.21Zm10.97,17.41c.09,0,.18-.13,.26-.13-.09,0-.18,.13-.26,.13Z"/>
              <path class="cls-3" d="M89.61,211.29c-5.18-.27-10.36,.94-15.53,.94-1.05,0-4.74,.13-5.7-.81-.26-.27-.53-.67-.61-1.21,0-.27-.09-1.35-.18-1.48-.18-.27-.18-.54-.18-.94,0-2.29-.09-4.59-.18-6.75-.35-6.75-.26-13.5-.35-20.11-.09-7.69-.09-15.39,0-23.08,.09-6.48,.53-36.98,1.58-43.19,.18-.81,.88-1.21,1.4-1.21,1.76,0,12.37-.27,14.22-.13,.53,0,2.28,.13,2.72,.67,.61,.67,.35,3.1,.35,4.18-.18,4.45-.61,31.45-.7,35.77-.09,6.21-.35,12.28-.44,18.35,0,2.56-.09,9.18,1.14,10.93,.79,.94,3.77,1.21,4.74,1.35,7.64,.54,15.27,.27,22.91-.27,.44-.13,.88,.54,.79,1.21,0,.13,.17,.81,.17,.94-.09,3.24-.53,20.38-.35,23.62,0,.54-.09,1.08-.35,1.35,.09,1.21-.88,1.35-1.58,1.35-1.67,.27-3.25,.54-4.83,.67-6.32,.54-12.64-1.89-19.05-2.16Z"/>
            </g>
            <g>
              <path class="cls-31" d="M121.53,215.45c-7.98,4.5-17.77-1.06-18.45-10.54-.89-12.43-1.39-25.74-1.33-39.83,.06-12.4,.55-24.18,1.34-35.27,.68-9.48,10.4-15.11,18.39-10.64,8.39,4.7,17.3,10.25,26.5,16.81,10.65,7.6,19.97,15.34,28.02,22.74,5.95,5.47,5.68,15.3-.61,20.33-5.4,4.32-11.11,8.66-17.14,12.97-12.65,9.07-25,16.81-36.73,23.42Z"/>
              <path class="cls-2" d="M115.57,219.71c-2.4,0-4.8-.59-6.99-1.77-4.72-2.54-7.77-7.33-8.17-12.83-.95-13.26-1.4-26.73-1.34-40.03,.05-11.78,.51-23.71,1.35-35.45,.4-5.53,3.46-10.35,8.19-12.9,4.46-2.4,9.76-2.36,14.18,.12,9.16,5.13,18.16,10.84,26.75,16.97,9.82,7.01,19.34,14.73,28.28,22.95,3.44,3.16,5.31,7.7,5.15,12.47-.16,4.71-2.31,9.06-5.9,11.93-5.62,4.5-11.43,8.89-17.25,13.06-11.86,8.5-24.3,16.43-36.97,23.58-2.27,1.28-4.77,1.92-7.28,1.92Zm.02-99.42c-1.51,0-3.03,.38-4.44,1.14-3.11,1.68-5.12,4.88-5.39,8.57-.83,11.63-1.28,23.44-1.34,35.09-.06,13.17,.39,26.5,1.32,39.62,.26,3.66,2.26,6.84,5.36,8.5,2.91,1.56,6.23,1.52,9.11-.1h0c12.5-7.05,24.78-14.88,36.48-23.27,5.75-4.12,11.47-8.45,17.02-12.89,2.36-1.89,3.78-4.78,3.89-7.93,.11-3.2-1.14-6.24-3.42-8.34-8.78-8.07-18.12-15.65-27.76-22.53-8.43-6.02-17.26-11.62-26.25-16.66-1.45-.81-3.02-1.22-4.58-1.22Z"/>
            </g>
            <path class="cls-13" d="M121.26,212.6c-6.27,4.14-13.95-.97-14.49-9.69-.7-11.44-1.09-23.68-1.04-36.64,.04-11.41,.43-22.25,1.05-32.45,.53-8.72,8.17-13.9,14.44-9.79,6.58,4.32,13.59,9.43,20.81,15.47,8.36,6.99,15.68,14.11,22,20.92,4.67,5.03,4.46,14.07-.48,18.7-4.24,3.97-8.73,7.97-13.45,11.94-9.94,8.34-19.63,15.46-28.84,21.55Z"/>
            <path class="cls-18" d="M120.26,207.46c-3.63,2.05-8.54,.22-10.97-4.08-2.43-4.3-1.46-9.45,2.17-11.5,3.63-2.05,8.54-.22,10.97,4.08,2.43,4.3,1.46,9.45-2.17,11.5Z"/>
            <g>
              <g>
                <path class="cls-31" d="M9.19,103.23c-.97-.13-1.93-.54-2.81-.54-.26,0-1.4,.13-1.58,.13-.44-.13-.7-1.08-.7-1.75,.18-12.01,.97-24.02,.97-36.04,0-7.29-.26-14.44-.18-21.73,.09-12.15,.44-24.56-.35-36.71,0-.81,.09-1.89,.61-2.02,1.58-.54,3.16-.4,4.74-.4,2.37,0,10.97-1.21,13.08,.54,.26,.27,.35,.94,.35,1.35,.09,.4,.09,2.16,.09,2.7,.09,4.32,.26,31.18,.26,35.36,5.53-.13,10.97,.81,16.5,0,0-4.45,.18-31.58,.18-35.9,0-.54,0-2.29,.17-2.83-.09-1.21,.97-1.48,1.76-1.75,2.63-.67,5.35-.4,7.99-.27,2.46,.13,4.91,.13,7.28,.13,.88,0,1.76,.27,2.63,.4,.97,.13,.7,2.16,.61,3.64-.26,3.51-.26,7.15-.35,10.66-.09,9.18,.18,18.35,.18,27.4,0,5.26-.18,10.39-.26,15.52-.09,13.23,.88,26.32,1.05,39.41,0,.67-.26,1.48-.7,1.62-.18,.13-1.05,0-1.23,0-1.14-.27-2.37,.4-3.51,.4-4.48,.13-8.95-.4-13.34-.94-.7-.13-1.4-.13-2.02-.13s-.97-.94-.7-1.62c.09-.13-.09-.67-.09-.81,.26-6.61,.44-13.23,.44-19.84,0-1.48-.09-10.26,0-11.74-3.42,.54-6.93,.4-10.36,.27-2.11-.13-4.21-.54-6.32,0v12.15c0,6.61,.18,13.09,.35,19.7,0,.13-.09,.67-.09,.81,.26,.67-.09,1.62-.61,1.62-2.46,.13-4.91,.67-7.37,.94-2.19,.13-4.48,.27-6.67,.27Z"/>
                <path class="cls-2" d="M9.19,105.9l-.37-.03c-.5-.07-1-.19-1.49-.32-.35-.09-.78-.2-.95-.2-.09,0-.39,.04-.66,.06-.42,.04-.81,.07-.92,.07h-.4l-.39-.12c-1.91-.59-2.59-2.69-2.59-4.31,.08-5.32,.28-10.68,.47-15.86,.24-6.62,.5-13.47,.5-20.17,0-3.11-.05-6.2-.1-9.28-.06-4.07-.13-8.28-.08-12.48,.02-2.25,.04-4.53,.07-6.81,.11-9.79,.22-19.91-.41-29.7v-.17c0-2.55,.84-4.1,2.5-4.58,1.73-.57,3.34-.55,4.78-.53h.75c.45,0,1.35-.06,2.31-.13,5.69-.42,10.22-.59,12.49,1.3l.2,.19c.88,.9,1.08,2.17,1.11,2.98,.06,.47,.09,1.24,.09,2.93,.08,3.82,.22,24.59,.26,32.69,1.27,.03,2.53,.09,3.76,.16,2.55,.13,4.99,.25,7.4,.1,.01-3.54,.05-9.68,.08-15.78,.04-7.81,.09-15.56,.09-17.7,0-1.65,.06-2.53,.17-3.11,.04-1.88,1.19-3.21,3.44-3.96l.34-.11c2.71-.7,5.44-.54,7.84-.4l.95,.05c2.39,.13,4.81,.13,7.15,.13,.86,0,1.62,.16,2.29,.29,.25,.05,.5,.1,.75,.14,3.29,.46,3.03,4.31,2.91,5.96l-.03,.49c-.19,2.59-.24,5.28-.29,7.87-.02,.9-.03,1.81-.06,2.7-.05,5.18,.02,10.5,.08,15.64,.05,3.92,.1,7.82,.1,11.69,0,3.55-.08,7.07-.16,10.47-.04,1.7-.08,3.4-.11,5.1-.05,7.48,.25,15.1,.54,22.46,.22,5.52,.44,11.24,.52,16.87,0,1.5-.6,3.39-2.27,4.1-.83,.39-1.69,.31-2.36,.24h-.31l-.29-.08h0c-.1,0-.54,.1-.82,.17-.57,.14-1.28,.3-2.07,.3-4.67,.14-9.45-.45-13.67-.96l-.18-.03c-.45-.09-.99-.09-1.51-.09-1.11,0-2.12-.55-2.77-1.5-.6-.87-.82-1.97-.64-3.01-.04-.19-.06-.38-.06-.59,.3-7.48,.44-13.93,.44-19.84,0-.35,0-1.12-.01-2.1-.02-2.4-.03-4.8-.03-6.66-2.62,.16-5.22,.06-7.74-.04-.56-.04-1.05-.08-1.54-.13-.71-.07-1.37-.13-1.99-.14v9.74c0,6.45,.17,12.66,.34,19.24v.39c.01,.17,0,.44-.04,.72,.16,1.03-.06,2.14-.65,3-.61,.9-1.55,1.43-2.57,1.46-1.33,.08-2.69,.28-4.12,.51-1.02,.16-2.04,.31-3.06,.42-2.57,.16-4.77,.29-6.96,.29Zm-2.4-5.88c.69,.05,1.31,.21,1.87,.35,.24,.06,.49,.13,.74,.17,1.98,0,4.03-.12,6.3-.26,.82-.09,1.76-.24,2.71-.38,.93-.14,1.88-.29,2.85-.4h0s0-.24,0-.24c-.18-6.62-.34-12.87-.34-19.38v-14.22l2.01-.52c2.09-.54,4.08-.35,5.83-.19,.44,.04,.88,.08,1.33,.11,3.2,.13,6.59,.26,9.77-.24l3.28-.52-.19,3.32c-.06,1.04-.02,6.72,0,9.45,0,1,.01,1.78,.01,2.14,0,5.9-.14,12.33-.43,19.65,0,0,0,.02,0,.03,.17,.02,.35,.05,.52,.08,4.01,.49,8.54,1.04,12.85,.92,.24,0,.61-.09,.91-.16,.53-.13,1.18-.28,1.91-.3-.08-5.2-.29-10.47-.49-15.57-.29-7.42-.59-15.1-.54-22.73,.03-1.73,.07-3.44,.11-5.15,.08-3.37,.16-6.86,.16-10.35,0-3.85-.05-7.73-.1-11.63-.06-5.17-.13-10.51-.08-15.8,.02-.92,.04-1.81,.06-2.7,.05-2.67,.1-5.43,.3-8.13l.03-.5c.01-.17,.03-.38,.04-.59-.25-.04-.47-.07-.65-.07-2.41,0-4.9,0-7.43-.14l-.97-.05c-2.15-.12-4.19-.24-6.05,.21-.02,.22-.07,.77-.07,2.03,0,2.14-.04,9.91-.09,17.73-.04,7.93-.09,15.92-.09,18.17v2.31l-2.29,.34c-3.68,.54-7.26,.36-10.72,.18-2.1-.11-4.08-.21-6.1-.16l-2.74,.07v-2.74c0-4.09-.18-31.05-.26-35.31,0-1.47-.03-2.03-.04-2.22-1.81-.36-6.28-.03-8.1,.11-1.15,.08-2.05,.15-2.7,.15h-.83c-.66-.02-1.26-.03-1.83,.02,.62,9.85,.51,19.92,.4,29.66-.03,2.27-.05,4.54-.07,6.8-.05,4.14,.02,8.31,.08,12.34,.05,3.11,.1,6.23,.1,9.37,0,6.81-.25,13.7-.5,20.37-.18,4.8-.36,9.74-.45,14.62ZM59.75,6.54s.04,0,.06,0c-.02,0-.04,0-.06,0Zm-16.67-.35h0s0,0,0,0Z"/>
              </g>
              <g>
                <path class="cls-31" d="M102.84,102.69c-2.19-.27-4.39-.13-6.58,0-.7,0-4.83,.27-5.53,.27s-3.86,0-4.56-.4c-1.05-.67-.09-2.97,.35-4.59,.7-2.02,3.51-14.58,4.04-16.74,1.49-5.94,3.07-11.74,4.74-17.68-2.02,0-4.04,.54-6.05,.67-.18,0-.35,.27-.53,.27-2.28,.13-4.48,0-6.67,.27-.35,0-.88,0-1.14-.4-.44,.4-.88,.13-1.14-.54-1.93-6.07-3.77-12.28-5.09-18.76-.61-2.83-4.21-20.38-4.83-23.21-.44-2.29-2.19-12.69-3.07-14.71-.18-.54-.26-.67-.09-1.21-.26-1.21,.61-1.62,1.4-1.89,1.23-.4,7.72-.13,9.04-.27,2.46,0,4.91-.4,7.37-.54,.53,0,1.67,.13,2.02,.81,1.14,2.7,1.67,5.94,2.19,8.91,2.46,13.5,4.74,27.26,8.6,39.95,1.67-5.13,2.98-10.53,4.56-15.66,.35-1.21,2.02-8.1,2.37-9.31,1.76-6.88,4.13-13.5,5.53-20.65,.09-.4,.61-2.43,.79-2.83,.18-.4,.61-.4,.88-.67,.7-.67,1.67-1.08,2.55-1.08,1.32,.13,2.63,.67,3.95,.67,1.32,.13,8.78-.13,10.01,0,.26,.13,.61,0,.79,.27,.18,.13,.26,.4,.44,.4,.7,.13,1.4,0,2.02-.13,.26,0,.88,.13,1.05,0,.61-.54,1.32,.4,1.05,1.35-2.28,8.1-4.56,16.06-6.85,24.02-3.69,12.96-6.93,26.18-10.09,39.41-2.54,10.39-5.09,20.78-7.28,31.45-.26,.94-.53,2.7-1.14,2.83-.79,.13-4.39-.27-5.09-.27Z"/>
                <path class="cls-2" d="M107.35,105.65c-.76,0-1.75-.07-3.18-.19-.6-.05-1.11-.1-1.34-.1l-.32-.02c-1.95-.24-3.96-.12-6.09,.02h-.16c-.33,0-1.47,.07-2.62,.14-1.27,.07-2.54,.14-2.91,.14-4.22,0-5.23-.38-5.9-.76-2.69-1.72-1.72-4.9-1.14-6.8,.09-.28,.17-.56,.24-.81l.06-.18c.47-1.36,2.22-8.97,3.16-13.05,.37-1.61,.66-2.88,.8-3.44,1.08-4.31,2.25-8.73,3.7-13.96-.52,.08-1.06,.15-1.61,.21-.31,.16-.72,.3-1.21,.33-.94,.05-1.87,.07-2.79,.08-1.29,.02-2.51,.03-3.68,.17l-.33,.02c-.56,0-1.07-.07-1.52-.21-.25,0-.5-.02-.74-.08-.66-.15-1.85-.66-2.52-2.35l-.06-.16c-1.86-5.86-3.78-12.22-5.16-19.04-.3-1.39-1.36-6.49-2.41-11.6-1.05-5.08-2.1-10.17-2.41-11.58-.09-.49-.22-1.19-.38-2.07-.48-2.67-1.94-10.78-2.53-12.15l-.13-.37c-.19-.58-.36-1.21-.21-2.08-.06-1.22,.33-3.25,3.25-4.25,1.1-.36,3.02-.39,6.87-.38,1.08,0,2.42,.01,2.76-.02h.27c1.34-.01,2.71-.15,4.16-.29,1.02-.1,2.05-.2,3.07-.26h.15c.76,0,3.31,.16,4.4,2.25l.09,.19c1.19,2.81,1.76,6.06,2.27,8.93l.92,5.1c1.56,8.65,3.16,17.53,5.24,26.03,.61-2.18,1.24-4.43,1.91-6.61,.16-.55,.65-2.53,1.15-4.52,.52-2.11,1.02-4.1,1.21-4.75,.66-2.59,1.44-5.25,2.19-7.82,1.2-4.08,2.44-8.3,3.28-12.6,.04-.19,.63-2.62,.96-3.38,.46-1.07,1.29-1.54,1.7-1.74,1.21-1.05,2.73-1.63,4.18-1.63h.27c.73,.09,1.42,.25,2.03,.39,.62,.15,1.2,.28,1.65,.28h.27c.51,.07,3.06,.03,4.74,0,3.06-.05,4.58-.06,5.28,.02l.61,.11c.53,.09,.99,.28,1.38,.55,.15-.03,.3-.06,.39-.08l.58-.06c.11,0,.24,0,.39,.02,.9-.31,1.9-.21,2.74,.32,1.4,.88,2.04,2.69,1.56,4.41-2.29,8.11-4.57,16.08-6.85,24.04-3.71,13.04-7.03,26.59-10.06,39.29-2.51,10.24-5.09,20.77-7.27,31.36l-.04,.18c-.05,.17-.09,.36-.14,.57-.35,1.47-.88,3.7-3.01,4.16-.33,.06-.7,.08-1.15,.08Zm-18.72-5.42c.52,.03,1.2,.04,2.09,.04,.33,0,1.47-.07,2.62-.13,1.17-.07,2.35-.13,2.81-.14,2.22-.14,4.51-.27,6.89,0,.34,.01,.92,.06,1.57,.11,.42,.03,1.07,.09,1.66,.13,0-.03,.01-.05,.02-.08,.06-.24,.11-.47,.17-.67,2.2-10.67,4.78-21.21,7.28-31.41,3.06-12.79,6.39-26.41,10.13-39.55,2.07-7.23,4.14-14.45,6.21-21.78-.4,.02-.83,0-1.28-.07-.46-.06-1-.24-1.51-.68-.88-.02-2.87,.01-4.26,.03-2.66,.04-4.38,.07-5.23,0-1.01-.02-1.93-.23-2.74-.42-.42-.1-.82-.19-1.17-.24-.16,.03-.41,.14-.6,.32-.14,.15-.29,.27-.44,.37-.17,.62-.41,1.53-.46,1.77-.88,4.5-2.16,8.84-3.39,13.03-.74,2.52-1.51,5.13-2.17,7.72-.19,.68-.69,2.66-1.18,4.64-.52,2.11-1.02,4.1-1.21,4.75-.7,2.28-1.36,4.62-1.99,6.89-.81,2.92-1.66,5.94-2.6,8.85l-2.33,7.16h1.3l-.95,3.4c-1.94,6.92-3.4,12.36-4.72,17.61-.13,.54-.42,1.78-.78,3.36-1.42,6.18-2.75,11.86-3.29,13.51-.08,.28-.17,.58-.26,.89-.05,.17-.12,.38-.18,.59Zm-7.17-39.9l1.1,1.68c1.17-.1,2.3-.11,3.41-.13,.65,0,1.31-.02,1.97-.04,.3-.15,.68-.28,1.14-.3,.74-.05,1.52-.17,2.33-.3,1.23-.19,2.51-.38,3.86-.38h1.65l-2.19-7.2c-3.47-11.41-5.7-23.76-7.85-35.7l-.92-5.12c-.42-2.39-.85-4.85-1.6-6.94-.86,.05-1.71,.14-2.57,.22-1.47,.15-3,.3-4.56,.3-.61,.05-1.59,.05-3.18,.04-1.3,0-3.51-.02-4.66,.06,.68,1.94,1.55,6.42,2.71,12.86,.15,.85,.28,1.53,.35,1.94,.29,1.36,1.35,6.46,2.41,11.57,1.05,5.08,2.1,10.17,2.41,11.58,1.14,5.59,2.65,10.88,4.18,15.84ZM109.65,1.77s-.08,.08-.13,.12c.04-.04,.08-.08,.13-.12Z"/>
              </g>
              <g>
                <path class="cls-31" d="M160.93,104.98c-2.28,0-14.39-.67-16.76-1.21-.97-.27-2.02-.94-2.81-2.02-.97-1.35-1.4-3.37-1.67-5.26-.35-3.24-.53-6.61-.61-9.85-.09-2.43-.53-17.14-.53-19.57-.18-7.29-.35-47.78-.18-55.06,0-.13-.09-1.21-.09-1.35,.09-.67,.18-2.7,.53-3.24,.26-1.08,.79-2.16,1.4-2.7,.88-.81,1.84-1.35,2.81-1.48,4.48-.67,8.86,.4,13.34,.67,2.98,.13,5.88-.13,8.86-.27,7.72,0,15.45,3.91,21.59,11.2,5.35,6.34,9.04,16.6,10.44,26.86,1.67,12.01,.44,25.51-3.25,36.58-.26,.67-.88,2.97-1.32,3.24-.18,.13-.26,.94-.35,1.08-3.16,7.56-7.72,14.31-12.99,17.95-5.7,3.91-12.2,4.59-18.43,4.45Zm6.49-32.8c2.37-.67,4.74-1.89,6.67-4.05,1.23-1.21,2.28-3.1,2.98-5.13,1.23-3.51,1.58-7.83,1.49-11.74-.18-4.18-.97-8.77-2.81-11.88-2.02-3.51-5.53-4.72-8.51-5.26-1.4-.27-5.53-.4-6.67,.81-1.32,1.21-1.32,7.02-1.4,9.31-.17,7.15,.09,14.31,.35,21.46,.09,1.21,.7,4.59,1.23,5.4,1.14,2.02,4.91,1.62,6.67,1.08Z"/>
                <path class="cls-2" d="M162.41,107.68c-.51,0-1.02,0-1.51-.02-2.13,0-14.53-.64-17.33-1.28-1.78-.49-3.29-1.57-4.37-3.05-1.38-1.94-1.88-4.48-2.16-6.47-.33-3.03-.54-6.32-.64-10.15-.09-2.45-.53-17.19-.53-19.64-.18-7.54-.35-47.69-.18-55.04,0-.12-.02-.31-.04-.51-.03-.39-.05-.78-.05-.87l.02-.35c.02-.13,.03-.32,.05-.55,.12-1.41,.24-2.46,.61-3.29,.26-.94,.89-2.65,2.16-3.76,1.27-1.17,2.74-1.92,4.21-2.12,3.39-.51,6.64-.12,9.79,.25,1.41,.17,2.74,.32,4.09,.41,2.05,.1,4.11-.02,6.29-.15,.76-.04,1.52-.09,2.29-.12h0c8.75,0,17.15,4.32,23.75,12.15,5.37,6.36,9.5,16.91,11.05,28.22,1.72,12.42,.5,26.2-3.36,37.78l-.05,.13c-.06,.15-.13,.39-.22,.66-.43,1.32-.76,2.28-1.24,2.98-.06,.24-.13,.52-.26,.82-3.59,8.56-8.53,15.32-13.9,19.04-6.14,4.21-12.93,4.95-18.48,4.95ZM140.98,10.72c0,.09,.02,.24,.03,.4,.03,.39,.05,.78,.05,.87-.17,7.13,0,47.4,.18,55,0,2.47,.44,17.08,.52,19.54,.1,3.71,.3,6.86,.6,9.66,.27,1.9,.67,3.27,1.18,3.99,.53,.73,1.17,.95,1.35,1,1.9,.43,13.83,1.12,16.04,1.12h.06c4.98,.11,11.41-.25,16.86-3.98,4.47-3.09,8.84-9.16,11.99-16.67v-.03c.12-.52,.29-1.25,.84-1.87,.16-.37,.4-1.11,.52-1.49,.12-.36,.22-.67,.3-.89,3.54-10.66,4.71-23.86,3.12-35.31-1.42-10.35-5.09-19.88-9.84-25.5-5.57-6.61-12.51-10.25-19.54-10.25-.63,.03-1.37,.07-2.11,.12-2.22,.13-4.52,.26-6.88,.15-1.54-.09-3.01-.27-4.43-.44-2.92-.35-5.69-.67-8.39-.27-.2,.03-.69,.16-1.39,.81-.14,.14-.44,.64-.62,1.36l-.21,.6c-.08,.39-.15,1.21-.19,1.58-.02,.19-.03,.36-.05,.5Zm23.48,64.57c-2.29,0-4.74-.65-6-2.83-1.02-1.7-1.55-6-1.59-6.57-.27-7.19-.53-14.49-.36-21.72l.03-.94c.16-5.52,.54-8.64,2.17-10.21,2.6-2.64,9-1.55,9.06-1.54,4.92,.89,8.3,3.04,10.33,6.56,2.32,3.91,3,9.28,3.16,13.1,.08,3.48-.14,8.47-1.64,12.74-.86,2.48-2.12,4.64-3.57,6.09-2.04,2.26-4.68,3.87-7.85,4.77-.96,.29-2.31,.54-3.73,.54Zm-1.4-5.57l.03,.06c.31,.21,2.08,.29,3.55-.16l.05-.02c2.25-.64,4.02-1.71,5.41-3.26l.11-.12c.87-.86,1.74-2.39,2.34-4.1,1.23-3.52,1.41-7.82,1.35-10.8-.19-4.41-1.07-8.28-2.43-10.57-1.23-2.13-3.35-3.39-6.69-4-1.12-.22-3.4-.18-4.26,.1-.48,1.29-.59,5.2-.63,6.54l-.03,.95c-.17,7.02,.09,14.24,.35,21.23,.08,1.05,.58,3.51,.85,4.15Zm-.05-.08h0s0,0,0,0Z"/>
              </g>
              <g>
                <path class="cls-31" d="M240.8,103.36c-1.67-3.91-8.6-22.94-9.65-27.13-1.05-.27-2.19-.54-3.25-.4,.18,8.5,.09,17.14,1.14,25.51,.18,1.08,.26,2.29-.35,2.43-.44,.67-1.14,.4-1.67,.4-2.9,0-5.7-.27-8.6-.13-2.9,.13-5.7-.67-8.6-.4-1.4,.13-3.07,1.21-4.21-.13-.44,.13-.7-.4-.7-1.08,0-4.05,.09-8.1,.09-12.01-.17-19.03,.61-38.06,1.4-56.95,0-.13-.18-.67-.18-.81-.09-.4,.09-3.1,.09-3.64,.18-4.59,.35-9.31,.44-13.9,0-1.21,.09-7.02,.26-8.1,.09-.81,.53-1.62,1.05-1.89,1.67-.94,9.04,.4,10.8,.4,1.23,.13,8.51,.67,9.74,.67,3.77-.13,7.37-1.21,11.15-1.21,1.76,0,9.48,1.48,11.15,2.29,3.86,1.89,7.02,7.29,8.78,12.82,1.67,5.13,2.28,10.93,2.46,16.47,.09,4.18,.09,8.5-.53,12.55-.61,4.45-2.11,8.77-3.95,12.28-2.37,4.32-5.27,8.5-8.78,10.12,.61,1.35,4.3,10.12,4.91,11.47,.18,.27,.18,.94,.18,.94,.26,0,.44,.4,.53,.67,2.54,5.53,4.83,11.47,7.72,16.74,.26,.4,.26,.81,.09,1.35,.44,.67-.09,1.35-.61,1.35-2.11-.13-14.39-.13-16.5,0-.44,0-2.63,.13-3.07,.13-.44,.81-.97,.13-1.32-.81Zm-4.65-54.39c1.58-.54,3.07-2.43,3.86-4.72,1.14-3.24,1.84-10.12,.44-13.09-.61-1.35-2.63-3.37-3.69-3.51-.61-.13-4.3-.67-4.91-.67-.97,0-3.25-.13-3.86,.94-.35,.67-.61,3.78-.61,4.59-.26,2.56-.44,4.99-.53,7.56,0,1.21,.09,8.1,.09,9.18,0,.4,.35,.54,.53,.54,2.81,1.21,5.88,.27,8.69-.81Z"/>
                <path class="cls-2" d="M241.69,107.21c-.07,0-.14,0-.22,0-.98-.07-2.32-.62-3.16-2.85-1.19-2.81-5.07-13.32-7.61-20.72,.1,5.8,.28,11.71,.99,17.36,.48,2.93-.33,4.33-1.39,4.97-.8,.72-1.87,1.02-3.2,.89-1.28-.01-2.46-.05-3.64-.1-1.7-.06-3.3-.13-4.92-.05-1.56,.07-3.02-.08-4.43-.24-1.43-.15-2.77-.3-4.05-.18-.16,.02-.48,.1-.76,.18-1.07,.29-3.15,.85-4.94-.49-.25-.1-.49-.23-.71-.39-.91-.67-1.43-1.83-1.43-3.18,0-2.05,.02-4.1,.04-6.14,.02-1.98,.04-3.94,.04-5.88-.18-19.08,.62-38.21,1.39-56.72-.06-.22-.12-.45-.15-.71-.07-.51-.05-1.24,.03-3.04,.02-.42,.04-.78,.04-.94,.19-5.05,.35-9.51,.44-13.95,0-.02,.05-6.73,.29-8.4,.2-1.71,1.18-3.25,2.49-3.92,1.56-.88,4.22-.76,9.56-.14,.98,.12,2.09,.25,2.46,.25l.29,.02c1.25,.14,8.38,.66,9.45,.66,1.51-.06,3.11-.31,4.8-.57,2.03-.32,4.13-.64,6.35-.64,2.04,0,10.22,1.54,12.32,2.56,4.14,2.03,7.94,7.42,10.16,14.42,1.52,4.66,2.36,10.29,2.58,17.19,.08,4,.12,8.61-.56,13.04-.61,4.43-2.11,9.1-4.23,13.12-2.62,4.77-5.13,8-7.76,9.95,.45,1.05,.99,2.33,1.54,3.61,1.02,2.41,2.04,4.81,2.39,5.59,.14,.28,.24,.57,.31,.86,.18,.26,.34,.58,.48,.95,.82,1.78,1.61,3.61,2.4,5.44,1.61,3.7,3.27,7.52,5.14,10.94,.47,.77,.65,1.61,.55,2.52,.17,.8,.05,1.64-.36,2.38-.61,1.13-1.77,1.83-3.03,1.83h-.17c-1.96-.13-14.19-.13-16.16,0h-.17c-.21,0-.81,.04-1.4,.07-.2,.01-.41,.02-.6,.03-.45,.26-.96,.4-1.49,.4Zm-21.54-5.89c1.2,0,2.37,.04,3.52,.09,.89,.03,1.79,.07,2.69,.08-.85-6.95-.96-13.99-1.06-20.8-.02-1.6-.05-3.2-.08-4.8l-.05-2.41,2.39-.31c1.5-.19,2.92,.13,4.25,.47l1.54,.4,.39,1.55c.91,3.6,7.01,20.51,9.17,25.88,.19,0,.4-.02,.6-.03,.63-.03,1.27-.06,1.57-.07,1.85-.11,9.67-.13,14.07-.07-1.71-3.28-3.22-6.75-4.68-10.12-.67-1.53-1.33-3.06-2.01-4.57h-1.18v-2.66c-.38-.85-1.4-3.25-2.42-5.65-1.06-2.5-2.13-5.01-2.43-5.67l-1.1-2.42,2.42-1.12c2.36-1.09,4.83-4.03,7.55-8.98,1.81-3.45,3.11-7.5,3.64-11.36,.61-4.04,.58-8.38,.5-12.13-.2-6.36-.96-11.5-2.33-15.69-1.74-5.49-4.65-9.89-7.41-11.24-1.25-.6-8.57-2.02-9.97-2.02-1.8,0-3.61,.28-5.52,.58-1.77,.28-3.61,.56-5.53,.63h0c-1.43,0-8.38-.51-9.99-.67-.64-.01-1.51-.11-2.92-.28-1.48-.17-4.71-.56-6.13-.45-.12,.94-.22,5.98-.22,7.63-.09,4.54-.25,9.02-.44,14,0,.09-.02,.55-.04,1.08-.02,.55-.08,1.64-.07,2.06l.03,.13c.09,.33,.17,.67,.17,1.08-.78,18.66-1.58,37.84-1.4,56.93,0,1.98-.02,3.96-.04,5.96-.02,1.68-.04,3.36-.04,5.05,.12-.03,.23-.06,.33-.09,.49-.13,1.04-.28,1.65-.34,1.82-.17,3.5,.01,5.13,.19,1.27,.13,2.46,.26,3.61,.21,.62-.03,1.24-.04,1.85-.04Zm-11.31-69.25v.03s0-.02,0-.03Zm21.48,20.96c-1.2,0-2.4-.19-3.59-.66-1.41-.34-2.47-1.61-2.47-3.13,0-.52-.02-2.4-.04-4.33-.02-2.08-.05-4.22-.05-4.85,.09-2.62,.26-5.06,.53-7.76,.03-.86,.21-4.28,.91-5.63,1.38-2.44,4.48-2.41,5.97-2.39h.26c.91,0,4.52,.55,5.38,.72,2.42,.4,4.92,3.42,5.66,5.04,1.89,4,.8,11.83-.35,15.09-1.08,3.15-3.13,5.52-5.47,6.35-2.18,.84-4.46,1.54-6.76,1.54Zm-.71-5.41c1.54,.22,3.38-.3,5.59-1.15l.1-.03c.54-.18,1.57-1.25,2.19-3.06,1.06-3.01,1.52-9.02,.55-11.08-.29-.64-1.35-1.75-1.86-2.04-.59-.12-3.77-.58-4.36-.61h-.28c-.25,0-.79,0-1.21,.02-.13,.91-.26,2.3-.26,2.83v.27c-.28,2.6-.45,4.95-.53,7.38,0,.53,.02,2.64,.05,4.7,.01,1,.02,1.98,.03,2.77Z"/>
              </g>
            </g>
            <g>
              <path class="cls-31" d="M205.87,221c-2.19-.27-4.39-.13-6.58,0-.7,0-4.83,.27-5.53,.27s-3.86,0-4.56-.4c-1.05-.67-.09-2.97,.35-4.59,.7-2.02,3.51-14.58,4.04-16.74,1.49-5.94,3.07-11.74,4.74-17.68-2.02,0-4.04,.54-6.06,.67-.17,0-.35,.27-.53,.27-2.28,.13-4.48,0-6.67,.27-.35,0-.88,0-1.14-.4-.44,.4-.88,.13-1.14-.54-1.93-6.07-3.77-12.28-5.09-18.76-.61-2.83-4.21-20.38-4.83-23.21-.44-2.29-2.19-12.69-3.07-14.71-.17-.54-.26-.67-.09-1.21-.26-1.21,.61-1.62,1.4-1.89,1.23-.4,7.72-.13,9.04-.27,2.46,0,4.91-.4,7.37-.54,.53,0,1.67,.13,2.02,.81,1.14,2.7,1.67,5.94,2.19,8.91,2.46,13.5,4.74,27.26,8.6,39.95,1.67-5.13,2.98-10.53,4.56-15.66,.35-1.21,2.02-8.1,2.37-9.31,1.76-6.88,4.13-13.5,5.53-20.65,.09-.4,.61-2.43,.79-2.83,.18-.4,.61-.4,.88-.67,.7-.67,1.67-1.08,2.55-1.08,1.32,.13,2.63,.67,3.95,.67,1.32,.13,8.78-.13,10.01,0,.26,.13,.61,0,.79,.27,.18,.13,.26,.4,.44,.4,.7,.13,1.4,0,2.02-.13,.26,0,.88,.13,1.05,0,.61-.54,1.32,.4,1.05,1.35-2.28,8.1-4.56,16.06-6.85,24.02-3.69,12.96-6.93,26.18-10.09,39.41-2.54,10.39-5.09,20.78-7.28,31.45-.26,.94-.53,2.7-1.14,2.83-.79,.13-4.39-.27-5.09-.27Z"/>
              <path class="cls-2" d="M210.38,223.97c-.76,0-1.75-.07-3.18-.19-.6-.05-1.11-.1-1.34-.1l-.32-.02c-1.95-.24-3.96-.12-6.09,.02h-.16c-.33,0-1.47,.07-2.62,.14-1.27,.07-2.54,.14-2.91,.14-4.23,0-5.23-.38-5.9-.76-2.69-1.72-1.71-4.9-1.13-6.8,.09-.28,.17-.56,.24-.81l.05-.18c.47-1.36,2.23-8.97,3.17-13.05,.37-1.61,.66-2.87,.8-3.44,1.08-4.31,2.25-8.72,3.7-13.96-.52,.08-1.06,.15-1.61,.21-.31,.16-.72,.3-1.21,.33-.94,.05-1.87,.07-2.79,.08-1.29,.02-2.51,.03-3.68,.17l-.33,.02c-.56,0-1.07-.07-1.52-.21-.25,0-.5-.02-.75-.08-.66-.15-1.85-.66-2.51-2.36l-.06-.16c-1.86-5.86-3.78-12.23-5.16-19.04-.3-1.39-1.36-6.49-2.41-11.6-1.05-5.08-2.1-10.17-2.41-11.58-.09-.49-.22-1.19-.38-2.06-.48-2.67-1.94-10.78-2.53-12.15l-.14-.38c-.19-.58-.36-1.21-.2-2.07-.06-1.22,.34-3.25,3.25-4.25,1.1-.36,3.03-.39,6.87-.38,1.08,0,2.42,.01,2.76-.02h.27c1.34-.01,2.71-.15,4.16-.29,1.02-.1,2.04-.2,3.06-.26h.15c.76,0,3.31,.16,4.39,2.25l.09,.19c1.19,2.81,1.76,6.06,2.27,8.93l.92,5.09c1.56,8.66,3.16,17.53,5.24,26.03,.61-2.18,1.24-4.43,1.91-6.61,.16-.55,.65-2.53,1.14-4.52,.52-2.11,1.02-4.1,1.21-4.75,.66-2.59,1.44-5.25,2.19-7.82,1.2-4.08,2.44-8.3,3.28-12.6,.04-.2,.64-2.63,.96-3.38,.46-1.07,1.29-1.54,1.7-1.74,1.21-1.05,2.73-1.63,4.18-1.63h.27c.73,.09,1.42,.25,2.03,.39,.62,.15,1.2,.28,1.65,.28h.27c.51,.07,3.05,.03,4.73,0,3.07-.05,4.59-.06,5.3,.02l.6,.11c.53,.09,.99,.28,1.38,.55,.15-.03,.3-.06,.4-.08l.58-.06c.11,0,.24,0,.39,.02,.89-.31,1.9-.21,2.74,.32,1.4,.88,2.04,2.69,1.56,4.41-2.27,8.07-4.55,16-6.82,23.93-3.75,13.16-7.06,26.71-10.1,39.41-2.5,10.2-5.08,20.73-7.27,31.36l-.04,.18c-.05,.17-.09,.36-.14,.56-.35,1.47-.88,3.7-3,4.17-.33,.06-.7,.08-1.15,.08Zm-18.72-5.42c.52,.03,1.2,.04,2.09,.04,.33,0,1.47-.07,2.62-.13,1.17-.07,2.35-.13,2.81-.14,2.22-.14,4.51-.27,6.89,0,.34,.02,.92,.06,1.57,.11,.42,.03,1.07,.09,1.66,.13,0-.03,.01-.06,.02-.08,.06-.24,.11-.47,.17-.67,2.2-10.7,4.79-21.25,7.29-31.46,3.04-12.74,6.38-26.36,10.12-39.51,2.09-7.3,4.15-14.49,6.21-21.78-.4,.02-.83,0-1.28-.07-.46-.06-1-.24-1.51-.69-.88-.02-2.88,.01-4.27,.03-2.65,.04-4.37,.06-5.21,0-1.01-.02-1.93-.23-2.74-.42-.42-.1-.81-.19-1.17-.24-.16,.03-.41,.14-.6,.32-.14,.15-.29,.27-.44,.37-.17,.62-.41,1.52-.46,1.78-.88,4.49-2.15,8.83-3.39,13.03-.74,2.52-1.51,5.13-2.17,7.71-.19,.68-.69,2.66-1.18,4.64-.52,2.11-1.02,4.1-1.21,4.75-.7,2.28-1.36,4.63-1.99,6.9-.81,2.92-1.65,5.93-2.6,8.84l-2.33,7.16h1.29l-.95,3.4c-1.95,6.93-3.4,12.36-4.72,17.61-.13,.54-.42,1.78-.78,3.35-1.42,6.18-2.75,11.87-3.29,13.51-.08,.28-.17,.58-.26,.89-.05,.17-.12,.38-.18,.6Zm-7.17-39.9l1.1,1.68c1.16-.1,2.3-.11,3.41-.13,.65,0,1.31-.02,1.97-.04,.3-.15,.68-.28,1.14-.3,.74-.05,1.51-.17,2.33-.3,1.23-.19,2.51-.38,3.87-.38h1.65l-2.19-7.2c-3.47-11.41-5.7-23.76-7.85-35.7l-.92-5.12c-.42-2.39-.86-4.85-1.6-6.94-.85,.05-1.71,.14-2.56,.22-1.48,.15-3,.3-4.57,.3-.61,.05-1.59,.04-3.18,.04-1.3,0-3.51-.02-4.66,.06,.68,1.95,1.55,6.42,2.71,12.87,.15,.85,.27,1.53,.35,1.94,.29,1.36,1.35,6.46,2.41,11.57,1.05,5.08,2.1,10.17,2.41,11.58,1.13,5.58,2.64,10.88,4.18,15.84Zm28.19-58.57s-.09,.08-.13,.13c.04-.04,.09-.08,.13-.13Z"/>
            </g>
            <g>
              <path class="cls-31" d="M219.98,215.13c-.49-.74,.54-2.95,1.12-4.17,1.35-2.96,2.93-5.78,4.73-8.49,.74-.97,2.42-3.44,3.29-3.73,.58-.14,1.83,.87,2.29,1.12,.47,.42,3.63,2.49,4.17,2.79,.54,.3,3.79,1.5,4.39,1.68,.61,.34,4.42,2.16,5.1,2.38,.61,.34,1.04,1.2,.27,1.85-1.36,2.8-2.71,5.75-4.3,8.42-.53,.94-3.44,5.81-4.04,6.71-.4,.55-.99,.69-1.38,.31-.72,.22-2.47-.61-3.08-.79-2.21-1.08-11.03-6-12.57-8.09Zm17.26-24.99c-.24-.29-1.26-1.17-1.5-1.46-.16-.24-.13-.84,.13-1.32-.02-.32,.03-.6,.23-.95,5.7-10.58,11.78-20.94,17.71-31.39,1.64-2.95,10.43-19.06,11.92-22.09-.21-.89,.47-1.75,1.22-1.64,.15,.09,.77,.43,.92,.51,2.9,1.46,5.73,2.88,8.69,4.23,1.14,.48,6.98,2.81,7.99,3.69,.32,.33,.44,1.02,.04,1.72-1.26,2.08-2.45,4.04-3.64,6.16-.2,.35-.56,.46-.61,.74,.02,.32-.18,.68-.31,.91-6.76,12.3-14.21,24.22-21.67,35.97-2.06,3.33-4.28,6.42-6.11,9.88-.32,.75-.87,1.37-1.33,1.11-.14,.08-.65,.26-.8,.17-4.79-.97-9.14-3.24-12.89-6.26Z"/>
              <path class="cls-2" d="M236.14,226.9c-.38,0-.75-.06-1.11-.19-.9-.06-1.83-.39-2.84-.77-.17-.07-.32-.12-.42-.16l-.4-.16c-.11-.05-11.24-5.77-13.55-8.91l-.07-.1c-1.24-1.86-.27-4.28,.93-6.8,1.38-3.03,3.05-6.02,4.93-8.83l.52-.7c1.58-2.15,2.73-3.6,4.14-4.08l.22-.06c1.59-.38,2.96,.54,3.96,1.22,.11,.07,.2,.14,.27,.18l.46,.32c.43,.35,3.23,2.19,3.7,2.46,.46,.23,3.32,1.29,3.85,1.45l.54,.23c.57,.32,4.06,1.97,4.65,2.18l.45,.2c1.15,.64,1.91,1.78,2.04,3.03,.1,.98-.21,1.93-.84,2.69l-.59,1.22c-1.13,2.34-2.29,4.77-3.64,7.04-.51,.93-3.46,5.85-4.12,6.83-.75,1.02-1.74,1.6-2.79,1.7-.1,0-.2,.01-.3,.01Zm-2.57-6.16c.15,.05,.34,.12,.54,.2,.26,.1,.8,.3,1.13,.39l.12-.04c.98-1.59,2.92-4.84,3.35-5.61,1.27-2.13,2.38-4.44,3.45-6.68l.25-.52c-1.28-.58-2.82-1.33-3.49-1.68-1.02-.34-3.91-1.4-4.65-1.81-.48-.27-3.37-2.13-4.4-2.93-.08-.05-.16-.1-.25-.16-.44,.55-.93,1.21-1.18,1.55-.16,.22-.3,.41-.43,.58-1.7,2.55-3.21,5.26-4.48,8.04-.46,.97-.72,1.6-.86,2,2.01,1.7,8.07,5.27,10.9,6.67Zm16.67-21.64c-.26,0-.52-.03-.79-.1-4.91-1.02-9.58-3.3-13.89-6.77l-.35-.34c-.12-.13-.33-.32-.54-.51-.42-.39-.82-.78-.98-.97l-.17-.23c-.69-1.03-.66-2.34-.3-3.39,.06-.57,.24-1.13,.55-1.67,4.07-7.56,8.42-15.15,12.63-22.5,1.7-2.97,3.4-5.93,5.09-8.91,1.71-3.07,9.47-17.31,11.54-21.35,.05-.93,.42-1.82,1.06-2.52,.84-.92,2.06-1.36,3.24-1.19l.49,.07,1.34,.75c2.94,1.48,5.68,2.85,8.51,4.14l.63,.26c5.02,2.07,7.12,3.07,8.01,3.84l.19,.18c1.2,1.25,1.38,3.21,.45,4.88l-.14,.24c-1.22,2-2.37,3.9-3.5,5.93-.15,.27-.31,.48-.47,.66-.15,.45-.34,.79-.45,.99-6.95,12.65-14.56,24.77-21.75,36.1-.69,1.12-1.42,2.23-2.14,3.34-1.38,2.12-2.68,4.11-3.82,6.27-.35,.79-1.11,2.04-2.48,2.51-.32,.11-.64,.17-.96,.17-.29,.08-.63,.13-.98,.13Zm-.52-5.27s-.05,.02-.06,.03l.06-.03Zm-10.66-5.65c3.44,2.74,7.12,4.57,10.93,5.46,1.24-2.31,2.64-4.46,3.99-6.54,.7-1.08,1.4-2.16,2.09-3.27,7.16-11.29,14.72-23.33,21.6-35.85l.03-.14c.18-.92,.73-1.49,1.04-1.77,.95-1.7,1.91-3.29,2.89-4.92-.96-.46-2.61-1.19-5.39-2.33l-.74-.31c-2.62-1.19-5.08-2.4-7.72-3.73-2.19,4.27-10.19,18.94-11.66,21.56-1.7,3-3.4,5.97-5.11,8.94-4.15,7.25-8.45,14.75-12.48,22.21v.21c.21,.18,.37,.34,.51,.48Zm39.55-41.87h0s0,0,0,0Z"/>
            </g>
            <g>
              <path class="cls-31" d="M299.87,110.65c-9.96-.16-18.72-3.4-26.07-10.23-5.97-5.55-9.59-12.37-11.01-20.39-1.02-5.74-.05-11.22,2-16.59,3.35-8.77,7.89-16.91,12.76-24.9,5.45-8.93,11.37-17.54,17.53-26,1.44-1.98,2.94-3.92,4.37-5.9,.37-.51,.54-.52,.93,0,7.66,10.15,14.93,20.56,21.6,31.39,3.99,6.47,7.72,13.07,10.84,20.01,1.87,4.16,3.53,8.41,4.31,12.94,.62,3.62,.32,7.21-.44,10.77-1.55,7.26-5.08,13.44-10.46,18.52-6.01,5.67-13.17,9-21.37,10.06-1.66,.22-3.32,.33-5,.32Z"/>
              <path class="cls-2" d="M300.08,113.33c-.08,0-.15,0-.23,0h-.03c-10.86-.18-20.23-3.86-27.85-10.95-6.31-5.87-10.29-13.23-11.82-21.88-1.01-5.71-.32-11.6,2.13-18.02,3.65-9.56,8.61-18.17,12.98-25.34,4.94-8.11,10.55-16.43,17.65-26.18,.71-.98,1.44-1.95,2.16-2.92,.74-.99,1.48-1.98,2.21-2.98,.71-.98,1.59-1.48,2.6-1.49,1.03,.01,1.9,.48,2.64,1.45,8.32,11.03,15.43,21.36,21.74,31.6,4.72,7.65,8.21,14.11,11,20.32,1.74,3.88,3.64,8.52,4.51,13.58,.62,3.59,.47,7.45-.46,11.78-1.65,7.72-5.43,14.42-11.25,19.91-6.35,6-14.05,9.62-22.86,10.77-1.78,.23-3.46,.35-5.13,.35Zm-.18-5.36c1.49,.02,3.01-.09,4.62-.3,7.67-1,14.36-4.15,19.87-9.36,5.01-4.73,8.27-10.49,9.68-17.13,.78-3.66,.92-6.85,.42-9.76-.77-4.47-2.51-8.72-4.12-12.29-2.69-5.99-6.08-12.25-10.68-19.7-5.79-9.39-12.28-18.88-19.78-28.93-.19,.25-.38,.5-.57,.76-.71,.95-1.42,1.9-2.12,2.86-7.01,9.63-12.54,17.84-17.41,25.82-4.24,6.96-9.05,15.31-12.55,24.46-2.09,5.48-2.7,10.44-1.86,15.17,1.35,7.58,4.68,13.76,10.2,18.89,6.71,6.24,14.65,9.35,24.28,9.51Z"/>
            </g>
            <g>
              <g>
                <path class="cls-31" d="M4.6,211.47c-.35,0-.79-.27-.88-.81-.09-.27-.44-.4-.44-.81-.79-3.78-.61-20.51-.53-24.56,.09-9.04,0-18.22,.09-27.26,.09-4.86,1.58-31.45,2.02-36.31,.09-1.48,.7-6.61,1.32-7.83,.53-1.08,1.58-1.35,2.37-1.62,3.33-.54,6.58-.81,9.92-.81,4.74,0,9.48,.13,14.22,.67,2.9,.27,5.79,.94,8.6,2.29,3.6,2.02,7.11,5.4,9.65,9.85,1.14,2.02,2.02,4.18,2.72,6.61,2.19,7.29,2.63,16.47,1.05,24.16-.97,4.32-2.63,8.23-4.74,11.2-2.81,4.05-6.32,7.02-9.92,9.18-.18,.13-.44,0-.61,.27-.18,.13-.35,.27-.53,.4-4.65,2.56-9.65,4.05-14.57,5.26-.18,7.02,.09,14.17,.44,21.32,.18,2.29,.09,4.72,.18,7.02,.09,1.21-.7,1.75-1.23,.94-2.11,.27-14.57,.67-16.68,.81-.88,0-1.67-.13-2.46,0Zm23.17-55.74c2.54-.4,5.27-1.35,7.37-3.64,2.54-2.97,3.51-8.91,1.84-13.09-1.58-3.91-4.83-6.21-7.81-6.61-1.49-.13-3.42,0-4.48,1.62-1.75,3.1-1.93,15.12-2.11,19.16,0,.4,.44,1.08,.61,1.35,1.14,1.62,2.98,1.35,4.56,1.21Z"/>
                <path class="cls-2" d="M7.15,214.14h-.09c-.35,0-.69-.02-1.02-.03-.41-.02-.77-.04-.99,0l-.45,.04c-1.48,0-2.78-.92-3.31-2.28-.26-.35-.59-.9-.67-1.66-.93-5.03-.55-24.78-.54-24.98,.04-4.48,.04-9.03,.04-13.57s0-9.13,.04-13.66c.09-4.78,1.57-31.39,2.03-36.52h0s.53-6.69,1.59-8.8c.96-1.97,2.75-2.56,3.72-2.89l.62-.17c3.51-.57,6.89-.84,10.35-.84,5.84,0,10.32,.21,14.52,.69,3.46,.32,6.57,1.16,9.46,2.54l.15,.08c4.24,2.39,8.03,6.24,10.67,10.86,1.23,2.18,2.2,4.53,2.97,7.2,2.35,7.81,2.77,17.33,1.1,25.44-1.05,4.71-2.84,8.91-5.18,12.21-2.73,3.94-6.32,7.27-10.66,9.89-.24,.15-.47,.26-.67,.33l-.62,.44c-4.38,2.42-9.04,3.91-13.22,5.01-.09,6.47,.17,12.98,.48,19.1,.11,1.39,.12,2.88,.13,4.32,0,.92,.01,1.84,.05,2.73,.13,1.81-.81,3.43-2.35,3.95-.79,.26-1.61,.2-2.33-.14-2.07,.15-6.02,.32-10.83,.51-2.28,.09-4.19,.17-4.9,.21h-.08Zm15.15-4.25s0,.01,0,.02c0,0,0-.01,0-.02Zm-16.48-1.15c.18,0,.35,.02,.52,.02,.21,.01,.43,.02,.65,.03,.79-.05,2.69-.12,4.93-.21,3.32-.13,8.03-.32,10.33-.48,0-.4,0-.79-.01-1.18,0-1.41-.02-2.74-.12-4.02-.34-6.94-.63-14.3-.45-21.6l.05-2.04,1.98-.49c4.28-1.06,9.24-2.47,13.74-4.91l.16-.12c.32-.32,.77-.63,1.39-.79,3.57-2.2,6.52-4.96,8.78-8.22,1.92-2.71,3.45-6.34,4.33-10.26,1.46-7.12,1.08-15.88-1-22.8-.66-2.29-1.47-4.27-2.49-6.07-2.14-3.75-5.18-6.87-8.56-8.79-2.28-1.08-4.77-1.74-7.61-2.01-4.05-.46-8.34-.66-13.97-.66-3.09,0-6.13,.24-9.28,.74-.23,.08-.57,.19-.67,.26-.29,.76-.88,4.99-.98,6.73-.45,4.99-1.93,31.65-2.01,36.19-.04,4.49-.04,9.04-.04,13.58s0,9.13-.04,13.66c-.14,6.32-.16,19.51,.38,23.43Zm20.39-50.23c-1.65,0-3.72-.38-5.18-2.45-.6-.92-1.1-1.84-1.1-2.89,.02-.63,.05-1.27,.07-2,.33-9.39,.84-15.75,2.38-18.48l.09-.14c.97-1.49,2.96-3.19,6.96-2.83,4.36,.59,8.26,3.83,10.05,8.28,2.01,5.04,1,11.99-2.29,15.84-2.27,2.48-5.19,3.94-8.99,4.55l-.46,.05c-.43,.04-.96,.09-1.54,.09Zm-.91-5.71c.04,.07,.1,.16,.16,.26,.11,.14,.65,.14,1.81,.03l.18-.02c2.51-.41,4.38-1.33,5.73-2.8,1.72-2.01,2.69-6.88,1.33-10.29-1.32-3.26-3.89-4.71-5.68-4.95-.6-.05-1.5-.04-1.83,.37-1.17,2.33-1.52,12.55-1.64,15.94-.02,.53-.04,1.02-.05,1.44Z"/>
              </g>
              <g>
                <path class="cls-31" d="M84.64,209.31c-5.18-.27-10.36,.94-15.53,.94-1.05,0-4.74,.13-5.7-.81-.26-.27-.53-.67-.61-1.21,0-.27-.09-1.35-.18-1.48-.18-.27-.18-.54-.18-.94,0-2.29-.09-4.59-.18-6.75-.35-6.75-.26-13.5-.35-20.11-.09-7.69-.09-15.39,0-23.08,.09-6.48,.53-36.98,1.58-43.19,.18-.81,.88-1.21,1.4-1.21,1.76,0,12.37-.27,14.22-.13,.53,0,2.28,.13,2.72,.67,.61,.67,.35,3.1,.35,4.18-.18,4.45-.61,31.45-.7,35.77-.09,6.21-.35,12.28-.44,18.35,0,2.56-.09,9.18,1.14,10.93,.79,.94,3.77,1.21,4.74,1.35,7.64,.54,15.27,.27,22.91-.27,.44-.13,.88,.54,.79,1.21,0,.13,.17,.81,.17,.94-.09,3.24-.53,20.38-.35,23.62,0,.54-.09,1.08-.35,1.35,.09,1.21-.88,1.35-1.58,1.35-1.67,.27-3.25,.54-4.83,.67-6.32,.54-12.64-1.89-19.05-2.16Z"/>
                <path class="cls-2" d="M101.8,214.22c-3.27,0-6.46-.59-9.56-1.17-2.67-.5-5.19-.96-7.71-1.07h-.03c-2.63-.14-5.3,.14-8.12,.44-2.36,.25-4.8,.51-7.27,.51h-.34c-3.44,.04-5.85-.22-7.24-1.57-.76-.78-1.22-1.69-1.39-2.7l-.03-.43c0-.11-.03-.39-.05-.6-.3-.71-.3-1.37-.3-1.83,0-2.21-.08-4.4-.17-6.64-.25-4.86-.28-9.76-.31-14.51-.01-1.9-.02-3.79-.05-5.67-.09-7.68-.09-15.47,0-23.14,.15-11.13,.61-37.64,1.62-43.61,.44-2.05,2.13-3.44,4.04-3.44,.53,0,1.86-.02,3.52-.06,5.06-.09,9.38-.16,10.79-.08,1.07,0,3.45,.2,4.65,1.6,1.18,1.35,1.1,3.41,1.03,5.23-.01,.27-.02,.51-.02,.7-.13,3.38-.41,19.22-.57,28.68-.06,3.38-.11,6.02-.13,7.14-.04,3.14-.13,6.26-.22,9.37-.09,3-.17,5.99-.22,8.97v.45c-.01,5.42,.27,7.7,.55,8.61,.48,.16,1.35,.32,2.59,.47l.33,.04c6.41,.45,13.3,.37,22.29-.26,.88-.13,1.79,.12,2.5,.72,.85,.72,1.33,1.83,1.33,2.99l.02,.07c.08,.38,.15,.68,.15,1.04-.19,6.99-.5,20.79-.35,23.47v.15c0,.82-.13,1.53-.39,2.13-.14,.93-.56,1.58-.94,1.99-.73,.78-1.75,1.2-3.03,1.25l-.29,.05c-1.55,.25-3.02,.49-4.55,.62-.71,.06-1.41,.09-2.11,.09Zm-17.04-7.59c2.89,.12,5.72,.65,8.45,1.16,3.58,.66,6.96,1.29,10.24,1.01,1.3-.11,2.65-.33,4.07-.56l.24-.24c-.15-3.72,.24-18.99,.34-22.88-8.45,.54-15.1,.58-21.37,.14l-.54-.07c-2.37-.3-4.79-.72-6.06-2.24l-.14-.18c-1.37-1.96-1.64-5.88-1.63-11.99v-.48c.04-3.05,.13-6.06,.22-9.09,.09-3.08,.18-6.17,.22-9.3,.02-1.13,.07-3.77,.13-7.14,.17-9.49,.44-25.36,.58-28.69,0-.15,0-.46,.02-.81,.01-.31,.03-.8,.03-1.23-.17-.02-.33-.03-.45-.03h-.2c-1.16-.09-6.95,.01-10.4,.08-.99,.02-1.86,.03-2.53,.04-.87,7.24-1.28,33.57-1.39,41.77-.09,7.63-.09,15.38,0,23.01,.02,1.89,.04,3.79,.05,5.71,.03,4.69,.05,9.53,.3,14.29,.1,2.32,.18,4.58,.18,6.89h0c.19,.52,.28,1.11,.32,1.63,.51,.09,1.47,.17,3.28,.15h.39c2.19,0,4.39-.23,6.71-.48,2.9-.31,5.9-.62,8.95-.46Zm-19.91-1.35s.03,.05,.05,.07c-.01-.02-.03-.05-.05-.07Z"/>
              </g>
            </g>
            <g>
              <g class="cls-23">
                <path class="cls-29" d="M9.19,103.23c-.97-.13-1.93-.54-2.81-.54-.26,0-1.4,.13-1.58,.13-.44-.13-.7-1.08-.7-1.75,.18-12.01,.97-24.02,.97-36.04,0-7.29-.26-14.44-.18-21.73,.09-12.15,.44-24.56-.35-36.71,0-.81,.09-1.89,.61-2.02,1.58-.54,3.16-.4,4.74-.4,2.37,0,10.97-1.21,13.08,.54,.26,.27,.35,.94,.35,1.35,.09,.4,.09,2.16,.09,2.7,.09,4.32,.26,31.18,.26,35.36,5.53-.13,10.97,.81,16.5,0,0-4.45,.18-31.58,.18-35.9,0-.54,0-2.29,.17-2.83-.09-1.21,.97-1.48,1.76-1.75,2.63-.67,5.35-.4,7.99-.27,2.46,.13,4.91,.13,7.28,.13,.88,0,1.76,.27,2.63,.4,.97,.13,.7,2.16,.61,3.64-.26,3.51-.26,7.15-.35,10.66-.09,9.18,.18,18.35,.18,27.4,0,5.26-.18,10.39-.26,15.52-.09,13.23,.88,26.32,1.05,39.41,0,.67-.26,1.48-.7,1.62-.18,.13-1.05,0-1.23,0-1.14-.27-2.37,.4-3.51,.4-4.48,.13-8.95-.4-13.34-.94-.7-.13-1.4-.13-2.02-.13s-.97-.94-.7-1.62c.09-.13-.09-.67-.09-.81,.26-6.61,.44-13.23,.44-19.84,0-1.48-.09-10.26,0-11.74-3.42,.54-6.93,.4-10.36,.27-2.11-.13-4.21-.54-6.32,0v12.15c0,6.61,.18,13.09,.35,19.7,0,.13-.09,.67-.09,.81,.26,.67-.09,1.62-.61,1.62-2.46,.13-4.91,.67-7.37,.94-2.19,.13-4.48,.27-6.67,.27Z"/>
                <path class="cls-38" d="M102.84,102.69c-2.19-.27-4.39-.13-6.58,0-.7,0-4.83,.27-5.53,.27s-3.86,0-4.56-.4c-1.05-.67-.09-2.97,.35-4.59,.7-2.02,3.51-14.58,4.04-16.74,1.49-5.94,3.07-11.74,4.74-17.68-2.02,0-4.04,.54-6.05,.67-.18,0-.35,.27-.53,.27-2.28,.13-4.48,0-6.67,.27-.35,0-.88,0-1.14-.4-.44,.4-.88,.13-1.14-.54-1.93-6.07-3.77-12.28-5.09-18.76-.61-2.83-4.21-20.38-4.83-23.21-.44-2.29-2.19-12.69-3.07-14.71-.18-.54-.26-.67-.09-1.21-.26-1.21,.61-1.62,1.4-1.89,1.23-.4,7.72-.13,9.04-.27,2.46,0,4.91-.4,7.37-.54,.53,0,1.67,.13,2.02,.81,1.14,2.7,1.67,5.94,2.19,8.91,2.46,13.5,4.74,27.26,8.6,39.95,1.67-5.13,2.98-10.53,4.56-15.66,.35-1.21,2.02-8.1,2.37-9.31,1.76-6.88,4.13-13.5,5.53-20.65,.09-.4,.61-2.43,.79-2.83,.18-.4,.61-.4,.88-.67,.7-.67,1.67-1.08,2.55-1.08,1.32,.13,2.63,.67,3.95,.67,1.32,.13,8.78-.13,10.01,0,.26,.13,.61,0,.79,.27,.18,.13,.26,.4,.44,.4,.7,.13,1.4,0,2.02-.13,.26,0,.88,.13,1.05,0,.61-.54,1.32,.4,1.05,1.35-2.28,8.1-4.56,16.06-6.85,24.02-3.69,12.96-6.93,26.18-10.09,39.41-2.54,10.39-5.09,20.78-7.28,31.45-.26,.94-.53,2.7-1.14,2.83-.79,.13-4.39-.27-5.09-.27Z"/>
                <path class="cls-36" d="M160.93,104.98c-2.28,0-14.39-.67-16.76-1.21-.97-.27-2.02-.94-2.81-2.02-.97-1.35-1.4-3.37-1.67-5.26-.35-3.24-.53-6.61-.61-9.85-.09-2.43-.53-17.14-.53-19.57-.18-7.29-.35-47.78-.18-55.06,0-.13-.09-1.21-.09-1.35,.09-.67,.18-2.7,.53-3.24,.26-1.08,.79-2.16,1.4-2.7,.88-.81,1.84-1.35,2.81-1.48,4.48-.67,8.86,.4,13.34,.67,2.98,.13,5.88-.13,8.86-.27,7.72,0,15.45,3.91,21.59,11.2,5.35,6.34,9.04,16.6,10.44,26.86,1.67,12.01,.44,25.51-3.25,36.58-.26,.67-.88,2.97-1.32,3.24-.18,.13-.26,.94-.35,1.08-3.16,7.56-7.72,14.31-12.99,17.95-5.7,3.91-12.2,4.59-18.43,4.45Zm6.49-32.8c2.37-.67,4.74-1.89,6.67-4.05,1.23-1.21,2.28-3.1,2.98-5.13,1.23-3.51,1.58-7.83,1.49-11.74-.18-4.18-.97-8.77-2.81-11.88-2.02-3.51-5.53-4.72-8.51-5.26-1.4-.27-5.53-.4-6.67,.81-1.32,1.21-1.32,7.02-1.4,9.31-.17,7.15,.09,14.31,.35,21.46,.09,1.21,.7,4.59,1.23,5.4,1.14,2.02,4.91,1.62,6.67,1.08Z"/>
                <path class="cls-39" d="M239.8,103.36c-1.67-3.91-8.6-22.94-9.65-27.13-1.05-.27-2.19-.54-3.25-.4,.18,8.5,.09,17.14,1.14,25.51,.18,1.08,.26,2.29-.35,2.43-.44,.67-1.14,.4-1.67,.4-2.9,0-5.7-.27-8.6-.13-2.9,.13-5.7-.67-8.6-.4-1.4,.13-3.07,1.21-4.21-.13-.44,.13-.7-.4-.7-1.08,0-4.05,.09-8.1,.09-12.01-.17-19.03,.61-38.06,1.4-56.95,0-.13-.18-.67-.18-.81-.09-.4,.09-3.1,.09-3.64,.18-4.59,.35-9.31,.44-13.9,0-1.21,.09-7.02,.26-8.1,.09-.81,.53-1.62,1.05-1.89,1.67-.94,9.04,.4,10.8,.4,1.23,.13,8.51,.67,9.74,.67,3.77-.13,7.37-1.21,11.15-1.21,1.76,0,9.48,1.48,11.15,2.29,3.86,1.89,7.02,7.29,8.78,12.82,1.67,5.13,2.28,10.93,2.46,16.47,.09,4.18,.09,8.5-.53,12.55-.61,4.45-2.11,8.77-3.95,12.28-2.37,4.32-5.27,8.5-8.78,10.12,.61,1.35,4.3,10.12,4.91,11.47,.18,.27,.18,.94,.18,.94,.26,0,.44,.4,.53,.67,2.54,5.53,4.83,11.47,7.72,16.74,.26,.4,.26,.81,.09,1.35,.44,.67-.09,1.35-.61,1.35-2.11-.13-14.39-.13-16.5,0-.44,0-2.63,.13-3.07,.13-.44,.81-.97,.13-1.32-.81Zm-4.65-54.39c1.58-.54,3.07-2.43,3.86-4.72,1.14-3.24,1.84-10.12,.44-13.09-.61-1.35-2.63-3.37-3.69-3.51-.61-.13-4.3-.67-4.91-.67-.97,0-3.25-.13-3.86,.94-.35,.67-.61,3.78-.61,4.59-.26,2.56-.44,4.99-.53,7.56,0,1.21,.09,8.1,.09,9.18,0,.4,.35,.54,.53,.54,2.81,1.21,5.88,.27,8.69-.81Z"/>
              </g>
              <g class="cls-23">
                <path class="cls-32" d="M205.87,221c-2.19-.27-4.39-.13-6.58,0-.7,0-4.83,.27-5.53,.27s-3.86,0-4.56-.4c-1.05-.67-.09-2.97,.35-4.59,.7-2.02,3.51-14.58,4.04-16.74,1.49-5.94,3.07-11.74,4.74-17.68-2.02,0-4.04,.54-6.06,.67-.17,0-.35,.27-.53,.27-2.28,.13-4.48,0-6.67,.27-.35,0-.88,0-1.14-.4-.44,.4-.88,.13-1.14-.54-1.93-6.07-3.77-12.28-5.09-18.76-.61-2.83-4.21-20.38-4.83-23.21-.44-2.29-2.19-12.69-3.07-14.71-.17-.54-.26-.67-.09-1.21-.26-1.21,.61-1.62,1.4-1.89,1.23-.4,7.72-.13,9.04-.27,2.46,0,4.91-.4,7.37-.54,.53,0,1.67,.13,2.02,.81,1.14,2.7,1.67,5.94,2.19,8.91,2.46,13.5,4.74,27.26,8.6,39.95,1.67-5.13,2.98-10.53,4.56-15.66,.35-1.21,2.02-8.1,2.37-9.31,1.76-6.88,4.13-13.5,5.53-20.65,.09-.4,.61-2.43,.79-2.83,.18-.4,.61-.4,.88-.67,.7-.67,1.67-1.08,2.55-1.08,1.32,.13,2.63,.67,3.95,.67,1.32,.13,8.78-.13,10.01,0,.26,.13,.61,0,.79,.27,.18,.13,.26,.4,.44,.4,.7,.13,1.4,0,2.02-.13,.26,0,.88,.13,1.05,0,.61-.54,1.32,.4,1.05,1.35-2.28,8.1-4.56,16.06-6.85,24.02-3.69,12.96-6.93,26.18-10.09,39.41-2.54,10.39-5.09,20.78-7.28,31.45-.26,.94-.53,2.7-1.14,2.83-.79,.13-4.39-.27-5.09-.27Z"/>
              </g>
              <g class="cls-23">
                <path class="cls-30" d="M219.98,215.13c-.49-.74,.54-2.95,1.12-4.17,1.35-2.96,2.93-5.78,4.73-8.49,.74-.97,2.42-3.44,3.29-3.73,.58-.14,1.83,.87,2.29,1.12,.47,.42,3.63,2.49,4.17,2.79,.54,.3,3.79,1.5,4.39,1.68,.61,.34,4.42,2.16,5.1,2.38,.61,.34,1.04,1.2,.27,1.85-1.36,2.8-2.71,5.75-4.3,8.42-.53,.94-3.44,5.81-4.04,6.71-.4,.55-.99,.69-1.38,.31-.72,.22-2.47-.61-3.08-.79-2.21-1.08-11.03-6-12.57-8.09Zm17.26-24.99c-.24-.29-1.26-1.17-1.5-1.46-.16-.24-.13-.84,.13-1.32-.02-.32,.03-.6,.23-.95,5.7-10.58,11.78-20.94,17.71-31.39,1.64-2.95,10.43-19.06,11.92-22.09-.21-.89,.47-1.75,1.22-1.64,.15,.09,.77,.43,.92,.51,2.9,1.46,5.73,2.88,8.69,4.23,1.14,.48,6.98,2.81,7.99,3.69,.32,.33,.44,1.02,.04,1.72-1.26,2.08-2.45,4.04-3.64,6.16-.2,.35-.56,.46-.61,.74,.02,.32-.18,.68-.31,.91-6.76,12.3-14.21,24.22-21.67,35.97-2.06,3.33-4.28,6.42-6.11,9.88-.32,.75-.87,1.37-1.33,1.11-.14,.08-.65,.26-.8,.17-4.79-.97-9.14-3.24-12.89-6.26Z"/>
              </g>
              <ellipse class="cls-7" cx="299.61" cy="74.36" rx="31.82" ry="31.32"/>
              <path class="cls-21" d="M306.57,23.16c8.53,16.52,8.17,28.07,5.97,35.79-4.27,14.98-17.74,23.46-14.91,35.79,.01,.05,.02,.09,.03,.14,1.58,6.63,8.4,10.59,15.03,9.03,1.23-.29,2.52-.68,3.83-1.21,.39-.16,.78-.32,1.16-.49,11.24-5.13,17.12-17.71,14.42-29.77-1.72-7.69-4.63-16.81-9.61-26.41-5.11-9.84-10.96-17.4-15.91-22.87Z"/>
              <path class="cls-20" d="M281.14,95.08c-2.63,1.49-6.73-.8-9.16-5.1-2.43-4.3-2.27-9,.36-10.48,2.63-1.49,6.73,.8,9.16,5.1,2.43,4.3,2.27,9-.36,10.48Z"/>
            </g>
            <g>
              <path class="cls-3" d="M292.65,20.18l7.27-10.36c3.19,4.45,6.42,9.22,9.63,14.34,4.62,7.36,8.6,14.47,12.05,21.21-3.29-5.22-7.64-12.02-13.04-20.22-2.65-4.03-5.12-7.66-8.95-7.95-2.98-.23-5.5,1.64-6.96,2.98Z"/>
              <path class="cls-3" d="M325.46,53.98c1.65,2.46,10.71,16.43,5.97,31.82-.76,2.46-2.59,8.13-7.95,12.93-7.21,6.44-15.97,6.99-19.95,6.89-1.04-.03-1.91-.85-1.92-1.9,0,0,0-.02,0-.02-.03-8.23,15.09-11.17,21.87-19.89,3.73-4.79,6.52-13.33,1.99-29.83Z"/>
              <ellipse class="cls-3" cx="322.97" cy="49.01" rx="1.49" ry="1.99" transform="translate(8.29 136.7) rotate(-24.2)"/>
              <path class="cls-4" d="M284.7,38.07c-2.19-1.03-9.19,7.07-12.93,16.9-1.87,4.92-2.69,9.67-1.99,9.94,.76,.3,1.83-5.3,6.96-8.95,3.08-2.19,4.59-1.52,11.93-4.97,6.08-2.85,6.02-3.77,5.97-3.98-.3-1.11-5.31,.63-7.95-1.99-2.44-2.42-.58-6.29-1.99-6.96Z"/>
              <path class="cls-3" d="M148.28,141.55c-1.47-1.2-3.39,.79-2.14,2.22,.81,.93,1.59,1.82,2.34,2.67,11.67,13.35,13.54,15.8,13.92,19.89,.76,8.31-5.38,15.36-11.93,22.87-5.47,6.27-11.03,10.41-14.91,12.93,11.65-8.18,23.3-16.36,34.95-24.54,5.91-4.15,6.23-12.8,.63-17.37l-22.86-18.66Z"/>
              <path class="cls-3" d="M116.88,121c-1.4-.99-3.3-.65-4.19,.6-.97,1.35-.55,3.46,1.09,4.37,4.65,1.81,9.62,3.97,14.82,6.56,1.37,.68,2.72,1.37,4.02,2.07,1.45,.77,2.75-1.23,1.47-2.25-2.02-1.6-4.18-3.21-6.48-4.79-3.72-2.56-7.32-4.72-10.72-6.56Z"/>
              <circle class="cls-3" cx="140.03" cy="138" r="1.49"/>
            </g>
            <g>
              <g class="cls-23">
                <path class="cls-25" d="M4.6,211.47c-.35,0-.79-.27-.88-.81-.09-.27-.44-.4-.44-.81-.79-3.78-.61-20.51-.53-24.56,.09-9.04,0-18.22,.09-27.26,.09-4.86,1.58-31.45,2.02-36.31,.09-1.48,.7-6.61,1.32-7.83,.53-1.08,1.58-1.35,2.37-1.62,3.33-.54,6.58-.81,9.92-.81,4.74,0,9.48,.13,14.22,.67,2.9,.27,5.79,.94,8.6,2.29,3.6,2.02,7.11,5.4,9.65,9.85,1.14,2.02,2.02,4.18,2.72,6.61,2.19,7.29,2.63,16.47,1.05,24.16-.97,4.32-2.63,8.23-4.74,11.2-2.81,4.05-6.32,7.02-9.92,9.18-.18,.13-.44,0-.61,.27-.18,.13-.35,.27-.53,.4-4.65,2.56-9.65,4.05-14.57,5.26-.18,7.02,.09,14.17,.44,21.32,.18,2.29,.09,4.72,.18,7.02,.09,1.21-.7,1.75-1.23,.94-2.11,.27-14.57,.67-16.68,.81-.88,0-1.67-.13-2.46,0Zm23.17-55.74c2.54-.4,5.27-1.35,7.37-3.64,2.54-2.97,3.51-8.91,1.84-13.09-1.58-3.91-4.83-6.21-7.81-6.61-1.49-.13-3.42,0-4.48,1.62-1.75,3.1-1.93,15.12-2.11,19.16,0,.4,.44,1.08,.61,1.35,1.14,1.62,2.98,1.35,4.56,1.21Z"/>
                <path class="cls-34" d="M84.64,209.31c-5.18-.27-10.36,.94-15.53,.94-1.05,0-4.74,.13-5.7-.81-.26-.27-.53-.67-.61-1.21,0-.27-.09-1.35-.18-1.48-.18-.27-.18-.54-.18-.94,0-2.29-.09-4.59-.18-6.75-.35-6.75-.26-13.5-.35-20.11-.09-7.69-.09-15.39,0-23.08,.09-6.48,.53-36.98,1.58-43.19,.18-.81,.88-1.21,1.4-1.21,1.76,0,12.37-.27,14.22-.13,.53,0,2.28,.13,2.72,.67,.61,.67,.35,3.1,.35,4.18-.18,4.45-.61,31.45-.7,35.77-.09,6.21-.35,12.28-.44,18.35,0,2.56-.09,9.18,1.14,10.93,.79,.94,3.77,1.21,4.74,1.35,7.64,.54,15.27,.27,22.91-.27,.44-.13,.88,.54,.79,1.21,0,.13,.17,.81,.17,.94-.09,3.24-.53,20.38-.35,23.62,0,.54-.09,1.08-.35,1.35,.09,1.21-.88,1.35-1.58,1.35-1.67,.27-3.25,.54-4.83,.67-6.32,.54-12.64-1.89-19.05-2.16Z"/>
              </g>
              <path class="cls-19" d="M7.8,13.7l1.11,39.18c.09,3.1,2.63,5.57,5.73,5.57H51.02c3.17,0,5.74-2.57,5.74-5.74V13.55c0-3-2.3-5.49-5.29-5.72h-.13c-3.2-.26-5.99,2.17-6.17,5.37l-1.77,30.02c-.19,3.15-2.88,5.56-6.04,5.39l-11.19-.61c-2.93-.16-5.27-2.51-5.42-5.44l-1.47-29.31c-.16-3.23-2.95-5.68-6.17-5.43h0c-3.05,.24-5.38,2.82-5.29,5.88Z"/>
              <path class="cls-14" d="M8.06,94.34l1.11-35.33c.09-2.8,2.63-5.03,5.73-5.03H51.27c3.17,0,5.74,2.32,5.74,5.17v35.32c0,2.7-2.3,4.95-5.29,5.16h-.13c-3.2,.23-5.99-1.95-6.17-4.85l-1.77-27.07c-.19-2.84-2.88-5.02-6.04-4.86l-11.19,.55c-2.93,.14-5.27,2.26-5.42,4.91l-1.47,26.43c-.16,2.91-2.95,5.12-6.17,4.9h0c-3.05-.21-5.38-2.55-5.29-5.31Z"/>
              <path class="cls-40" d="M73.33,15.75l9.42,39.26c.74,3.07,3.73,5.05,6.85,4.52h0c3.42-.58,5.64-3.94,4.83-7.31l-9.37-39.26c-.7-2.94-3.48-4.9-6.49-4.58h-.05c-3.6,.4-6.03,3.86-5.19,7.37Z"/>
              <path class="cls-22" d="M111.5,13.66l-8.72,33.21c-1.23,4.69,2.18,9.31,7.02,9.52h0c3.5,.15,6.64-2.11,7.62-5.48l9.61-33.18c1.38-4.76-2.1-9.55-7.05-9.7l-.89-.03c-3.54-.11-6.69,2.24-7.59,5.66Z"/>
              <path class="cls-16" d="M106.44,93.48l8.72-33.21c1.23-4.69-2.18-9.31-7.02-9.52h0c-3.5-.15-6.64,2.11-7.62,5.48l-9.61,33.18c-1.38,4.76,2.1,9.55,7.05,9.7l.89,.03c3.54,.11,6.69-2.24,7.59-5.66Z"/>
              <path class="cls-9" d="M209.59,213.63l7.38-33.53c1.04-4.73-2.55-9.22-7.4-9.23h0c-3.5,0-6.55,2.38-7.39,5.78l-8.27,33.54c-1.19,4.81,2.48,9.45,7.44,9.41h.89c3.54-.04,6.6-2.51,7.36-5.97Z"/>
              <path class="cls-37" d="M175.74,133.07l9.42,39.26c.74,3.07,3.73,5.05,6.85,4.52h0c3.42-.58,5.64-3.94,4.83-7.31l-9.37-39.26c-.7-2.94-3.48-4.9-6.49-4.58h-.05c-3.6,.4-6.03,3.86-5.19,7.37Z"/>
              <path class="cls-5" d="M213.91,130.98l-8.72,33.21c-1.23,4.69,2.18,9.31,7.02,9.52h0c3.5,.15,6.64-2.11,7.62-5.48l9.61-33.18c1.38-4.76-2.1-9.55-7.05-9.7l-.89-.03c-3.54-.11-6.69,2.24-7.59,5.66Z"/>
              <path class="cls-1" d="M265.64,139.79l-18.71,28.79c-2.64,4.06-.85,9.53,3.68,11.24h0c3.27,1.24,6.97,.08,8.95-2.81l19.54-28.48c2.8-4.09,1.01-9.72-3.65-11.43l-.84-.31c-3.33-1.22-7.05,.02-8.99,2.99Z"/>
              <path class="cls-10" d="M253.78,188.54l18.29-28.93c2.58-4.08,.96-9.49-3.34-11.13h0c-3.11-1.18-6.65,.03-8.59,2.93l-19.08,28.64c-2.74,4.11-1.11,9.69,3.31,11.32l.79,.29c3.16,1.16,6.73-.13,8.62-3.11Z"/>
              <path class="cls-6" d="M63.42,119.9l1.49,34.3c.21,4.84,4.84,8.25,9.52,7.02h0c3.39-.89,5.72-3.98,5.66-7.48l-.63-34.54c-.09-4.96-4.82-8.5-9.6-7.19l-.86,.24c-3.42,.94-5.73,4.11-5.58,7.65Z"/>
              <path class="cls-11" d="M4.76,166.63l1.49,34.3c.21,4.84,4.84,8.25,9.52,7.02h0c3.39-.89,5.72-3.98,5.66-7.48l-.63-34.54c-.09-4.96-4.82-8.5-9.6-7.19l-.86,.24c-3.42,.94-5.73,4.11-5.58,7.65Z"/>
              <path class="cls-35" d="M143.73,14.04l-.4,38.43c-.03,3.3,2.58,5.99,5.81,5.99h.17c3.21,0,5.81-2.65,5.81-5.93v-19.06c0-2.86,1.99-5.39,4.77-5.83,6.5-1.03,13.11,.92,17.73,5.46,5.09,5,7.16,12.52,5.71,19.74-.76,3.81,2.24,7.3,6.04,7.07,.05,0,.09,0,.14,0,2.8-.17,5.11-2.36,5.42-5.2,1.84-17.03-5.28-33.25-18.29-41.49-10.54-6.68-21.77-6.08-28.11-4.95-2.75,.49-4.76,2.92-4.79,5.77Z"/>
              <path class="cls-17" d="M143.91,94.21l-.4-38.43c-.03-3.3,2.57-5.99,5.79-5.99h.17c3.2,0,5.79,2.65,5.79,5.93v19.06c0,2.86,1.99,5.39,4.75,5.83,6.48,1.03,13.06-.92,17.67-5.46,5.07-5,7.13-12.52,5.69-19.74-.76-3.81,2.23-7.3,6.02-7.07,.05,0,.09,0,.14,0,2.79,.17,5.09,2.36,5.4,5.2,1.83,17.03-5.27,33.25-18.22,41.49-10.51,6.68-21.69,6.08-28.01,4.95-2.74-.49-4.75-2.92-4.78-5.77Z"/>
              <path class="cls-28" d="M209.87,14.41V52.87c0,3.16,2.42,5.79,5.57,6.05l2.04,.17c3.53,.29,6.56-2.5,6.56-6.05V25.15c0-4.19,16.79-4.05,19.89,.99,4.64,7.56,4.09,17.7-1.38,25.67-1.77,2.58-1.26,6.08,1.14,8.07,.03,.03,.07,.06,.1,.08,2.95,2.45,7.43,1.59,9.22-1.79,8.47-16.01,8.18-32.6-.14-41.97-1.88-2.12-5.9-5.81-13.51-7.69-.47-.12-.96-.17-1.44-.17h-21.99c-3.35,0-6.07,2.72-6.07,6.07Z"/>
              <path class="cls-33" d="M5.05,119.8v38.46c0,3.16,2.42,5.79,5.57,6.05l2.04,.17c3.53,.29,6.56-2.5,6.56-6.05v-27.89c0-4.19,16.79-4.05,19.89,.99,4.64,7.56,4.09,17.7-1.38,25.67-1.77,2.58-1.26,6.08,1.14,8.07,.03,.03,.07,.06,.1,.08,2.95,2.45,7.43,1.59,9.22-1.79,8.47-16.01,8.18-32.6-.14-41.97-1.88-2.12-5.9-5.81-13.51-7.69-.47-.12-.96-.17-1.44-.17H11.12c-3.35,0-6.07,2.72-6.07,6.07Z"/>
              <path class="cls-26" d="M229.45,210.28l5.6,3.09c1.95,1.08,4.41,.28,5.37-1.73l.36-.77c.96-2.03,0-4.45-2.09-5.26l-5.96-2.32c-1.73-.67-3.69-.03-4.68,1.54h0c-1.19,1.88-.55,4.38,1.4,5.46Z"/>
              <path class="cls-15" d="M226.46,216.25l5.6,3.09c1.95,1.08,4.41,.28,5.37-1.73l.36-.77c.96-2.03,0-4.45-2.09-5.26l-5.96-2.32c-1.73-.67-3.69-.03-4.68,1.54h0c-1.19,1.88-.55,4.38,1.4,5.46Z"/>
              <path class="cls-12" d="M209.87,56.92v37.69c0,2.17,1.76,3.93,3.93,3.93h6.11c2.17,0,3.93-1.76,3.93-3.93v-19.06c0-3.42,3.58-5.66,6.66-4.17h0c.85,.42,1.53,1.13,1.9,2l10.39,24.55c.68,1.61,2.35,2.58,4.08,2.37l4.34-.52c2.61-.31,4.18-3.06,3.13-5.47l-9.99-22.91c-.27-.63-.38-1.31-.3-1.99l1.21-11.22c.24-2.27-1.5-4.27-3.78-4.34l-27.55-.86c-2.21-.07-4.05,1.71-4.05,3.92Z"/>
              <path class="cls-8" d="M66.55,176.18l.69,24.73c.09,3.24,2.8,5.8,6.04,5.7l27.02-.81c3.06-.09,5.54-2.52,5.68-5.58l.34-7.04c.16-3.3-2.43-6.07-5.73-6.15l-15.63-.34c-2.82-.06-5.2-2.13-5.66-4.92l-1.1-6.72c-.46-2.84-2.91-4.92-5.79-4.92h0c-3.3,0-5.96,2.73-5.86,6.03Z"/>
              <path class="cls-24" d="M127.22,128.77c3.24,8.49,6.93,21.02,7.77,36.53,.95,17.67-2.18,32.08-4.97,41.34l30.76-23.89c10.45-8.12,10.03-24.03-.84-31.59-15.07-10.47-32.43-22.48-32.72-22.39Z"/>
            </g>
          </g>
          <path class="cls-3" d="M127.75,188.56c-3.34,1.89-7.44-.44-7.73-4.41-.37-5.21-.58-10.78-.56-16.68,.02-5.19,.23-10.13,.56-14.77,.28-3.97,4.36-6.33,7.7-4.45,3.51,1.97,7.25,4.29,11.1,7.04,4.46,3.18,8.36,6.42,11.73,9.52,2.49,2.29,2.38,6.41-.26,8.51-2.26,1.81-4.65,3.63-7.18,5.43-5.3,3.8-10.47,7.04-15.38,9.81Z"/>
        </g>
      </g>
    </g>
  </g>
</svg>