<?xml version="1.0" encoding="UTF-8"?>
<svg id="Capa_2" data-name="Capa 2" xmlns="http://www.w3.org/2000/svg" xmlns:xlink="http://www.w3.org/1999/xlink" viewBox="0 0 950 594">
  <defs>
    <style>
      .cls-1 {
        fill: #a0e8fc;
        stroke: #367cc6;
      }

      .cls-1, .cls-2 {
        stroke-miterlimit: 10;
        stroke-width: 2px;
      }

      .cls-3 {
        fill: #fffee1;
        filter: url(#drop-shadow-1);
      }

      .cls-4 {
        fill: #367cc6;
        font-family: Montserrat-Bold, Montserrat;
        font-size: 100px;
      }

      .cls-2 {
        fill: none;
        stroke: #9e9e9e;
      }
    </style>
    <filter id="drop-shadow-1" filterUnits="userSpaceOnUse">
      <feOffset dx="5" dy="5"/>
      <feGaussianBlur result="blur" stdDeviation="3"/>
      <feFlood flood-color="#000" flood-opacity=".4"/>
      <feComposite in2="blur" operator="in"/>
      <feComposite in="SourceGraphic"/>
    </filter>
  </defs>
  <g id="Capa_1-2" data-name="Capa 1">
    <rect class="cls-3" x="4.11" y="4.68" width="931.74" height="575.19"/>
    <g>
      <text class="cls-4" transform="translate(26.86 117.72)"><tspan x="0" y="0">HIDROPLAY</tspan></text>
      <g>
        <polygon class="cls-1" points="78.56 67.46 46.76 67.46 46.76 39.86 30.56 39.86 30.56 109.86 46.76 109.86 46.76 81.16 78.56 81.16 78.56 109.86 94.76 109.86 94.76 39.86 78.56 39.86 78.56 67.46"/>
        <rect class="cls-1" x="111.36" y="39.86" width="16.2" height="70"/>
        <path class="cls-1" d="M196.06,44.21c-5.8-2.9-12.5-4.35-20.1-4.35h-31.8V109.86h31.8c7.6,0,14.3-1.45,20.1-4.35,5.8-2.9,10.33-6.97,13.6-12.2,3.27-5.23,4.9-11.38,4.9-18.45s-1.63-13.3-4.9-18.5c-3.27-5.2-7.8-9.25-13.6-12.15Zm-.75,42.15c-1.9,3.27-4.57,5.78-8,7.55-3.43,1.77-7.48,2.65-12.15,2.65h-14.8V53.16h14.8c4.67,0,8.72,.88,12.15,2.65,3.43,1.77,6.1,4.27,8,7.5,1.9,3.23,2.85,7.08,2.85,11.55s-.95,8.23-2.85,11.5Z"/>
        <path class="cls-1" d="M273.26,87.36c4.53-2,8.03-4.88,10.5-8.65,2.47-3.77,3.7-8.25,3.7-13.45s-1.23-9.8-3.7-13.6c-2.47-3.8-5.97-6.71-10.5-8.75-4.53-2.03-9.93-3.05-16.2-3.05h-30.3V109.86h16.2v-19.5h14.1c.26,0,.5-.01,.75-.01l13.45,19.51h17.5l-15.64-22.44s.09-.04,.14-.06Zm-5.9-31.1c2.46,2.13,3.7,5.13,3.7,9s-1.23,6.78-3.7,8.95c-2.47,2.17-6.2,3.25-11.2,3.25h-13.2v-24.4h13.2c5,0,8.73,1.07,11.2,3.2Z"/>
        <path class="cls-1" d="M361.51,48.96c-3.43-3.27-7.47-5.8-12.1-7.6-4.63-1.8-9.72-2.7-15.25-2.7s-10.53,.9-15.2,2.7c-4.67,1.8-8.73,4.33-12.2,7.6-3.47,3.27-6.15,7.1-8.05,11.5-1.9,4.4-2.85,9.2-2.85,14.4s.95,10,2.85,14.4c1.9,4.4,4.57,8.23,8,11.5,3.43,3.27,7.5,5.8,12.2,7.6s9.82,2.7,15.35,2.7,10.52-.9,15.15-2.7c4.63-1.8,8.67-4.32,12.1-7.55,3.43-3.23,6.12-7.07,8.05-11.5,1.93-4.43,2.9-9.25,2.9-14.45s-.97-10.08-2.9-14.45c-1.93-4.37-4.62-8.18-8.05-11.45Zm-7.1,35c-1.1,2.73-2.65,5.1-4.65,7.1s-4.32,3.53-6.95,4.6c-2.63,1.07-5.52,1.6-8.65,1.6s-6.03-.53-8.7-1.6c-2.67-1.07-4.98-2.6-6.95-4.6-1.97-2-3.5-4.38-4.6-7.15-1.1-2.77-1.65-5.78-1.65-9.05s.55-6.37,1.65-9.1c1.1-2.73,2.65-5.1,4.65-7.1s4.32-3.53,6.95-4.6c2.63-1.07,5.52-1.6,8.65-1.6s6.03,.53,8.7,1.6c2.67,1.07,4.98,2.6,6.95,4.6,1.97,2,3.5,4.37,4.6,7.1,1.1,2.73,1.65,5.77,1.65,9.1s-.55,6.37-1.65,9.1Z"/>
        <path class="cls-1" d="M431.16,42.91c-4.53-2.03-9.93-3.05-16.2-3.05h-30.3V109.86h16.2v-19.3h14.1c6.27,0,11.67-1.02,16.2-3.05,4.53-2.03,8.03-4.95,10.5-8.75,2.47-3.8,3.7-8.3,3.7-13.5s-1.23-9.8-3.7-13.6c-2.47-3.8-5.97-6.71-10.5-8.75Zm-5.9,31.25c-2.47,2.13-6.2,3.2-11.2,3.2h-13.2v-24.3h13.2c5,0,8.73,1.07,11.2,3.2,2.46,2.13,3.7,5.13,3.7,9s-1.23,6.77-3.7,8.9Z"/>
        <path class="cls-1" d="M540.25,39.86l-31.1,69.77v-12.97h-35.1V39.86h-16.2V109.86h67.8l6.24-15h32.45l6.21,15h17l-31.3-70h-16Zm-3.25,42.7l11.14-26.79,11.1,26.79h-22.24Z"/>
        <polygon class="cls-1" points="655.65 39.86 639.75 39.86 621.01 70.94 602.35 39.86 585.15 39.86 612.25 84.91 612.25 109.86 628.45 109.86 628.45 85.08 655.65 39.86"/>
      </g>
      <line class="cls-2" x1="25.26" y1="192.98" x2="916.65" y2="192.98"/>
      <line class="cls-2" x1="25.26" y1="248" x2="916.65" y2="248"/>
      <line class="cls-2" x1="25.26" y1="303.02" x2="916.65" y2="303.02"/>
      <line class="cls-2" x1="25.26" y1="358.03" x2="916.65" y2="358.03"/>
      <line class="cls-2" x1="25.26" y1="413.05" x2="916.65" y2="413.05"/>
      <line class="cls-2" x1="19.62" y1="481.98" x2="911.01" y2="481.98"/>
      <line class="cls-2" x1="26.86" y1="538.45" x2="918.25" y2="538.45"/>
    </g>
  </g>
</svg>